<svg xmlns="http://www.w3.org/2000/svg" viewBox="0 0 400 300" width="406" height="306" class="illustration styles_illustrationTablet__1DWOa"><g data-name="#64_logistics_outline"><path fill="#ffbc0e" d="M204 121.75h35.45v30.84H204z"/><path d="M239.45 153.59H204a1 1 0 01-1-1v-30.84a1 1 0 011-1h35.45a1 1 0 011 1v30.84a1 1 0 01-1 1zm-34.45-2h33.45v-28.84H205z" fill="#093f68"/><path fill="#f56132" d="M218.22 121.75h7.02v10.99h-7.02z"/><path d="M225.24 133.74h-7a1 1 0 01-1-1v-11a1 1 0 011-1h7a1 1 0 011 1v11a1 1 0 01-1 1zm-6-2h5v-9h-5zm-1.02 16.45h-9a1 1 0 110-2h9a1 1 0 010 2z" fill="#093f68"/><path fill="#ffbc0e" d="M168.55 121.75H204v30.84h-35.45z"/><path d="M204 153.59h-35.45a1 1 0 01-1-1v-30.84a1 1 0 011-1H204a1 1 0 011 1v30.84a1 1 0 01-1 1zm-34.45-2H203v-28.84h-33.45z" fill="#093f68"/><path fill="#f56132" d="M182.77 121.75h7.02v10.99h-7.02z"/><path d="M189.78 133.74h-7a1 1 0 01-1-1v-11a1 1 0 011-1h7a1 1 0 011 1v11a1 1 0 01-1 1zm-6-2h5v-9h-5zm-1.02 16.45h-9a1 1 0 010-2h9a1 1 0 010 2z" fill="#093f68"/><path fill="#ffbc0e" d="M133.09 121.75h35.45v30.84h-35.45z"/><path d="M168.55 153.59h-35.46a1 1 0 01-1-1v-30.84a1 1 0 011-1h35.46a1 1 0 011 1v30.84a1 1 0 01-1 1zm-34.46-2h33.46v-28.84h-33.46z" fill="#093f68"/><path fill="#f56132" d="M147.31 121.75h7.02v10.99h-7.02z"/><path d="M154.33 133.74h-7a1 1 0 01-1-1v-11a1 1 0 011-1h7a1 1 0 011 1v11a1 1 0 01-1 1zm-6-2h5v-9h-5zm-1.02 16.45h-9a1 1 0 010-2h9a1 1 0 010 2z" fill="#093f68"/><path fill="#ffbc0e" d="M97.64 121.75h35.45v30.84H97.64z"/><path d="M133.09 153.59H97.64a1 1 0 01-1-1v-30.84a1 1 0 011-1h35.45a1 1 0 011 1v30.84a1 1 0 01-1 1zm-34.45-2h33.45v-28.84H98.64z" fill="#093f68"/><path fill="#f56132" d="M111.86 121.75h7.02v10.99h-7.02z"/><path d="M118.88 133.74h-7a1 1 0 01-1-1v-11a1 1 0 011-1h7a1 1 0 011 1v11a1 1 0 01-1 1zm-6-2h5v-9h-5zm-1.02 16.45h-9a1 1 0 010-2h9a1 1 0 110 2z" fill="#093f68"/><path fill="#ffbc0e" d="M186.27 90.91h35.45v30.84h-35.45z"/><path d="M221.73 122.75h-35.46a1 1 0 01-1-1V90.91a1 1 0 011-1h35.46a1 1 0 011 1v30.84a1 1 0 01-1 1zm-34.46-2h33.46V91.91h-33.46z" fill="#093f68"/><path fill="#f56132" d="M200.49 90.91h7.02v10.99h-7.02z"/><path d="M207.51 102.9h-7a1 1 0 01-1-1v-11a1 1 0 011-1h7a1 1 0 011 1v11a1 1 0 01-1 1zm-6-2h5v-9h-5zm-1.02 16.45h-9a1 1 0 010-2h9a1 1 0 010 2z" fill="#093f68"/><path fill="#ffbc0e" d="M150.82 90.91h35.45v30.84h-35.45z"/><path d="M186.27 122.75h-35.45a1 1 0 01-1-1V90.91a1 1 0 011-1h35.45a1 1 0 011 1v30.84a1 1 0 01-1 1zm-34.45-2h33.45V91.91h-33.45z" fill="#093f68"/><path fill="#f56132" d="M165.04 90.91h7.02v10.99h-7.02z"/><path d="M172.06 102.9h-7a1 1 0 01-1-1v-11a1 1 0 011-1h7a1 1 0 011 1v11a1 1 0 01-1 1zm-6-2h5v-9h-5zM165 117.35h-9a1 1 0 010-2h9a1 1 0 010 2z" fill="#093f68"/><path fill="#ffbc0e" d="M115.37 90.91h35.45v30.84h-35.45z"/><path d="M150.82 122.75h-35.45a1 1 0 01-1-1V90.91a1 1 0 011-1h35.45a1 1 0 011 1v30.84a1 1 0 01-1 1zm-34.45-2h33.45V91.91h-33.45z" fill="#093f68"/><path fill="#f56132" d="M129.59 90.91h7.02v10.99h-7.02z"/><path d="M136.6 102.9h-7a1 1 0 01-1-1v-11a1 1 0 011-1h7a1 1 0 011 1v11a1 1 0 01-1 1zm-6-2h5v-9h-5zm-1.01 16.45h-9a1 1 0 010-2h9a1 1 0 010 2z" fill="#093f68"/><path fill="#68e1fd" d="M90.85 145.83h154.67v45.52H90.85z"/><path d="M245.52 192.35H90.85a1 1 0 01-1-1v-45.52a1 1 0 011-1h154.67a1 1 0 011 1v45.52a1 1 0 01-1 1zm-153.67-2h152.67v-43.52H91.85z" fill="#093f68"/><path d="M301.08 191.35a4.12 4.12 0 004.12-4c.52-19.39 1.46-54.62-.27-62.44-1.8-8.09-13.82-20.84-18.6-25.66a6.54 6.54 0 00-4.62-1.93h-36.19v94z" fill="#68e1fd"/><path d="M301.08 192.35h-55.56a1 1 0 01-1-1v-94a1 1 0 011-1h36.19a7.44 7.44 0 015.29 2.19c5.06 5.1 17 17.85 18.86 26.15 1.78 8 .82 43.56.3 62.68a5.09 5.09 0 01-5.08 4.98zm-54.56-2h54.56a3.1 3.1 0 003.12-3c.52-19 1.47-54.46-.25-62.19-1.78-8-14.48-21.29-18.33-25.18a5.5 5.5 0 00-3.91-1.63h-35.19z" fill="#093f68"/><path fill="#70cc40" d="M305.61 171.09h3.54v13.51h-3.54z"/><path d="M309.15 185.59h-3.54a1 1 0 01-1-1v-13.5a1 1 0 011-1h3.54a1 1 0 011 1v13.5a1 1 0 01-1 1zm-2.54-2h1.54v-11.5h-1.54z" fill="#093f68"/><path d="M254.81 103.51v46.17h44.49V131.1c0-8.51-10.74-20.33-15.64-25.27a7.78 7.78 0 00-5.55-2.32z" fill="#fff"/><path d="M299.3 150.68h-44.49a1 1 0 01-1-1v-46.17a1 1 0 011-1h23.3a8.78 8.78 0 016.26 2.61c5.95 6 15.93 17.37 15.93 26v18.58a1 1 0 01-1 .98zm-43.49-2h42.49V131.1c0-8.19-10.74-19.91-15.35-24.57a6.78 6.78 0 00-4.84-2h-22.3zm10.77 7.91h-9.8a1 1 0 110-2h9.8a1 1 0 010 2z" fill="#093f68"/><circle cx="273.82" cy="192.06" r="17.03" fill="#093f68"/><path d="M273.82 210.09a18 18 0 1118-18 18.05 18.05 0 01-18 18zm0-34.07a16 16 0 1016 16 16.05 16.05 0 00-16-16.02z" fill="#093f68"/><circle cx="273.82" cy="192.06" r="8.54" fill="#fff"/><path d="M273.82 201.6a9.55 9.55 0 119.54-9.54 9.55 9.55 0 01-9.54 9.54zm0-17.09a7.55 7.55 0 107.54 7.55 7.56 7.56 0 00-7.54-7.55z" fill="#093f68"/><circle cx="127.76" cy="192.06" r="17.03" fill="#093f68"/><path d="M127.76 210.09a18 18 0 1118-18 18.05 18.05 0 01-18 18zm0-34.07a16 16 0 1016 16 16.05 16.05 0 00-16-16.02z" fill="#093f68"/><circle cx="127.76" cy="192.06" r="8.54" fill="#fff"/><path d="M127.76 201.6a9.55 9.55 0 119.54-9.54 9.55 9.55 0 01-9.54 9.54zm0-17.09a7.55 7.55 0 107.54 7.55 7.56 7.56 0 00-7.54-7.55zm67.45 6.84h40.17v4.41h-40.17z" fill="#093f68"/><path d="M235.38 196.76h-40.17a1 1 0 01-1-1v-4.41a1 1 0 011-1h40.17a1 1 0 011 1v4.41a1 1 0 01-1 1zm-39.17-2h38.17v-2.41h-38.17zm49.31-38.17H90.85a1 1 0 010-2h154.67a1 1 0 010 2z" fill="#093f68"/><path d="M265.27 129.58a1 1 0 01-.69-.28 1 1 0 010-1.41l15.19-15.77a1 1 0 011.44 1.39L266 129.28a1 1 0 01-.73.3zm4.3 15.75a1 1 0 01-.73-1.68l21.28-22.86a1 1 0 111.46 1.37L270.3 145a1 1 0 01-.73.33z" fill="#dfeaef"/><rect x="292.28" y="139.57" width="8.17" height="13.79" rx="4.08" fill="#093f68"/><path d="M296.37 154.36a5.09 5.09 0 01-5.09-5.08v-5.63a5.09 5.09 0 0110.17 0v5.63a5.09 5.09 0 01-5.08 5.08zm0-13.79a3.09 3.09 0 00-3.09 3.08v5.63a3.09 3.09 0 003.08 3.08 3.09 3.09 0 003.08-3.08v-5.63a3.09 3.09 0 00-3.07-3.08z" fill="#093f68"/></g></svg>