<svg data-name="Layer 1" xmlns="http://www.w3.org/2000/svg" xmlns:xlink="http://www.w3.org/1999/xlink" viewBox="0 0 652.17 595.39" width="406" height="306" class="illustration styles_illustrationTablet__1DWOa"><defs><linearGradient id="a" x1="236.31" y1="175.86" x2="311.94" y2="175.86" gradientTransform="matrix(1 0 0 -1 -85.91 596)" gradientUnits="userSpaceOnUse"><stop offset="0" stop-opacity="0"/><stop offset=".91" stop-opacity=".8"/><stop offset="1"/></linearGradient><linearGradient id="e" x1="341.62" y1="223.05" x2="252.55" y2="121.26" xlink:href="#a"/><linearGradient id="f" x1="501.73" y1="268.86" x2="645.34" y2="235.75" xlink:href="#a"/><linearGradient id="c" x1="618" y1="285.86" x2="557.65" y2="320.99" gradientTransform="matrix(1 0 0 -1 -85.91 596)" gradientUnits="userSpaceOnUse"><stop offset=".36" stop-color="#00272e"/><stop offset="1" stop-color="#69b9eb" stop-opacity="0"/></linearGradient><linearGradient id="b" x1="594.28" y1="376.59" x2="616.04" y2="376.59" gradientTransform="matrix(1 0 0 -1 -85.91 596)" gradientUnits="userSpaceOnUse"><stop offset="0" stop-color="#ecc4d7"/><stop offset=".42" stop-color="#efd4d1"/><stop offset="1" stop-color="#f2eac9"/></linearGradient><linearGradient id="g" x1="608.59" y1="392.36" x2="570.22" y2="328.52" xlink:href="#b"/><linearGradient id="h" x1="574.69" y1="406.81" x2="620.78" y2="406.81" xlink:href="#b"/><linearGradient id="i" x1="469.29" y1="295.43" x2="517.27" y2="295.43" xlink:href="#b"/><linearGradient id="j" x1="593.34" y1="248.39" x2="685" y2="204.6" xlink:href="#a"/><linearGradient id="k" x1="592.55" y1="218.82" x2="603.28" y2="218.82" gradientTransform="matrix(1 0 0 -1 -.01 595.99)" xlink:href="#b"/><linearGradient id="l" x1="572.21" y1="195.3" x2="588.12" y2="195.3" xlink:href="#b"/><linearGradient id="m" x1="689.7" y1="255.39" x2="578.94" y2="312.68" xlink:href="#c"/><linearGradient id="n" x1="510.36" y1="241.02" x2="559.44" y2="241.02" xlink:href="#b"/><linearGradient id="o" x1="372.6" y1="189.41" x2="408.05" y2="189.41" xlink:href="#b"/><linearGradient id="p" x1="188.42" y1="236.88" x2="270.92" y2="226.95" xlink:href="#c"/><linearGradient id="q" x1="252.52" y1="333.49" x2="302.6" y2="333.49" xlink:href="#b"/><linearGradient id="r" x1="224.92" y1="160.62" x2="328.3" y2="232.93" xlink:href="#c"/><linearGradient id="s" x1="251.27" y1="109.91" x2="270.92" y2="109.91" xlink:href="#b"/><linearGradient id="t" x1="413.15" y1="350.9" x2="352.71" y2="353.1" xlink:href="#a"/><linearGradient id="d" x1="406.57" y1="378.35" x2="413.36" y2="278.53" gradientTransform="matrix(1 0 0 -1 -85.91 596)" gradientUnits="userSpaceOnUse"><stop offset="0" stop-color="#68e1fd" stop-opacity="0"/><stop offset=".02" stop-color="#66daf6" stop-opacity=".04"/><stop offset=".18" stop-color="#58a1bc" stop-opacity=".39"/><stop offset=".35" stop-color="#4d758f" stop-opacity=".66"/><stop offset=".53" stop-color="#45566f" stop-opacity=".85"/><stop offset=".73" stop-color="#40435c" stop-opacity=".96"/><stop offset=".99" stop-color="#3f3d56"/></linearGradient><linearGradient id="u" x1="408.45" y1="378.47" x2="415.24" y2="278.66" xlink:href="#d"/></defs><path d="M652.17 360.76a173.49 173.49 0 01-4.21 38c-24.88 111.52-157.5 196.63-317.33 196.63-65.94 0-127.24-14.49-178.25-39.33-35.2-17.14-65.51-39.21-89.06-64.87a169.14 169.14 0 01-26.24-31.84C-30.55 354.4-5.19 167.13 109.23 168.69a288.94 288.94 0 0040.85-2.09c32.15-4.15 51.65-13.87 63.46-24.41a60.07 60.07 0 007.89-8.52 106.13 106.13 0 0167.65-40.93c238.66-38.23 325.57 80.75 352.51 181a302.48 302.48 0 0110.49 82.95c.07 1.35.09 2.71.09 4.07z" fill="#68e1fd" opacity=".18" style="isolation:isolate"/><path d="M171.77 512.99l-127.34-43S-2.43 411.86.18 314.1l189.5 77.57s82.4-23.68 131.49-26.05 266.72-25.22 266.72-25.22 42 48.15 23.32 62.88-153.13 17.21-153.13 17.21l-93.5-54.8-78.59 60.76-60 56.54z" fill="#000405" opacity=".05" style="isolation:isolate"/><path d="M380.53 297.13l-2 5.08s6 5.31 2 7.59c0 0 20.82-1.29 0-12.67z" fill="#3f3d56"/><path d="M142.57 461.64l-2.42 6.86 19.84 9.29s18.44 2.32 24.11-2.54a24.33 24.33 0 007.25-11.37z" fill="#333"/><path d="M194.6 397.28s23.38-.41 30.22 8.08-17.74 33.63-17.74 33.63l-56.69 4z" fill="#68e1fd"/><path d="M194.61 397.29s23.38-.41 30.22 8.08S207.09 439 207.09 439l-56.69 4z" transform="translate(-.01 -.01)" fill="url(#a)"/><path d="M193.76 433.73s49.12 4.43 57.66 7.58c16.14 6.07 11.34 28.75 4 31.17-6.09 2.05-52.41 19-67.22 24.43a5.1 5.1 0 01-6.43-2.81l-5.08-12.11a5.13 5.13 0 013.25-6.9l29.14-8.67s-43.26 4.36-52 2.42c-19.35-4.24-38.43-29-28.27-50.62s64.95 15.51 64.95 15.51z" fill="#68e1fd"/><path d="M193.77 433.74s49.12 4.43 57.66 7.58c16.14 6.07 11.34 28.75 4 31.17-6.09 2.05-52.41 19-67.22 24.43a5.1 5.1 0 01-6.43-2.81L176.7 482a5.13 5.13 0 013.25-6.9l29.14-8.67s-43.26 4.36-52 2.42c-19.35-4.24-38.43-29-28.27-50.62s64.95 15.51 64.95 15.51z" transform="translate(-.01 -.01)" fill="url(#e)"/><path d="M322.08 311.5l-2.27 8.88 11.64 10.31s-3.33 0-6 5.2l-1.06 11.37s7.82 16.92 29.4 2.13l35 30.94 77.63-27.34 1.66-10.58z" fill="#3f3d56"/><path d="M532.54 319.99l-38.62-15.17a16.94 16.94 0 00-15.68-.46 13.21 13.21 0 00-7.55 11.38c-1.33 14.6 6.53 81.8 6.53 81.8a39.43 39.43 0 009 2.31 18.86 18.86 0 0015.49-3.79l.75-50.55s43.53 26.89 59.06 24.65c17.38-2.5 45.34-16.76 26.45-49.83s-55.43-.34-55.43-.34z" fill="#68e1fd"/><path d="M532.55 320l-38.62-15.17a16.94 16.94 0 00-15.68-.46 13.21 13.21 0 00-7.55 11.38c-1.33 14.6 6.53 81.8 6.53 81.8a39.43 39.43 0 009 2.31 18.86 18.86 0 0015.49-3.79l.75-50.55s43.53 26.89 59.06 24.65c17.38-2.5 45.34-16.76 26.45-49.83s-55.43-.34-55.43-.34z" transform="translate(-.01 -.01)" fill="url(#f)"/><path d="M500.54 231.07s-11.34 36.1-14.4 43.84-56.68 14.18-56.68 14.18l2 23.17 61.06-7.58 18.36-26.55z" fill="#68e1fd"/><path d="M500.55 231.08s-11.34 36.1-14.4 43.84-56.68 14.18-56.68 14.18l2 23.17 61.06-7.58 18.36-26.55z" transform="translate(-.01 -.01)" opacity=".61" fill="url(#c)" style="isolation:isolate"/><path d="M531.08 219.09l12.43 6.9c23.09 10.31 31.48 33.26 44.48 94.5 0 0-10.92 24.42-51.12 8 0 0-27.28-39.86-31.78-54.8s-15.83-40.65 5-50.48 20.99-4.12 20.99-4.12z" fill="#68e1fd"/><path d="M557.73 271.67l15.14 57.13s-15.45 9.42-36.1-.34-13.34-19.47-20-31.33l20.23-11z" fill="#000405" opacity=".05" style="isolation:isolate"/><path d="M529.33 216.62a14.1 14.1 0 01-18.73 6.88l-.58-.28s-11.68 20.37 5 17.94c8.84-1.29 16.58-14.45 18.06-21.12z" fill="#333"/><path d="M530.09 200.29c0 .23-.53 10.28-.94 17.52a22.26 22.26 0 01-6.73 14.79 24.74 24.74 0 01-8.24 5.65 4.33 4.33 0 01-4.44-.87 4.38 4.38 0 01-1.26-4.37c.4-1.51.8-3.25 1.12-5.07.66-3.78 1-7.87-.07-10.76a3 3 0 00-.11-.32c-.6-1.49 0-3.12 1.41-4.76 1.94-2.3 5.34-4.63 8.74-6.6a106 106 0 0110.52-5.21z" transform="translate(-.01 -.01)" fill="url(#b)"/><path d="M511.83 227.17a8.91 8.91 0 01-2.19.77c.66-3.78 1-7.87-.07-10.76l1.3-5.08 1-3.78 7.78-2.82 7.87-2.85c-1.96 13.98-9.43 21.59-15.69 24.52z" transform="translate(-.01 -.01)" fill="url(#g)"/><path d="M509.84 160.47a22.37 22.37 0 00-21 23.62c0 .57.09 1.14.17 1.71a75.7 75.7 0 006.88 26.2c7.29 12.44 25.69 2.2 28.6-2.92s13.91-28.29 9.3-34.88c-3.05-4.48-12.01-14.2-23.95-13.73z" transform="translate(-.01 -.01)" fill="url(#h)"/><path d="M490.41 151.66l3.78 1.94a14.22 14.22 0 00-11.68 5.65 18.72 18.72 0 00-5.48 13l6.43-3s-.49 7.92 11.67 8.53 25.05 1.1 25.05 1.1l-4.1-5.72s7.55 3 8.88 5.84a93.13 93.13 0 012.56 13.66s3-7.82 4.27-6.11-1.32 8.8-2.91 10.35-1.32 6.22-1.47 6.6 7.56-6 7.9-8.19 8-24.38 3-29l3-.22a14.2 14.2 0 00-6-2.32s-19.89-26.29-44.9-12.11z" fill="#333"/><path d="M429.4 292a68.05 68.05 0 01-11.31-3 92 92 0 00-18-2.81s-1.17 4 2 4.82 6.8 2.16 6.8 2.16l-13.22 1.33-12.24 1.67s1.17 4 4.46 4a15 15 0 003.77 4.47 60.42 60.42 0 016.46 6.83 37.2 37.2 0 005.29 3.49c.68 0 26.45-3 28-5.46z" transform="translate(-.01 -.01)" fill="url(#i)"/><path d="M536.89 328.49s4 19.91 9.93 24.92c0 0-38.88 30.34-40.69 52.29-2.53 30.34 93.14-16.71 93.14-16.71l-6.62-16.76-41.48 18.39s25.24-17.06 37.82-34.13c9.86-13.54 4.5-26-1-35.68-.1-.32-23.91 19.36-51.1 7.68z" fill="#68e1fd"/><path d="M536.9 328.5s4 19.91 9.93 24.92c0 0-38.88 30.34-40.69 52.29-2.53 30.34 93.14-16.71 93.14-16.71l-6.62-16.76-41.48 18.39s25.24-17.06 37.82-34.13c9.86-13.54 4.5-26-1-35.68-.1-.32-23.91 19.36-51.1 7.68z" transform="translate(-.01 -.01)" fill="url(#j)"/><path fill="url(#k)" d="M592.54 372.22l7.18-2.47 3.55 9.41-7.93 5.42-2.8-12.36z"/><path d="M487 404l-.68-4.17a20.47 20.47 0 0015.47-3.83l.42 6.83A16.42 16.42 0 01487 404z" transform="translate(-.01 -.01)" fill="url(#l)"/><path d="M486.82 402.71l-17 6.14s-9.45-2.31-11.34 3a11.44 11.44 0 00-.34 8.64s4.46 4 15.57 1.67 29.28-8 29.28-8l-.68-11.11a17.83 17.83 0 01-15.49-.34zm114.26-35.12s-4.27 1.75-3.78 2.88 2-1.36 5.82 8.73l-2.45 1.79 5.32 11.37a10.42 10.42 0 00-4.11 9.14c.53 2.77 5.44 3.15 9.37 1.79s5.63-10.09 5.63-10.09-2.57-20.93-7.86-24.42-7.94-1.19-7.94-1.19z" fill="#333"/><path d="M472.88 346.32l-80.26 25.29-36.8-30.56c-14.83 15.16-32.68 3.79-30.23-5.06s18.9-5.65 18.9-5.65l-22.3-18.73 41.72-10.5c.26 1.47 2 8.6 12.13 9.17 11.33.65 13.9-8.57 4.49-13.08l26.46-6.89z" fill="#68e1fd"/><path d="M451.44 336.39a4.78 4.78 0 00-1.53.72 8.22 8.22 0 00-1.14 1.36c-1.48 1.84-3.89 2.57-6.08 3.44a33.54 33.54 0 00-7 3.78 1.71 1.71 0 00-.73.82c-.33 1.07 1.33 1.6 1.89 2.57a2.07 2.07 0 01-.34 2.23 6.63 6.63 0 01-1.89 1.44 34.85 34.85 0 00-9.8 8.94 240.3 240.3 0 0137.7-15.7 7.67 7.67 0 002.79-1.34 2.55 2.55 0 00.85-2.79c-.22-.49.55-.62.15-1-1.95-1.74-5.23-4.65-7.84-6.78.04.02-4.98 1.63-7.03 2.31z" fill="#000405" opacity=".05" style="isolation:isolate"/><path d="M558.08 236.8a12.33 12.33 0 00-21.15 4.25c-.72 2.31-1.48 5.08-2.23 8.49-4 18.43-22.11 58.51-22.11 58.51l-52.6 28.41 14.4 18.43 61.6-30.34s27.28-60.26 26.79-71.75a27 27 0 00-4.7-16z" fill="#68e1fd"/><path d="M558.09 236.81a12.33 12.33 0 00-21.15 4.25c-.72 2.31-1.48 5.08-2.23 8.49-4 18.43-22.11 58.51-22.11 58.51L460 336.47l14.4 18.43 61.6-30.34s27.28-60.26 26.79-71.75a27 27 0 00-4.7-16z" transform="translate(-.01 -.01)" opacity=".61" fill="url(#m)" style="isolation:isolate"/><path d="M464.5 339.05a69.14 69.14 0 01-11.6 2.08 92.81 92.81 0 00-17.53 5s.6 4.1 3.78 3.53 7.06-.83 7.06-.83l-11.33 6.79-10.43 6.67s2.72 3.15 5.7 1.74a15.27 15.27 0 005.33 2.47 61.39 61.39 0 018.69 3.45 37 37 0 006.27.95c.61-.27 22.94-13.92 23.09-16.76z" transform="translate(-.01 -.01)" fill="url(#n)"/><path d="M288.75 331.72l19.2 7.58v11.38s-23 .49-23 10.46 21.69 17.79 36.23 4.48l33.1 19-1.2 9.74-100.64 36.41-57.66-70.35v-11.37z" fill="#3f3d56"/><path d="M288.75 320.49l19.24 18.77s-23 .5-23 10.47 21.69 17.79 36.23 4.47l33.1 30.34-100.82 35.54-58.72-70.84 39.56-12.1s-12.58-8.46-.49-14.11a19.31 19.31 0 017.14-1.93c9.49-.38 11 4.51 12.25 9.86v.42z" fill="#68e1fd"/><path d="M210.77 344.35s16 34.78 23.61 40.55c4.24 3.22 33.55 12.78 58.44 14.13 2.33.13 9.61-6.62 13.05-5.73 5 1.31-.91 5.8.25 5.86 15 .71 23.31-5.86 23.31-5.86l-79 28.52-52.93-75.9z" fill="#000405" opacity=".05" style="isolation:isolate"/><path d="M287.86 406.62a58.83 58.83 0 019.14-9.52 35.91 35.91 0 018.88-3.79s1.4 4.25-1 5.05-3.78 5-3.78 5 17.46 3.34 19.57 2.31 2.31 2.24-1.81 2.85-4 6.52-6.8 7-6.95 3.15-11.07 4.14a54.41 54.41 0 01-14.3-.66z" transform="translate(-.01 -.01)" fill="url(#o)"/><path d="M207.74 356.14a62.21 62.21 0 00-28.45-64.15 29.47 29.47 0 00-12.69-4.89c-18.29-1.06-37.79 131.1-37.79 131.1s8.81 25.6 35.48 28.06c24.64 2.28 29.44-12.55 29.44-12.55z" fill="#68e1fd"/><path d="M207.75 356.15A62.21 62.21 0 00179.3 292a29.47 29.47 0 00-12.69-4.89c-18.29-1.06-37.79 131.1-37.79 131.1s8.81 25.6 35.48 28.06c24.64 2.28 29.44-12.55 29.44-12.55z" transform="translate(-.01 -.01)" opacity=".61" fill="url(#p)" style="isolation:isolate"/><path d="M166.61 287.09s2.68-19.94 3.78-32.91 5.36-30.34 27.13-28.07 21.76 35.2 15.71 49-14.09 13.35-14.09 13.35-10.84-2.39-10.47 10.66z" transform="translate(-.01 -.01)" fill="url(#q)"/><path d="M174.83 223.3a24.54 24.54 0 00-6.65 11.11 59.5 59.5 0 00-2 10.5l2.23-2.42a163 163 0 01-1.4 18.2 98.7 98.7 0 00-1 17l4-.19 5 6.26 5.63-3.8 4.23-2.23 3.78-9.3a5.24 5.24 0 01-1.81-6.06c1.4-3.79 4.83-4.67 5.63-2.43a43.27 43.27 0 011 8.49l6-17s3.78-5.28 7.07-1.63a17.53 17.53 0 007.25 4.85l-2-5.69 5.44 1.4-.42-6.48 4 2.84s1.81-10.5-1.63-15.17-16.91-23.23-44.35-8.25z" fill="#333"/><path d="M288.41 403.24l-44.54-4.82a29.32 29.32 0 01-23.51-24.8l-16.47-50.25a17.71 17.71 0 00-14.21-12.17 15.41 15.41 0 00-17 19.8l17 60.67a29.28 29.28 0 0026.45 25.67l69.86 9.11z" fill="#68e1fd"/><path d="M288.42 403.25l-44.54-4.82a29.32 29.32 0 01-23.51-24.8l-16.47-50.25a17.71 17.71 0 00-14.21-12.17 15.41 15.41 0 00-17 19.8l17 60.67a29.28 29.28 0 0026.45 25.67l69.86 9.11z" transform="translate(-.01 -.01)" opacity=".61" fill="url(#r)" style="isolation:isolate"/><path d="M178.47 477l-13.11 3 5.25 15.17 13.72-3.17s3.67-11.73-5.86-15z" transform="translate(-.01 -.01)" fill="url(#s)"/><path d="M159.99 477.79s8.58-1.82 10 1.1-3.14 2.73-2.23 6.87a83.59 83.59 0 002.83 9.29l4.23-.95.87 5a3.81 3.81 0 003.78 3c9.9.57 8.58 9.55 5.1 9.89l-12.81 1-6.77-5.7a5.38 5.38 0 01-1.85-2.24c-2.47-4.85-10.06-22.9-3.15-27.26z" fill="#333"/><path d="M368.4 168.54a19.29 19.29 0 00-1.7 3c-2.87 6.14-12.58 28.1-14 47.13a18.93 18.93 0 01-17.84 17.75l-17.34 1-5.67.3a18.9 18.9 0 01-19.65-15.17c-3.55-17.52-11.11-44.29-25.8-56.12 0 0-64.77-59.31-21.58-125.45a102.74 102.74 0 019.71-12.67C299.86-21.87 374.68.99 392.66 47.6s-17.11 110.89-24.26 120.94z" fill="#68e1fd" opacity=".4" style="isolation:isolate"/><path d="M355.18 244.61c-1.51 3.79-3.25 5.61-1.74 8.12s5.86 9.26-16.21 12.26a120.12 120.12 0 01-13.79 1.1h-7.22l-4.23-.19c-4.83-.3-8.73-.79-11.33-1.21a10.17 10.17 0 01-7-4.44 5.25 5.25 0 01.8-5.46 2.92 2.92 0 00.15-4.13 3.07 3.07 0 00-1.06-.72 6.28 6.28 0 01-.38-8.76 7.39 7.39 0 001.33-1.9 6.49 6.49 0 00-.87-6.64l-.61-.75a11 11 0 01-1.81-3.8 5.68 5.68 0 01.91-5.68 18.89 18.89 0 0019.64 15.16l5.67-.34a2.76 2.76 0 00.38-.72c1-2.42-1.25-5.23-.11-9l4.26-.19a118.25 118.25 0 0030.76-6 6.13 6.13 0 011.51 7.59 9.42 9.42 0 00-.79 2.65 9.63 9.63 0 00.94 5.61 5.24 5.24 0 00.34.61 7.59 7.59 0 01.46 6.83z" fill="#68e1fd"/><path d="M292.16 222.39a129.62 129.62 0 0160.45-1.1s-32.76 13.42-60.45 1.1z" fill="#333"/><path d="M321.18 265.74a20 20 0 01-5 .34l-4.24-.19c-4.83-.3-8.72-.79-11.33-1.21a10.17 10.17 0 01-7-4.44 5.24 5.24 0 01.79-5.46 3 3 0 00.88-2.68 2.91 2.91 0 00-1.79-2.17 6.27 6.27 0 01-.37-8.76 6.39 6.39 0 00.45-8.53 11.43 11.43 0 01-2.34-4.52 5.7 5.7 0 01.9-5.68 74.35 74.35 0 0029.74 4.85l.49.23s-3.78 1.44-2.8 4.74 2.42 9.25-.83 13.12 3 4.93 1.82 9.29v.42a24.18 24.18 0 00-1.1 4c-.68 3.43-.36 6.35 1.73 6.65z" transform="translate(-.01 -.01)" fill="url(#t)"/><path d="M321.93 227.24a74.15 74.15 0 01-29.77-4.85c-3.52-17.41-11.08-44.18-25.77-56 0 0-64.77-59.31-21.58-125.45a102.74 102.74 0 019.71-12.67l5.82-.53s38.74-20.41 55.17 1.93-19.43 47.59-21.31 88.39 44.79 48.35 27.73 109.18z" fill="#fff" opacity=".49" style="isolation:isolate"/><path d="M350.09 255.12c-2.8 1.82-12.85 5.24-30.76 4a131.35 131.35 0 01-24.82-4.4 2.92 2.92 0 00.15-4.13 3.07 3.07 0 00-1.06-.72 88.05 88.05 0 0027 4.74 102.11 102.11 0 0030.56-3.79s3.12 1.57-1.07 4.3z" transform="translate(-.01 -.01)" fill="url(#d)"/><path d="M354.36 237.22c-3.36 2.81-16.06 8-34.42 6.22a101.1 101.1 0 01-25.43-4.21 6.47 6.47 0 00-.87-6.63l-.61-.76c1.21.46 3.25 1.1 6 1.82a106 106 0 0018.9 3h2.94a84.28 84.28 0 0032.61-5.16 9.58 9.58 0 00.88 5.72z" transform="translate(-.01 -.01)" fill="url(#u)"/><path d="M228.6 328.8l.23 10 5.55-1.71s-5.78-4.01-5.78-8.29z" fill="#3f3d56"/><path d="M350.25 126.12l-1.21-.82a41.45 41.45 0 001.89-17.13c-1.44-12.24-10.08-19.71-24.3-21-21.8-2.07-30.43 9.18-33.63 16.06-9.24 19.23-.88 50.37 12.44 64.34 16.42 17.14 10.08 49.46 7.76 59a3 3 0 00-.15.72v.64l3.35 1.14.24-.94a109.1 109.1 0 003.44-23.35c.59-17-3.48-30.75-11.81-39.75-12.3-12.89-20.29-42.65-11.8-60.26 5.15-10.55 15.54-15.41 30.07-14.06 15.81 1.5 20.18 10.57 21.06 17.88a37.73 37.73 0 01-1.61 14.85 16.48 16.48 0 00-11.42-1.28c-7.49 2.06-12.22 9.82-14.87 15.94a8.53 8.53 0 001.57 9.21 8.44 8.44 0 008.86 2.27c6.75-2.39 13.79-10.67 17.75-20.77l.39.27c11 7.74 3.15 19.67-5.88 33.5-6.43 9.69-14.41 21.75-15.27 33.63-1 10.64-.54 19.05.18 29.76l.05.85h3.6l-.05-1c-.7-10.69-1.12-19-.18-29.34.77-10.88 8.12-22.07 14.6-32l.29-.45c9.38-14.43 18.25-28.13 4.64-37.91zm-21.44 20a4.67 4.67 0 01-5-1.31 4.87 4.87 0 01-.9-5.33c1.9-4.41 6.06-12.1 12.53-13.9a10.92 10.92 0 012.84-.38 15.06 15.06 0 016.34 1.64c-3.77 9.53-10.18 17.4-15.81 19.3zm18.18-20.13l.16.11z" fill="#fff"/></svg>