<svg xmlns="http://www.w3.org/2000/svg" data-name="Layer 1" width="618.675" height="487.325"><path d="M148.532 264.22c-4.937-26.426 2.836-56.49 24.443-72.486a123.863 123.863 0 0025.822 81.025c6.935 8.89 15.575 18.055 15.306 29.326-.166 7.014-3.96 13.548-8.958 18.47-4.999 4.922-11.156 8.471-17.24 11.965l-.947 1.473c-17.834-20.116-33.488-43.346-38.426-69.773z" fill="#f0f0f0"/><path d="M173.369 192.138a105.87 105.87 0 00-6.99 64.761 45.591 45.591 0 004.828 13.444 26.149 26.149 0 009.879 9.582c3.77 2.179 7.88 3.97 11.055 7.028a16.01 16.01 0 014.713 12.216c-.152 5.623-2.315 10.856-4.609 15.9-2.546 5.599-5.28 11.375-5.114 17.671.02.763-1.165.75-1.185-.012-.287-10.954 7.632-19.751 9.396-30.262.824-4.904.174-10.086-3.274-13.888-3.015-3.324-7.25-5.176-11.088-7.349a27.903 27.903 0 01-10.008-9.009 42.148 42.148 0 01-5.327-13.208 102.712 102.712 0 01-2.328-32.018 107.747 107.747 0 019.035-35.465c.31-.694 1.325-.08 1.017.609z" fill="#fff"/><path d="M164.507 249.97a15.884 15.884 0 01-16.571-12.183c-.174-.742.972-1.046 1.145-.303a14.708 14.708 0 0015.438 11.302c.76-.057.744 1.128-.012 1.184zm14.521 29.102a30.615 30.615 0 007.674-20.95c-.017-.763 1.167-.75 1.185.012a31.844 31.844 0 01-8.03 21.785c-.507.57-1.334-.28-.829-.847zm-13.355-63.592a8.991 8.991 0 007.987-3c.5-.576 1.326.274.829.847a10.075 10.075 0 01-8.829 3.337.612.612 0 01-.586-.598.595.595 0 01.599-.587z" fill="#fff"/><path d="M261.334 213.592c-.302.37-.604.739-.904 1.118a118.407 118.407 0 00-10.837 15.858c-.252.426-.502.863-.741 1.296a124.827 124.827 0 00-14.565 43.589 121.222 121.222 0 00-1.112 18.385c.134 8.49.954 17.685-1.648 25.493a20.796 20.796 0 01-.937 2.398l-41.761 13.305c-.11-.017-.218-.025-.329-.042l-1.643.607c-.027-.316-.048-.645-.075-.962-.017-.184-.024-.37-.04-.554-.009-.123-.016-.247-.03-.358a1.645 1.645 0 01-.005-.114c-.015-.11-.016-.215-.028-.316-.124-1.84-.239-3.682-.334-5.53-.003-.01-.003-.01.003-.022-.717-14.077-.265-28.337 2.338-42.075.078-.413.153-.836.25-1.255a115.675 115.675 0 015.116-18.17 102.26 102.26 0 014.124-9.49 85.036 85.036 0 0115.436-21.648c12.459-12.68 28.835-21.236 46.381-21.505.449-.007.889-.01 1.341-.008z" fill="#f0f0f0"/><path d="M261.409 214.152a105.87 105.87 0 00-44.571 47.5 45.59 45.59 0 00-4.24 13.642 26.149 26.149 0 002.119 13.598c1.699 4.01 3.9 7.914 4.595 12.267a16.01 16.01 0 01-3.592 12.592c-3.506 4.398-8.384 7.273-13.252 9.92-5.404 2.938-11.064 5.904-14.723 11.03-.443.621-1.381-.103-.939-.723 6.366-8.92 17.985-11.175 25.722-18.505 3.61-3.42 6.212-7.949 5.748-13.06-.406-4.47-2.674-8.498-4.429-12.544a27.903 27.903 0 01-2.567-13.218 42.148 42.148 0 013.7-13.754 102.712 102.712 0 0117.418-26.966 107.747 107.747 0 0128.566-22.877c.665-.367 1.107.733.445 1.098z" fill="#fff"/><path d="M219.514 254.993a15.884 15.884 0 01-5.896-19.705c.309-.697 1.406-.25 1.097.448a14.708 14.708 0 005.522 18.318c.642.413-.085 1.349-.723.939zm-5.926 31.979a30.615 30.615 0 0018.74-12.108c.445-.619 1.383.105.938.724a31.844 31.844 0 01-19.526 12.559c-.75.15-.897-1.026-.152-1.175zm27.622-58.816a8.991 8.991 0 008.184 2.414c.746-.16.894 1.017.152 1.175a10.075 10.075 0 01-9.058-2.65.612.612 0 01-.108-.832.595.595 0 01.83-.107z" fill="#fff"/><path d="M326.932 69.084a11.998 11.998 0 01.273 1.87L376.169 99.2l11.902-6.851 12.687 16.61-19.89 14.177a9.119 9.119 0 01-10.94-.267l-50.49-39.832a11.965 11.965 0 117.494-13.953z" fill="#ffb6b6"/><path d="M376.849 96.082a5.124 5.124 0 012.558-3.42l22.606-12.317a14.245 14.245 0 0117.222 22.695l-18.118 18.406a5.13 5.13 0 01-7.75-.51l-15.6-20.683a5.123 5.123 0 01-.918-4.171z" fill="#3f3d56"/><path d="M417.235 24.476c3.253-10.366 10.65-19.873 20.878-23.377 10.23-3.504 25.208 1.834 32.899 9.498 14.067 14.02 17.5 62.182 7.835 77.402-1.922-.102-8.555-.177-10.501-.25l-2.752-9.173v9.083c-15.187-.47-30.997-.176-46.816.128-1.418-10.776-4.795-52.946-1.543-63.311z" fill="#2f2e41"/><path fill="#ffb6b6" d="M412.883 459.573h-13.851l-6.589-53.427 20.443.001-.003 53.426zm121.254-8.613l-13.403 3.493-19.853-50.037 19.782-5.155 13.474 51.699zm-76.332-319.527l3.139 8.16-.628 8.16-61.424 21.275 3.048-35.712 6.904-8.161 48.961 6.278z"/><circle cx="438.384" cy="36.061" r="21.938" fill="#ffb7b7"/><path d="M423.31 7.494a27.555 27.555 0 0141.894 24.048c-11.96 3.057-24.703 4.335-38.208.736l-3.087-7.555-1.82 7.56q-6.197 4.36-11.963-.015A28.135 28.135 0 01423.31 7.494zm-4.23 478.38h-9.83l-1.754-9.28-4.493 9.28h-26.068a5.86 5.86 0 01-3.33-10.682l20.817-14.377v-9.382l21.897 1.307zm128.902-11.344l-9.511 2.48-4.039-8.537-2.007 10.113-25.225 6.575a5.86 5.86 0 01-5.917-9.497l16.518-19.163-2.366-9.078 21.517-4.258zm-15.545-57.169l-40.6-83.447-12.746-101.567c8.788-16.32-7.533-49.528-7.533-49.528v-13.943l-63.22 11.926a303.467 303.467 0 00-18.493 110.188L392.393 426h-.8a5 5 0 000 10h25a5 5 0 100-10h-.644l17.947-171.757 20.868 84.758 50.43 78.04a4.987 4.987 0 00.4 9.959h25a4.995 4.995 0 001.843-9.639z" fill="#2f2e41"/><path d="M477.274 191.367a3.987 3.987 0 00-3.605-2.995c-.833-9.527-6.34-70.629-6.549-72.421l-.008-.076-1.594-34.058a5.037 5.037 0 00-4.703-4.79l-8.42-.55a.446.446 0 01-.431-.446 7.081 7.081 0 00-7.082-7.081h-24.93a6.63 6.63 0 00-6.576 5.804.44.44 0 01-.448.396h-.003a11.845 11.845 0 00-11.916 9.824c-3.408 19.83-10.239 64.84-6.862 89.862 1.176 8.71.641 21.812.197 29.1a5.365 5.365 0 001.336 3.89 3.992 3.992 0 00-2.767 4.807 4 4 0 004.857 2.901l76.603-19.31a4 4 0 002.901-4.857z" fill="#3f3d56"/><path d="M350.668 334.55a9.464 9.464 0 00-7.945-9.282l-135.815-22.302a9.463 9.463 0 00-3.913.174l-31.829 8.23-18.262 4.728-33.703 8.712a9.494 9.494 0 00-7.107 9.186v142.315a9.535 9.535 0 007.51 9.273l138.337-1.566a9.217 9.217 0 001.976.205 9.469 9.469 0 002.854-.435l82.19 2.046a9.448 9.448 0 006.632-9.124z" fill="#fff"/><path d="M350.668 334.55a9.464 9.464 0 00-7.945-9.282l-135.815-22.302a9.463 9.463 0 00-3.913.174l-31.829 8.23-18.262 4.728-33.703 8.712a9.494 9.494 0 00-7.107 9.186v142.315a9.535 9.535 0 007.51 9.273l138.337-1.566a9.217 9.217 0 001.976.205 9.469 9.469 0 002.854-.435l82.19 2.046a9.448 9.448 0 006.632-9.124zm-6.42 149.022l-82.188 1.955a7.214 7.214 0 01-3.621.174l-138.345-2.433a7.153 7.153 0 01-5.629-6.957V333.996a7.123 7.123 0 014.665-6.68 5.91 5.91 0 01.664-.206l35.655-9.218 21.085-5.455 27.054-6.997a6.782 6.782 0 011.779-.229 7.036 7.036 0 011.154.095l135.815 22.302a7.136 7.136 0 015.17 3.74 7.116 7.116 0 01.79 3.218l.926 142.16a7.09 7.09 0 01-4.973 6.846z" fill="#ccc"/><path d="M347.506 331.348a1.03 1.03 0 01-.3.134l-39.949 10.8-12.436 3.36-35.37 9.558a1.372 1.372 0 01-.309.04 1.935 1.935 0 01-.213-.016L116.307 329.22l-.474-.087a1.19 1.19 0 01.427-2.34l2.87.522 139.965 25.52 30.485-8.238 17.053-4.61 39.331-10.632.625-.166a1.192 1.192 0 011.383.648.926.926 0 01.072.19 1.189 1.189 0 01-.538 1.32z" fill="#ccc"/><path d="M260.328 484.5c-.65 0-1.18-.523-1.186 2.825l-1.186-129.26c-.006-4.655.52-5.191 1.176-5.197h.01c.65 0 1.18.523 1.186 5.175l1.186 129.26c.006-3.345-.52-2.81-1.175-2.803z" fill="#ccc"/><path d="M307.594 486l-12.773.135-5.241-141.537-133.743-26.61a3.073 3.073 0 01-.388-.096 4.715 4.715 0 01-2.545-1.794l18.262-4.728 5.368 1.067 126.905 25.244a4.718 4.718 0 013.194 2.308c.395.688.953 145.189.96 146.011z" fill="#ccc"/><path d="M409.896 75.49a7.133 7.133 0 00-5.988-6.996L301.551 51.686a7.132 7.132 0 00-2.95.131l-23.987 6.203-13.764 3.563-25.4 6.566a7.155 7.155 0 00-5.356 6.923v83.893a7.186 7.186 0 005.66 6.989l104.258 22.183a6.947 6.947 0 001.49.154 7.136 7.136 0 002.15-.327l61.942-19.561a7.12 7.12 0 005-6.876z" fill="#fff"/><path d="M300.392 57.847a.866.866 0 00-.221.028l-63.152 16.332a.893.893 0 00-.67.864v83.891a.897.897 0 00.707.874l104.258 22.182a.9.9 0 00.455-.022l61.944-19.56a.888.888 0 00.623-.86l-.694-86.036a.891.891 0 00-.749-.874L300.536 57.86a.929.929 0 00-.144-.012z" fill="#63e4ff"/><path d="M409.896 75.49a7.133 7.133 0 00-5.988-6.996L301.551 51.686a7.132 7.132 0 00-2.95.131l-23.987 6.203-13.764 3.563-25.4 6.566a7.155 7.155 0 00-5.356 6.923v83.893a7.186 7.186 0 005.66 6.989l104.258 22.183a6.947 6.947 0 001.49.154 7.136 7.136 0 002.15-.327l61.942-19.561a7.12 7.12 0 005-6.876zm-4.838 91.209l-61.942 19.56a5.437 5.437 0 01-2.729.132l-104.264-22.183a5.39 5.39 0 01-4.242-5.243V75.072a5.369 5.369 0 013.515-5.034 4.454 4.454 0 01.5-.155l26.873-6.948 15.89-4.11 20.39-5.274a5.111 5.111 0 011.34-.173 5.303 5.303 0 01.87.072l102.357 16.808a5.378 5.378 0 013.897 2.818 5.363 5.363 0 01.596 2.425l.697 86.038a5.344 5.344 0 01-3.748 5.16z" fill="#3f3d56"/><path d="M407.513 73.076a.776.776 0 01-.226.102l-30.108 8.139-9.372 2.532-26.657 7.203a1.034 1.034 0 01-.233.03 1.458 1.458 0 01-.16-.012L233.269 71.474l-.357-.066a.896.896 0 01.322-1.764l2.162.394L340.882 89.27l22.975-6.209 12.852-3.473 29.642-8.014.47-.125a.898.898 0 011.043.488.698.698 0 01.054.143.896.896 0 01-.405.995z" fill="#3f3d56"/><path d="M341.811 188.5a.894.894 0 01-.894-.886l-.893-97.417a.894.894 0 01.885-.902h.008a.894.894 0 01.894.885l.894 97.418a.894.894 0 01-.886.902z" fill="#3f3d56"/><path d="M377.18 176.649l-9.373 2.532-3.95-96.119L263.06 63.007a2.316 2.316 0 01-.292-.072 3.553 3.553 0 01-1.919-1.352l13.764-3.563 4.045.804 95.643 19.025a3.555 3.555 0 012.407 1.74c.298.518.464 96.44.47 97.06z" fill="#3f3d56"/><path d="M372.98 121.846a11.997 11.997 0 011.335 1.337l56.146-6.557 5.46-12.6 20.094 5.755-7.499 23.246a9.119 9.119 0 01-8.937 6.315l-64.285-1.827a11.965 11.965 0 11-2.313-15.669z" fill="#ffb6b6"/><path d="M429.146 113.718a5.124 5.124 0 01.01-4.271l10.789-23.374a14.245 14.245 0 0127.363 7.932l-3.553 25.581a5.13 5.13 0 01-6.523 4.216l-24.86-7.285a5.124 5.124 0 01-3.226-2.8z" fill="#3f3d56"/><path d="M617.485 487.041H1.19a1.19 1.19 0 010-2.381h616.294a1.19 1.19 0 010 2.381z" fill="#cacaca"/><circle cx="120.113" cy="324.713" r="35.811" fill="#63e4ff"/><path d="M115.227 343.35a3.982 3.982 0 01-3.186-1.593l-9.77-13.027a3.983 3.983 0 116.374-4.78l6.391 8.522 16.417-24.624a3.984 3.984 0 116.629 4.42l-19.54 29.309a3.985 3.985 0 01-3.204 1.772l-.11.002zM272.595 134.5a1.512 1.512 0 01-.331-.037l-31-7a1.5 1.5 0 01.66-2.926l31 7a1.5 1.5 0 01-.33 2.963z" fill="#fff"/><path d="M153.288 416.236a1.513 1.513 0 01-.331.031l-31.776-.535a1.5 1.5 0 01.05-3l31.776.536a1.5 1.5 0 01.281 2.968zm11 17a1.513 1.513 0 01-.331.031l-31.776-.535a1.5 1.5 0 01.05-3l31.776.536a1.5 1.5 0 01.281 2.968z" fill="#e6e6e6"/></svg>