<svg data-name="Layer 1" xmlns="http://www.w3.org/2000/svg" viewBox="0 0 400 300" width="406" height="306" class="illustration styles_illustrationTablet__1DWOa"><path d="M265 148.18l9.83-1.7s2.23 5.49-7.71 7.29z" fill="#24285b"/><path d="M168.88 131.37a16.77 16.77 0 018-22.07c3.86-1.82 8-3 11.69-2.12 6.81 1.57 19.66 22.92 27.49 37a19.24 19.24 0 0020.56 9.54l28.82-5.72 3 7.88-47.33 15.9a17.92 17.92 0 01-13.63-.92 82.38 82.38 0 01-38.6-39.49z" fill="#68e1fd"/><path d="M168.88 131.37a16.77 16.77 0 018-22.07c3.86-1.82 8-3 11.69-2.12 6.81 1.57 19.66 22.92 27.49 37a19.24 19.24 0 0020.56 9.54l28.82-5.72 3 7.88-47.33 15.9a17.92 17.92 0 01-13.63-.92 82.38 82.38 0 01-38.6-39.49z" opacity=".08"/><path fill="#ffd200" d="M211.423 90.918l69.898-21.463 19.94 64.937-69.898 21.464z"/><path opacity=".08" d="M211.423 90.918l69.898-21.463 19.94 64.937-69.898 21.464z"/><path fill="#ffd200" d="M181.224 100.185l69.899-21.464 19.94 64.938-69.899 21.463z"/><ellipse cx="207.11" cy="267.22" rx="123.11" ry="19.15" fill="#e6e6e6" opacity=".45"/><path d="M261.86 220.27s1.26 3.39 4.35 3.62 3.92 3.23 1.16 4.05-9.95-2.67-9.95-2.67l.16-4.45zM188.65 261s-1 3.49 1.38 5.49 1.26 4.93-1.45 3.95-6.46-8-6.46-8l2.75-3.5z" fill="#68e1fd"/><path fill="#f4a28c" d="M149.55 104.97l6.94 9.35-6.58 7.99-8.94-17.2 8.58-.14z"/><path d="M134.8 95.9a6.87 6.87 0 0110.2-5.35c4.77 2.61 11 7.22 7.25 12.06-5.74 7.42-15.57.3-15.57.3a12.51 12.51 0 01-1.88-7.01z" fill="#f4a28c"/><path d="M142.3 100.57s-2.41-1-2.53 1.56 3.57 2.52 4.2 1.06-1.67-2.62-1.67-2.62z" fill="#f4a28c"/><path d="M135 89.13c-3.37 6.29-7 7.57-2 11.45s2.86 9.94 9.93 8.4c4.4-1 2.48-5.72.4-9.18a7.13 7.13 0 01-.13-7.12c.95-1.71 1.59-3.68.6-5s-7.22-1.46-8.8 1.45z" fill="#24285b"/><path d="M138.91 135.82a25.13 25.13 0 0110.71-18c11.45-8 33-23.9 44-14.35 15.09 13.07 21 81.87 21 81.87L173 202.65s-37.38-34.65-34.09-66.83z" fill="#68e1fd"/><path d="M152.94 115.49s1.1 70.87 60.18 56.25l1.48 13.6-41.6 17.31s-22.8-18.65-33-52.09c0 0-5-16.53 4.17-27.56a27.27 27.27 0 018.77-7.51z" opacity=".08"/><path d="M133.05 100.58L151.26 82a.52.52 0 00-.61-.82L145.26 84a6.93 6.93 0 01-6 .32 6.88 6.88 0 00-5-.53c-3.21 1.28-12.65 8.98-1.21 16.79z" fill="#ffd200"/><path d="M144.06 98.16s-3.63-3.25-4.77.06 3.82 5.19 6.09 3.43-1.32-3.49-1.32-3.49z" fill="#f4a28c"/><path d="M173 202.65s10.8 11.33 23.78 6.94S246.64 182 256.7 222.4l7.41-1.28s.37-26-14.68-35.32-34.83-.46-34.83-.46z" fill="#24285b"/><path d="M176.6 204.7s30.17 19.47 6.1 54.07l6.61 2.71s30.4-23.17 11.74-66.2z" fill="#24285b"/><path d="M170.9 125.88a16.76 16.76 0 018-22.07c3.86-1.82 8-3 11.7-2.13 6.8 1.58 19.65 22.92 27.48 37a19.26 19.26 0 0020.57 9.55l28.82-5.7 3 7.88-47.33 15.9a18 18 0 01-13.63-.91 82.47 82.47 0 01-38.61-39.52z" fill="#68e1fd"/><path d="M170.9 125.88a16.76 16.76 0 018-22.07c3.86-1.82 8-3 11.7-2.13 6.8 1.58 19.65 22.92 27.48 37a19.26 19.26 0 0020.57 9.55l28.82-5.7 3 7.88-47.33 15.9a18 18 0 01-13.63-.91 82.47 82.47 0 01-38.61-39.52z" fill="#fff" opacity=".46"/><path d="M267.88 143.66l9.83-1.71s2.23 5.49-7.71 7.29z" fill="#24285b"/><path fill="#fff" opacity=".22" d="M262.562 75.818l9.492-2.914 5.14 16.738-9.492 2.915z"/><path fill="#ffd200" d="M190.03 37.657l59.517-18.275 16.978 55.291-59.517 18.276z"/><path opacity=".08" d="M190.03 37.657l59.517-18.275 16.978 55.291-59.517 18.276z"/><path fill="#ffd200" d="M164.309 45.56l59.517-18.276 16.978 55.292-59.517 18.276z"/><path fill="#fff" opacity=".22" d="M232.598 24.59l8.078-2.48 4.377 14.253-8.078 2.48z"/><path fill="#fff" opacity=".46" d="M228.787 97.497l15.248-4.682 4.283 13.947-15.248 4.682zm-27.826-54.136l15.248-4.682 4.282 13.947-15.247 4.682z"/><path opacity=".05" d="M180.28 97.59l83.34-32.35 2.71 8.84-25.52 8.52-59.59 17.6-.94-2.61z"/><path fill="#e6e6e6" d="M57.267 42.254l46.208 14.765-9.23 28.89-46.21-14.764z"/><path fill="#c9c9c9" d="M57.27 42.26l17.29 25.56 28.91-10.8-46.2-14.76z"/><g opacity=".73" fill="none" stroke="#c9c9c9" stroke-linecap="round" stroke-linejoin="round" stroke-width="2"><path d="M68.33 89.68s-.13.51-.35 1.46"/><path d="M65.76 103.22c-4.24 29.19-6.12 95 64.75 88.69" stroke-dasharray="3.07 12.29"/><path d="M136.62 191.21l1.49-.21"/></g></svg>