<svg data-name="Layer 1" xmlns="http://www.w3.org/2000/svg" xmlns:xlink="http://www.w3.org/1999/xlink" viewBox="0 0 400 300" width="406" height="306" class="illustration styles_illustrationTablet__1DWOa"><defs><linearGradient id="a" x1="132.13" y1="173.07" x2="167.22" y2="138.76" gradientUnits="userSpaceOnUse"><stop offset="0" stop-color="#fff" stop-opacity="0"/><stop offset=".99" stop-color="#552d00"/></linearGradient><linearGradient id="b" x1="196.89" y1="249.7" x2="220.5" y2="212.39" xlink:href="#a"/><linearGradient id="c" x1="86.13" y1="217.49" x2="115.18" y2="200.23" xlink:href="#a"/></defs><path d="M40.49 193l146.56 84.62a12.28 12.28 0 0012.21 0l169.09-96.09a6.85 6.85 0 000-11.88l-150.54-87.1a4.75 4.75 0 00-4.8 0L40.44 184.77a4.75 4.75 0 00.05 8.23z" fill="#decdc6"/><path opacity=".32" fill="url(#a)" d="M221.02 137.02L96.95 210.41 62.6 190.18l88.42-51.88"/><path opacity=".32" fill="url(#b)" d="M325.66 197.16L196.42 271.7l-80.03-45.72 56.06-31.22"/><path fill="#c65517" d="M203.27 225.37l10.78-6.35-2.96-3.17-8.31 5.43"/><path fill="#ea6c0f" d="M196.42 217.18l12.55-7.15 4.54 5.18-10.24 6.03"/><path fill="#ff7c28" d="M203.27 221.24l-6.85-4.06v4.06l6.85 4.13v-4.13z"/><path fill="#c65517" d="M184.11 214.5l10.78-6.35-2.95-3.17-8.31 5.43"/><path fill="#ea6c0f" d="M177.26 206.31l12.55-7.15 4.54 5.18-10.24 6.03"/><path fill="#ff7c28" d="M184.11 210.37l-6.85-4.06v4.06l6.85 4.13v-4.13z"/><path fill="#c65517" d="M164.81 203.55l10.78-6.35-2.96-3.18-8.31 5.43"/><path fill="#ea6c0f" d="M157.96 195.36l12.55-7.16 4.54 5.19-10.24 6.02"/><path fill="#ff7c28" d="M164.81 199.41l-6.85-4.05v4.05l6.85 4.14v-4.14z"/><path fill="#c65517" d="M225.11 238.1l10.78-6.35-2.96-3.18-8.31 5.44"/><path fill="#ea6c0f" d="M218.26 229.91l12.55-7.16 4.54 5.19-10.24 6.03"/><path fill="#ff7c28" d="M225.11 233.97l-6.85-4.06v4.06l6.85 4.13v-4.13z"/><path fill="#c65517" d="M279.63 224.23l-10.78-6.35 2.95-3.17 8.31 5.43"/><path fill="#ea6c0f" d="M286.48 216.04l-12.55-7.15-4.54 5.18 10.24 6.03"/><path fill="#ff7c28" d="M279.63 220.1l6.85-4.06v4.06l-6.85 4.13v-4.13z"/><path fill="#c65517" d="M298.01 213.57l-10.78-6.35 2.95-3.17 8.31 5.43"/><path fill="#ea6c0f" d="M304.86 205.38l-12.55-7.15-4.54 5.18 10.24 6.03"/><path fill="#ff7c28" d="M298.01 209.44l6.85-4.06v4.06l-6.85 4.13v-4.13z"/><path fill="#c65517" d="M318.12 201.44l-10.78-6.35 2.95-3.18 8.31 5.43"/><path fill="#ea6c0f" d="M324.96 193.25l-12.55-7.16-4.53 5.19 10.24 6.03"/><path fill="#ff7c28" d="M318.12 197.31l6.84-4.06v4.06l-6.84 4.13v-4.13z"/><path fill="#c65517" d="M258.06 237.17l-10.78-6.35 2.95-3.17 8.31 5.43"/><path fill="#ea6c0f" d="M264.91 228.98l-12.56-7.15-4.53 5.18 10.24 6.03"/><path fill="#ff7c28" d="M258.06 233.04l6.85-4.06v4.06l-6.85 4.13v-4.13z"/><path d="M160.91 187.59v2.35l81.31 47.23s83.9-49.69 83.85-49.95 0-2.61 0-2.61" fill="#68e1fd"/><path d="M160.91 187.59v2.35l81.31 47.23s83.9-49.69 83.85-49.95 0-2.61 0-2.61" opacity=".25"/><path fill="#68e1fd" d="M242.45 234.22l83.63-49.61-82.49-47.63-82.68 50.61 81.54 46.63z"/><path d="M242.18 194.47v-23.36l20.91-11.68v23.17z" fill="#eca016"/><path d="M242.18 171.11l-20.35-11.68s-.57 23.55 0 23.93 20.35 11.12 20.35 11.12z" fill="#ffb72f"/><path fill="#ffc863" d="M221.83 159.43l20.35-12.44 20.91 12.44-20.91 11.68-20.35-11.68z"/><path fill="#fdedcb" d="M229.58 154.69l21.18 11.62v12.19l6.09-3.07v-12.52l-21.18-11.94-6.09 3.72z"/><path d="M217.62 207.7v-23.36l20.91-11.68v23.17z" fill="#eca016"/><path d="M217.62 184.34l-20.35-11.68s-.57 23.55 0 23.93 20.35 11.12 20.35 11.12z" fill="#ffb72f"/><path fill="#ffc863" d="M197.27 172.66l20.35-12.44 20.91 12.44-20.91 11.68-20.35-11.68z"/><path fill="#fdedcb" d="M205.02 167.92l21.19 11.62v12.19l6.08-3.07v-12.52l-21.17-11.94-6.1 3.72z"/><path d="M266.39 208.07v-23.36L287.3 173v23.17z" fill="#eca016"/><path d="M266.39 184.71L246 173s-.57 23.55 0 23.93 20.35 11.12 20.35 11.12z" fill="#ffb72f"/><path fill="#ffc863" d="M246.04 173.03l20.35-12.43 20.91 12.43-20.91 11.68-20.35-11.68z"/><path fill="#fdedcb" d="M253.79 168.3l21.18 11.62v12.19l6.09-3.07v-12.52l-21.18-11.95-6.09 3.73z"/><path d="M242.33 221.3v-23.36l20.91-11.68v23.17z" fill="#eca016"/><path d="M242.33 197.94L222 186.25s-.57 23.55 0 23.93 20.35 11.12 20.35 11.12z" fill="#ffb72f"/><path fill="#ffc863" d="M221.99 186.25l20.34-12.43 20.92 12.43-20.92 11.69-20.34-11.69z"/><path fill="#fdedcb" d="M229.74 181.52l21.18 11.62v12.19l6.09-3.07v-12.52l-21.18-11.95-6.09 3.73z"/><path d="M242 187.93v-23.36l20.91-11.68v23.17z" fill="#eca016"/><path d="M242 164.57l-20.35-11.68s-.57 23.55 0 23.93S242 187.93 242 187.93z" fill="#ffb72f"/><path fill="#ffc863" d="M221.67 152.89l20.35-12.43 20.91 12.43-20.91 11.68-20.35-11.68z"/><path fill="#fdedcb" d="M229.42 148.16l21.18 11.62v12.19l6.09-3.07v-12.52l-21.17-11.95-6.1 3.73z"/><path d="M185.54 157.16v-39.64L221 97.7V137z" fill="#eca016"/><path d="M185.54 117.52L151 97.7s-1 40 0 40.6 34.52 18.86 34.52 18.86z" fill="#ffb72f"/><path fill="#ffc863" d="M151.02 97.7l34.52-21.09 35.48 21.09-35.48 19.82-34.52-19.82z"/><path fill="#fdedcb" d="M164.16 89.67l35.95 19.72v20.68l10.33-5.21v-21.25l-35.93-20.26-10.35 6.32z"/><path fill="#1b8c7c" d="M111.79 88.05l11.84 7.96-6.43 6.43h-7.01"/><path d="M88.07 227.43l37.06-24.5-13.13-8.75-41.46 21.47c4.08 6.68 10.97 7.35 17.53 11.78z" opacity=".32" fill="url(#c)"/><path d="M103.45 200.09s.64 5.59 3.55 6.68 4.39 3 2.65 4.35-10.15-2.19-10.15-2.19l-3-6.62-.23 4.89-3.17-1.82.41-17.68 8.68 2.35zM119 192s.63 5.55 3.52 6.63 4.36 2.93 2.63 4.32-10.07-2.17-10.07-2.17l-3-6.57-.28 4.79-3.15-1.81.57-16.66 8.45 1.44z" fill="#c44b08"/><path d="M107.27 123.74L104 196.23c-3.39 2.12-12.78.78-12.78.78s-4-58.72 2.81-74.6" fill="#ffa852"/><path d="M105.67 117.91l1.83 70.58s9.32 1.34 12.68-.77l-2.43-72.88" fill="#ffa852"/><path d="M94 122.4c4.35 2.91 11.83 3.82 17.39 2.13a16.23 16.23 0 003.12-2.66c-.23-5.5-.51-11-.48-16.52s.23-12.13-2.26-17.31a23.57 23.57 0 00-4.91-1.86c-2.58-.66-7.93 1.93-10.11 3.26a12.39 12.39 0 00-5.4 8.56 163.39 163.39 0 012.33 19.6c.1 1.58.23 3.19.32 4.8z" fill="#3ab4a7"/><path d="M107.73 84.67s-.08 3.8-1.58 4.38-5.21-1.37-5.25-2.45 2.54-3.38 2.54-3.38" fill="#f49138"/><path d="M100 87.79l.64-3.06 5.9 3.91v3.43s-4.62-.9-6.54-4.28z" fill="#1b8c7c"/><path d="M106.53 88.65l1.84 2.41s1-2.7.3-4.24-1.56-1.76-1.56-1.76.33 2.68-.58 3.59z" fill="#1b8c7c"/><path d="M112.25 75.92s.58 10.53-5.06 10.9-5.12-4.1-5.12-4.1-1.45-9.57 3.67-10.3 6.51 3.5 6.51 3.5z" fill="#ffa852"/><path d="M108.37 79.28l-2.77.27-.87-2.19.58 8.21a16.68 16.68 0 010 2.49s-5.77.27-9.11-2.73-.63-15.52 5.7-16.26 12.15 2 12 9l-1.37.46z" fill="#42210b"/><path d="M128.58 131.31V110.2l18.9-10.55v20.94z" fill="#eca016"/><path d="M128.58 110.2l-18.39-10.56s-.51 21.28 0 21.62 18.39 10 18.39 10z" fill="#ffb72f"/><path fill="#ffc863" d="M110.19 99.64l18.39-11.23 18.9 11.23-18.9 10.56-18.39-10.56z"/><path fill="#fdedcb" d="M117.2 95.37l19.14 10.49v11.02l5.5-2.77v-11.32L122.7 92l-5.5 3.37z"/><path d="M112.27 123.16l9.26 5.7s3.28 1.39 4.61.48c.43-.29-5.57-3.93-5.57-3.93s3.28-1.3 3.28-1.79-1.87-.84-2.32-.78-7.12-3.78-7.12-3.78z" fill="#ffa852"/><path d="M93 108.2l.68 9.4s12.91 6.56 18.59 6.33S93 108.2 93 108.2z" fill="#1b8c7c"/><path d="M114.54 114.44a6.85 6.85 0 01-.59-.67 28.07 28.07 0 01-7.76-6.07c-2.17-2.33-4.86-5.32-5.77-8.4a.67.67 0 010-.12 14.68 14.68 0 01-1.54-8.78 1.77 1.77 0 00-1.07-.55c-2.54.1-5.21 3.19-6.3 5.37s-1 5-.38 7.58a31 31 0 001.87 5.4 20.18 20.18 0 003.78 5.68 101.67 101.67 0 008.75 7.55 73.85 73.85 0 0010.37 6 92.48 92.48 0 001.82-10.41 36.14 36.14 0 01-3.18-2.58z" fill="#3ab4a7"/><path d="M100 100.11s9.07 12.94 14.55 14.33z" fill="#1b8c7c"/><path d="M107.05 130.19l-3.61 66.53c0 .64 1 .64 1 0l3.61-66.53c.04-.64-.96-.64-1 0z" fill="#b26a29"/><path d="M316.1 77.34l-1 74.41a3.69 3.69 0 01-5.51 3.16l-48.29-27.48a3.69 3.69 0 01-1.86-3.21V46a2.08 2.08 0 013.12-1.8l51.7 29.92a3.69 3.69 0 011.84 3.22z" fill="#68e1fd"/><path d="M274 50.77c.09.05 0 9.56 0 9.56l27.52 15.9V66.7z" fill="#723d49"/><path fill="#fff" d="M265.52 55.89l44.38 25.66v61.84l-44.38-24.38V55.89zm5.81 18.52l28.97 15.47"/><path d="M270.57 75.71l29 15.47c1.7.91 3.22-1.68 1.51-2.59l-29-15.47c-1.7-.91-3.22 1.68-1.51 2.59z" fill="#ccc"/><path fill="#fff" d="M271.33 86.2l28.97 15.47"/><path d="M270.57 87.5l29 15.47c1.7.91 3.22-1.68 1.51-2.59l-29-15.47c-1.7-.91-3.22 1.68-1.51 2.59z" fill="#ccc"/><path fill="#fff" d="M271.33 98l28.97 15.47"/><path d="M270.57 99.29l29 15.47c1.7.91 3.22-1.68 1.51-2.59l-29-15.47c-1.7-.91-3.22 1.68-1.51 2.59z" fill="#ccc"/><path fill="#fff" d="M271.33 109.79l28.97 15.47"/><path d="M270.57 111.08l29 15.47c1.7.91 3.22-1.68 1.51-2.59l-29-15.47c-1.7-.91-3.22 1.68-1.51 2.59z" fill="#ccc"/></svg>