<svg data-name="Layer 1" xmlns="http://www.w3.org/2000/svg" xmlns:xlink="http://www.w3.org/1999/xlink" width="406" height="306" viewBox="0 0 548.3 592.13" class="illustration styles_illustrationTablet__1DWOa"><defs><linearGradient id="b" x1="270.13" y1="159.41" x2="831.36" y2="-407.54" gradientTransform="matrix(1 0 0 -1 -118.66 420.26)" gradientUnits="userSpaceOnUse"><stop offset="0" stop-opacity="0"/><stop offset=".91" stop-opacity=".8"/><stop offset="1"/></linearGradient><linearGradient id="a" x1="588.8" y1="289.07" x2="627.69" y2="289.07" gradientTransform="matrix(1 0 0 -1 -118.66 420.26)" gradientUnits="userSpaceOnUse"><stop offset="0" stop-color="#ecc4d7"/><stop offset=".42" stop-color="#efd4d1"/><stop offset="1" stop-color="#f2eac9"/></linearGradient><linearGradient id="g" x1="-1417.73" y1="-1640.46" x2="-1426.56" y2="-1649.36" gradientTransform="matrix(.61 .79 .79 -.61 2610.8 414.44)" xlink:href="#a"/><linearGradient id="h" x1="239.16" y1="482.64" x2="302.23" y2="500.28" gradientTransform="translate(-60.01 -175.38)" xlink:href="#b"/><linearGradient id="i" x1="258.26" y1="529.76" x2="299.56" y2="599.21" gradientTransform="translate(-60.01 -175.38)" xlink:href="#b"/><linearGradient id="f" x1="261.68" y1="133.04" x2="274.56" y2="133.04" gradientTransform="matrix(1 0 0 -1 -60.01 422.65)" gradientUnits="userSpaceOnUse"><stop offset="0" stop-color="#183866"/><stop offset="1" stop-color="#1a7fc1"/></linearGradient><linearGradient id="j" x1="275.01" y1="506.95" x2="227.14" y2="532.66" gradientTransform="translate(-60.01 -175.38)" xlink:href="#b"/><linearGradient id="c" x1="283.94" y1="111.83" x2="265.18" y2="107.56" gradientTransform="matrix(1 0 0 -1 -60.01 422.65)" gradientUnits="userSpaceOnUse"><stop offset="0" stop-color="#68e1fd"/><stop offset="1" stop-color="#69b9eb"/></linearGradient><linearGradient id="k" x1="277.02" y1="62.43" x2="258.26" y2="58.16" xlink:href="#c"/><linearGradient id="d" x1="253.68" y1="257.74" x2="331.41" y2="172.24" gradientTransform="matrix(1 0 0 -1 -60.01 422.65)" gradientUnits="userSpaceOnUse"><stop offset="0" stop-color="#fff" stop-opacity="0"/><stop offset=".09" stop-color="#fff" stop-opacity=".05"/><stop offset=".24" stop-color="#fff" stop-opacity=".17"/><stop offset=".45" stop-color="#fff" stop-opacity=".37"/><stop offset=".69" stop-color="#fff" stop-opacity=".65"/><stop offset=".98" stop-color="#fff"/></linearGradient><linearGradient id="l" x1="233.34" y1="214.11" x2="326.62" y2="104.18" xlink:href="#d"/><linearGradient id="m" x1="279.18" y1="623.2" x2="271.46" y2="-293.03" gradientTransform="matrix(1 0 0 -1 -60.01 422.65)" xlink:href="#b"/><linearGradient id="n" x1="271.28" y1="623.26" x2="263.56" y2="-292.96" gradientTransform="matrix(1 0 0 -1 -60.01 422.65)" xlink:href="#b"/><linearGradient id="o" x1="277.53" y1="334.8" x2="273.02" y2="505.23" gradientTransform="translate(-60.01 -175.38)" xlink:href="#b"/><linearGradient id="p" x1="286.62" y1="173.34" x2="264.27" y2="168.25" xlink:href="#c"/><linearGradient id="q" x1="148.1" y1="186.08" x2="222.09" y2="99.11" xlink:href="#d"/><linearGradient id="r" x1="212.73" y1="180.78" x2="253.38" y2="133" xlink:href="#d"/><linearGradient id="s" x1="144.42" y1="92.32" x2="227.16" y2="6.82" xlink:href="#d"/><linearGradient id="t" x1="192.36" y1="623.93" x2="184.65" y2="-292.3" gradientTransform="matrix(1 0 0 -1 -60.01 422.65)" xlink:href="#b"/><linearGradient id="u" x1="164.83" y1="624.16" x2="157.11" y2="-292.06" gradientTransform="matrix(1 0 0 -1 -60.01 422.65)" xlink:href="#b"/><linearGradient id="v" x1="190.81" y1="406.56" x2="185.18" y2="605.34" gradientTransform="translate(-60.01 -175.38)" xlink:href="#b"/><linearGradient id="w" x1="161.48" y1="478.34" x2="160.35" y2="646.15" gradientTransform="translate(-60.01 -175.38)" xlink:href="#b"/><linearGradient id="x" x1="133.34" y1="322.49" x2="255.49" y2="236.98" xlink:href="#d"/><linearGradient id="y" x1="118.18" y1="264.01" x2="245.87" y2="159.63" xlink:href="#d"/><linearGradient id="z" x1="186.56" y1="623.98" x2="178.84" y2="-292.25" gradientTransform="matrix(1 0 0 -1 -60.01 422.65)" xlink:href="#b"/><linearGradient id="A" x1="177.62" y1="624.05" x2="169.91" y2="-292.17" gradientTransform="matrix(1 0 0 -1 -60.01 422.65)" xlink:href="#b"/><linearGradient id="B" x1="184.23" y1="280.68" x2="186.49" y2="476.65" gradientTransform="translate(-60.01 -175.38)" xlink:href="#b"/><linearGradient id="C" x1="175.59" y1="338.99" x2="173.34" y2="571.37" gradientTransform="translate(-60.01 -175.38)" xlink:href="#b"/><linearGradient id="e" x1="196.47" y1="376.29" x2="281.22" y2="372.35" gradientTransform="matrix(1 0 0 -1 0 600)" gradientUnits="userSpaceOnUse"><stop offset="0" stop-opacity="0"/><stop offset=".84" stop-opacity=".66"/><stop offset=".91" stop-opacity=".8"/><stop offset="1"/></linearGradient><linearGradient id="D" x1="264.72" y1="414.22" x2="205.78" y2="507.7" gradientTransform="translate(-60.01 -175.38)" xlink:href="#e"/><linearGradient id="E" x1="377.21" y1="190.58" x2="471.59" y2="46.23" xlink:href="#d"/><linearGradient id="F" x1="287.7" y1="30.54" x2="444.2" y2="30.54" xlink:href="#d"/><linearGradient id="G" x1="411.75" y1="622.08" x2="404.04" y2="-294.14" gradientTransform="matrix(1 0 0 -1 -60.01 422.65)" xlink:href="#b"/><linearGradient id="H" x1="367.27" y1="622.45" x2="359.55" y2="-293.77" gradientTransform="matrix(1 0 0 -1 -60.01 422.65)" xlink:href="#b"/><linearGradient id="I" x1="408.01" y1="364.54" x2="413.64" y2="833.06" gradientTransform="translate(-60.01 -175.38)" xlink:href="#b"/><linearGradient id="J" x1="362.5" y1="447.13" x2="368.13" y2="915.65" gradientTransform="translate(-60.01 -175.38)" xlink:href="#b"/><linearGradient id="K" x1="379.4" y1="74.52" x2="400.94" y2="74.52" gradientTransform="matrix(1 0 0 -1 -118.66 420.26)" xlink:href="#d"/><linearGradient id="L" x1="348.11" y1="191.74" x2="399.29" y2="191.74" gradientTransform="matrix(1 0 0 -1 -118.66 420.26)" xlink:href="#d"/><linearGradient id="M" x1="379.76" y1="-43.68" x2="654.16" y2="-43.68" gradientTransform="matrix(1 0 0 -1 -118.66 420.26)" xlink:href="#d"/><linearGradient id="N" x1="382.46" y1="-38.68" x2="654.16" y2="-38.68" gradientTransform="matrix(1 0 0 -1 -118.66 420.26)" xlink:href="#d"/><linearGradient id="O" x1="298.3" y1="-60.71" x2="320" y2="-60.71" xlink:href="#d"/><linearGradient id="P" x1="304.14" y1="735.91" x2="304.99" y2="653.98" gradientTransform="rotate(80.78 407.04 584.146)" xlink:href="#b"/><linearGradient id="Q" x1="486.92" y1="737.82" x2="487.76" y2="655.89" gradientTransform="translate(-60.01 -175.38)" xlink:href="#b"/><linearGradient id="R" x1="294.89" y1="-55.76" x2="316.5" y2="-63.26" xlink:href="#d"/><linearGradient id="S" x1="472.5" y1="-60.71" x2="494.2" y2="-60.71" xlink:href="#d"/><linearGradient id="T" x1="365.35" y1="174.13" x2="305.75" y2="114.05" xlink:href="#f"/><linearGradient id="U" x1="327.72" y1="64.28" x2="262.38" y2="-1.6" xlink:href="#f"/><linearGradient id="V" x1="547.84" y1="146.97" x2="538.12" y2="137.18" gradientTransform="matrix(1 0 0 -1 -60.01 422.65)" xlink:href="#a"/><linearGradient id="W" x1="509.6" y1="488.74" x2="503.13" y2="426.79" gradientTransform="translate(0 -173.97)" xlink:href="#b"/><linearGradient id="X" x1="567.72" y1="482.66" x2="561.24" y2="420.72" gradientTransform="translate(0 -173.97)" xlink:href="#b"/><linearGradient id="Y" x1="458.29" y1="294.31" x2="296.11" y2="315.15" gradientTransform="translate(0 -173.97)" xlink:href="#b"/><linearGradient id="Z" x1="408.69" y1="308.69" x2="335.11" y2="322.58" gradientTransform="translate(0 -173.97)" xlink:href="#b"/><linearGradient id="aa" x1="925.34" y1="450.8" x2="981.82" y2="450.8" gradientTransform="scale(1 -1) rotate(7 4814.889 -3860.414)" xlink:href="#a"/><linearGradient id="ab" x1="489.74" y1="316.84" x2="489.04" y2="346.97" gradientTransform="translate(0 -173.97)" xlink:href="#b"/><linearGradient id="ac" x1="477.06" y1="308.22" x2="442.99" y2="304.14" gradientTransform="translate(-60.01 -175.38)" xlink:href="#b"/><linearGradient id="ad" x1="499.96" y1="297.1" x2="506.39" y2="286.17" gradientTransform="matrix(1 0 0 -1 -60.01 422.65)" gradientUnits="userSpaceOnUse"><stop offset=".09" stop-color="#68e1fd"/><stop offset=".2" stop-color="#65d5f1"/><stop offset=".4" stop-color="#5db7d2"/><stop offset=".66" stop-color="#51859f"/><stop offset=".97" stop-color="#404059"/><stop offset=".99" stop-color="#3f3d56"/></linearGradient><linearGradient id="ae" x1="626.89" y1="286.84" x2="595.24" y2="245.34" xlink:href="#a"/></defs><path d="M207.99 584.16c-117.3-17-188.5-100.1-204.5-199-9.9-60.8 1.1-127.5 34.9-188.6 88.9-160.6 313.6-164.3 313.6-164.3 129.3-6.4 103.8 211.9 96.3 259-4 24.9 21.2 58.2 47.3 93.9 23.1 31.6 47.1 65.2 52.1 96.5 10.8 66.5-150.4 129.96-339.7 102.5z" fill="#68e1fd" opacity=".18" style="isolation:isolate"/><path d="M207.99 585.56c-117.3-17-188.5-100.1-204.5-199h492.2c23.2 31.6 47.1 65.2 52.1 96.5 10.7 66.5-150.5 130-339.8 102.5z" fill="#68e1fd"/><path d="M268 586.94c-117.3-17-188.5-100.1-204.5-199h492.2c23.2 31.6 47.1 65.2 52.1 96.5 10.7 66.5-150.5 130-339.8 102.5z" transform="translate(-60.01 -1.38)" fill="url(#b)"/><path d="M209.39 500.46c-5.9-.1-13-.9-15.7-6.2-1.3-2.6-1.2-5.7-1.6-8.7-4-26.3-50-25.1-57.6-50.6-.6-2.2-.9-4.9.7-6.6 1.4-1.5 3.6-1.8 5.6-1.9l66.9-4.7c2.7-9.9-7.9-18.3-17.6-21.4-43.7-14-93.3 14.8-136.3-1.5-2.3-.9-4.7-2-5.8-4.2-3.1-6.3 6.8-10.7 13.9-10.8l169.2-2.7c3.6-.1 7.2-.1 10.6 1 5.2 1.7 9.2 5.9 13 9.9 16 17.1 32.6 34.5 53.6 45 38.5 19.2 84.5 12.1 126.8 20.2 12.2 2.4 27.2 10.8 24.2 22.8-9.6 37.8-80.9 23.6-106.5 23.1z" fill="#1d2741" opacity=".18" style="isolation:isolate"/><path d="M399.19 82.16l.1 32.9 12.9 33.8 10.5-5a5.79 5.79 0 017.5 2.3l2.8 4.9a7.52 7.52 0 01-2.7 10.3l-.3.2c-7.6 4-23 13.6-25.9 13.6-4.4 0-17.2-19.8-17.2-19.8z" fill="#68e1fd"/><path d="M426.79 143.56s-4.7 3.7-2.5 7.7 9.7 4.2 9.7 4.2 6.1-10.9-7.2-11.9z" fill="#68e1fd"/><path d="M490.1 122.54a41.88 41.88 0 016.9 1.3l10.4 2.5a2.67 2.67 0 011.4.7c.6.8-.3 2-1.2 2.3-3 1.2-6.8-1-9.5.8-1.5 1-2 3-3.2 4.3-1.5 1.8-4 2.6-6.4 2.8a55.08 55.08 0 00-7.1.7c-3.5.8-7.2 3.1-10.4 1.3a2.7 2.7 0 01-.8-.7c-.4-.7.1-1.6.5-2.4a12.3 12.3 0 001.4-6.8c-.1-3.3-.2-3 3.1-4.2 4.8-1.6 9.8-3 14.9-2.6z" transform="translate(-60.01 -1.38)" fill="url(#a)"/><path fill="url(#g)" d="M434.59 291.86l-.3 6.9 12.1-.1.8-9.5-12.6 2.7z"/><path d="M434.29 298.76l12.1-.1 3.7 4.8s16.1 5.8 19.1 13.7 2.4 12 2.4 12l-42.4-13.9z" fill="#68e1fd"/><path d="M345.99 183.26s85.1.6 92.1 5.5c19.4 13.5 13.4 100.9 13.4 100.9l-17.3 5-14-74.2z" fill="#25233a"/><path fill="#68e1fd" d="M171.79 284.56h71.5v49.6h-71.5z"/><path fill="url(#h)" d="M176.39 286.06h24.8v47.8h-24.8z"/><path fill="#68e1fd" d="M166.89 334.16h71.5v55.2h-71.5z"/><path fill="url(#i)" d="M166.89 334.16h71.5v55.2h-71.5z"/><path fill="url(#f)" d="M201.69 284.56h12.9v10.1h-12.9z"/><path fill="url(#j)" d="M194.69 333.96h12.9v10.1h-12.9z"/><path fill="url(#c)" d="M208.09 294.66h1v39.3h-1z"/><path fill="url(#k)" d="M201.19 344.06h1v39.3h-1z"/><path fill="#68e1fd" d="M172.79 159.26h85.2v59.1h-85.2z"/><path fill="url(#d)" d="M172.79 159.26h85.2v59.1h-85.2z"/><path fill="#68e1fd" d="M166.89 218.26h85.2v65.8h-85.2z"/><path fill="url(#l)" d="M166.89 218.26h85.2v65.8h-85.2z"/><path fill="url(#m)" d="M208.39 159.26h15.4v12h-15.4z"/><path fill="url(#n)" d="M199.99 218.06h15.4v12h-15.4z"/><path fill="url(#o)" d="M215.99 171.26h1.2v46.8h-1.2z"/><path fill="url(#p)" d="M207.79 230.06h1.2v46.8h-1.2z"/><path fill="#68e1fd" d="M79.29 244.06h97.2v67.4h-97.2z"/><path fill="url(#q)" d="M176.39 284.06v27.3h-97.1v-67.3h87.6v40h9.5z"/><path fill="url(#r)" d="M166.89 244.06h9.5v40.1h-9.5z"/><path fill="#68e1fd" d="M53.79 311.36h97.2v75.1h-97.2z"/><path fill="url(#s)" d="M53.79 311.36h97.2v75.1h-97.2z"/><path fill="url(#t)" d="M119.79 244.06h17.5v13.7h-17.5z"/><path fill="url(#u)" d="M91.69 311.16h17.5v13.7h-17.5z"/><path fill="url(#v)" d="M128.59 257.76h1.4v53.4h-1.4z"/><path fill="url(#w)" d="M100.49 324.86h1.3v53.4h-1.3z"/><path fill="#68e1fd" d="M74.59 101.36h97.2v67.4h-97.2z"/><path fill="url(#x)" d="M74.59 101.36h97.2v67.4h-97.2z"/><path fill="#68e1fd" d="M67.89 168.76h97.2v75.1h-97.2z"/><path fill="url(#y)" d="M67.89 168.76h97.2v75.1h-97.2z"/><path fill="url(#z)" d="M115.19 101.36h17.5v13.7h-17.5z"/><path fill="url(#A)" d="M105.69 168.46h17.5v13.7h-17.5z"/><path fill="url(#B)" d="M123.99 115.06h1.3v53.4h-1.3z"/><path fill="url(#C)" d="M114.49 182.16h1.3v53.4h-1.3z"/><path d="M225.1 204.94v40.2s-14.6-18.7-14-28.8 14-11.4 14-11.4z" transform="translate(-60.01 -1.38)" opacity=".46" fill="url(#e)" style="isolation:isolate"/><path fill="url(#D)" d="M227.69 258.76l-.7 25.3h-60.1v-65.8h5.9v-7.9l8.9 7.9 26.1 22.9 1.1 1.1 18.8 16.5z"/><path fill="#68e1fd" d="M268.59 223.16h156.5v108.5h-156.5z"/><path fill="url(#E)" d="M268.59 223.16h156.5v108.5h-156.5z"/><path fill="#68e1fd" d="M227.69 331.66h156.5v120.9h-156.5z"/><path fill="url(#F)" d="M227.69 331.66h156.5v120.9h-156.5z"/><path fill="url(#G)" d="M333.99 223.16h28.2v22.1h-28.2z"/><path fill="url(#H)" d="M288.59 331.16h28.2v22.1h-28.2z"/><path fill="url(#I)" d="M348.09 245.16h2.2v86h-2.2z"/><path fill="url(#J)" d="M302.89 353.26h2.2v86h-2.2z"/><path d="M222.29 452.56h-21.5v-205.7a10.73 10.73 0 0110.8-10.7 10.86 10.86 0 0110.8 10.7v205.7z" fill="#68e1fd"/><path d="M216.19 254.36a11.29 11.29 0 01-15.8-2l-28.6-36.6a11.29 11.29 0 012-15.8 11.27 11.27 0 0115.8 1.9l28.6 36.6a11.24 11.24 0 01-2 15.9zm259.3 208.2a10 10 0 01-10 10h-244.3a20.08 20.08 0 01-20.1-20h264.3a10 10 0 0110.1 10z" fill="#68e1fd"/><path d="M475.49 462.56h-254.3a20.07 20.07 0 01-17.4-10h261.6a10.05 10.05 0 0110.1 10z" fill="#68e1fd"/><path d="M282.3 453.94h-21.5v-205.7a10.73 10.73 0 0110.8-10.7 10.86 10.86 0 0110.8 10.7v205.7z" transform="translate(-60.01 -1.38)" fill="url(#K)"/><path d="M276.2 255.74a11.29 11.29 0 01-15.8-2l-28.6-36.6a11.29 11.29 0 012-15.8 11.27 11.27 0 0115.8 1.9l28.6 36.6a11.24 11.24 0 01-2 15.9z" transform="translate(-60.01 -1.38)" fill="url(#L)"/><path d="M535.5 463.94a10 10 0 01-10 10H281.2a20.08 20.08 0 01-20.1-20h264.3a10 10 0 0110.1 10z" transform="translate(-60.01 -1.38)" fill="url(#M)"/><path d="M535.5 463.94H281.2a20.07 20.07 0 01-17.4-10h261.6a10.05 10.05 0 0110.1 10z" transform="translate(-60.01 -1.38)" fill="url(#N)"/><circle cx="304.8" cy="497.16" r="16.6" transform="rotate(-45 273.129 568.906)" fill="#68e1fd"/><circle cx="244.89" cy="496.26" r="5" fill="#1d2741" opacity=".57" style="isolation:isolate"/><path fill="url(#O)" d="M249.09 494.16h-10.8v-21.6h21.7l-10.9 21.6z"/><circle cx="427.59" cy="495.76" r="16.6" fill="#68e1fd"/><circle cx="304.8" cy="497.14" r="16.6" transform="rotate(-80.78 274.004 531.721)" fill="url(#P)"/><circle cx="427.59" cy="495.76" r="16.6" fill="url(#Q)"/><path d="M422.49 496.26a5 5 0 105-5 5 5 0 00-5 5z" fill="#1d2741" opacity=".57" style="isolation:isolate"/><path fill="#68e1fd" d="M423.29 494.16h10.9v-21.6h-21.7l10.8 21.6zm-174.2 0h-10.8v-21.6h21.7l-10.9 21.6z"/><path fill="url(#R)" d="M249.09 494.16h-10.8v-21.6h21.7l-10.9 21.6z"/><path fill="url(#S)" d="M423.29 494.16h10.9v-21.6h-21.7l10.8 21.6z"/><path opacity=".2" fill="url(#T)" style="isolation:isolate" d="M268.59 225.86h13.9v105.4h-13.9z"/><path opacity=".2" fill="url(#U)" style="isolation:isolate" d="M228.09 332.86h13.9v116.9h-13.9z"/><path d="M329.69 182.16s-5.3 31.46 17.2 38.46 78.2 2.5 78.2 2.5l51.2 60.6 12.7-17.1-46.2-63.4a51 51 0 00-33.5-15.9z" fill="#3f3d56"/><path fill="url(#V)" d="M476.39 283.76l5.3 4.4 7.3-9.6-4.3-6-8.3 11.2z"/><path d="M481.69 288.16l7.3-9.6h6s14.4-9.2 22.6-6.7 11 5.5 11 5.5l-37 25z" fill="#68e1fd"/><path d="M494.3 300.14l12.1-.1 3.7 4.8s16.1 5.8 19.1 13.7 2.4 12 2.4 12l-42.4-13.9z" transform="translate(-60.01 -1.38)" fill="url(#W)"/><path d="M541.7 289.54l7.3-9.6h6s14.4-9.2 22.6-6.7 11 5.5 11 5.5l-37 25z" transform="translate(-60.01 -1.38)" fill="url(#X)"/><path d="M385.89 184.06h-56.4l-.6-.3c-1.8-1-6.4-4.8-5.9-15 .4-7.4 7-34.5 12.4-55.7 3.8-15.1 7.1-27.3 7.1-27.3s7-18.4 18.7-23.2c4.4-1.8 10-4.8 16.1-3.7 10.1 2 20.5 11.1 22 23.4 1.2 10.3-13.4 101.8-13.4 101.8z" fill="#68e1fd"/><path d="M445.9 185.44h-56.4l-.6-.3c-1.8-1-6.4-4.8-5.9-15 .4-7.4 7-34.5 12.4-55.7 3.8-15.1 7.1-27.3 7.1-27.3s7-18.4 18.7-23.2c4.4-1.8 10-4.8 16.1-3.7 10.1 2 20.5 11.1 22 23.4 1.2 10.3-13.4 101.8-13.4 101.8z" transform="translate(-60.01 -1.38)" fill="url(#Y)"/><path d="M409.2 140s-12.8 33.8-3.2 44.6l-17.1.5c-1.8-1-6.4-4.8-5.9-15 .4-7.4 7-34.5 12.4-55.7L418 83.54z" transform="translate(-60.01 -1.38)" fill="url(#Z)"/><path d="M437.2 60.14l6-16.5s7-26.5 23.1-27.9 29.6 10.3 22.8 28.9-10.2 21.5-16.8 22.7-12.8-1.9-12.8-1.9l-5.8 8.8c.1 0-1.8 5.1-16.5-14.1z" transform="translate(-60.01 -1.38)" fill="url(#aa)"/><path d="M348.79 77.86s-27.4 39.6-25.9 49.9c1.8 12.1 53.6 14 74.8 14.6a12.17 12.17 0 0012.2-8.8v-.1a12.34 12.34 0 00-8.3-15.3 11.63 11.63 0 00-1.8-.4l-35.5-4.8 16.7-31.8c4.3-13.5-11.7-24.5-22.7-15.6a40.64 40.64 0 00-9.5 12.3z" fill="#68e1fd"/><path fill="#68e1fd" d="M412.99 123.96l-4.4-.5-3 16.4h4.9l2.5-15.9z"/><path d="M486.8 144.94s-4.7 3.7-2.5 7.7 9.7 4.2 9.7 4.2 6.1-10.9-7.2-11.9z" transform="translate(-60.01 -1.38)" fill="url(#ab)"/><path fill="url(#ac)" d="M412.99 123.96l-4.4-.5-3 16.4h4.9l2.5-15.9z"/><path d="M397.89 38.06c-1.4-.6-.2-3-1.1-4.2s-2.5-.5-3.5.4a7.53 7.53 0 00-2.1 7.4 5.69 5.69 0 01.4 2.6c-.5 1.8-2.9 2-4.7 1.6s-3.8-1.2-5.3-.2c-1.3-2.2-.4-5 .6-7.3a76.66 76.66 0 016.4-12 6.6 6.6 0 001.2-2.7c.2-1.5-.7-2.8-1.2-4.1-2.6-6.3 1-14 7-17.3s13.5-2.7 19.7 0c2.3 1 4.5 2.3 6.9 2.8 3.6.7 7.3-.3 11-.3a18.11 18.11 0 0114.4 8 18.19 18.19 0 011.5 16.5c-1.3 3.1-4.5 6.2-7.6 5.1-1.3-.4-2.3-1.5-3.5-2.2s-3-.8-3.8.3a5.55 5.55 0 01-.6.8c-1.1.8-2-1.1-2.6-2.2-1.4-2.7-5.2-2.6-8.2-2.5a42.57 42.57 0 01-8.7-.7c-2.1-.4-4.9-1.8-7-1.2-2.6.4-8.9 11.5-9.2 11.4z" fill="#3f3d56"/><path fill="url(#ad)" d="M472.99 111.06l2.6 3.1-59.2 42.7-2.3-3.3 58.9-42.5z"/><path d="M486.8 150.84s1 3.3 6.2 1.6 14.5-7.2 15.3-8.6 8.8-9.7 8.3-14.4z" transform="translate(-60.01 -1.38)" fill="url(#ae)"/></svg>