<svg xmlns="http://www.w3.org/2000/svg" viewBox="0 0 400 300" width="406" height="306" class="illustration styles_illustrationTablet__1DWOa"><g data-name="#368_construction_worker_outline"><path d="M253.32 201.39v39.83H146.68v-39.83a34 34 0 0134-34h38.62a34 34 0 0134 34z" fill="#68e1fd"/><path d="M253.32 242.22H146.68a1 1 0 01-1-1v-39.83a35 35 0 0135-35h38.62a35 35 0 0135 35v39.83a1 1 0 01-.98 1zm-105.64-2h104.64v-38.83a33 33 0 00-33-33h-38.63a32.6 32.6 0 00-15.22 3.71 33 33 0 00-17.79 29.31z" fill="#093f68"/><path fill="#ffc9b0" d="M192.11 151.59h15.78v15.78h-15.78z"/><path d="M207.89 168.37h-15.78a1 1 0 01-1-1v-15.78a1 1 0 011-1h15.78a1 1 0 011 1v15.78a1 1 0 01-1 1zm-14.78-2h13.78v-13.78h-13.78z" fill="#093f68"/><ellipse cx="167.48" cy="121.9" rx="11.16" ry="15.3" fill="#ffc9b0"/><path d="M167.48 138.2c-6.7 0-12.15-7.31-12.15-16.3s5.45-16.31 12.15-16.31 12.16 7.32 12.16 16.31-5.45 16.3-12.16 16.3zm0-30.61c-5.6 0-10.15 6.42-10.15 14.31s4.55 14.3 10.15 14.3 10.16-6.41 10.16-14.3-4.56-14.31-10.16-14.31z" fill="#093f68"/><ellipse cx="232.52" cy="121.9" rx="11.16" ry="15.3" fill="#ffc9b0"/><path d="M232.52 138.2c-6.7 0-12.16-7.31-12.16-16.3s5.46-16.31 12.16-16.31 12.16 7.32 12.16 16.31-5.46 16.3-12.16 16.3zm0-30.61c-5.6 0-10.16 6.42-10.16 14.31s4.56 14.3 10.16 14.3 10.16-6.41 10.16-14.3-4.56-14.31-10.16-14.31z" fill="#093f68"/><path d="M221.91 80.38a12.71 12.71 0 0112.72 12.72v34.39a33.1 33.1 0 01-33.1 33.11h-3a33.11 33.11 0 01-33.12-33.11V93.1a12.72 12.72 0 0112.72-12.72z" fill="#ffc9b0"/><path d="M201.53 161.6h-3a34.16 34.16 0 01-34.12-34.11V93.1a13.74 13.74 0 0113.72-13.72h43.82a13.73 13.73 0 0113.68 13.72v34.39a34.14 34.14 0 01-34.1 34.11zm-23.44-80.22a11.74 11.74 0 00-11.72 11.72v34.39a32.15 32.15 0 0032.12 32.11h3a32.14 32.14 0 0032.1-32.11V93.1a11.74 11.74 0 00-11.72-11.72z" fill="#093f68"/><path d="M224.5 137.42c-3.6-5.32-13.21-9.13-24.5-9.13s-20.9 3.81-24.5 9.13a33 33 0 01-10.13-23.83v13.9a33.11 33.11 0 0033.12 33.11h3a33.1 33.1 0 0033.1-33.11v-13.9a33 33 0 01-10.09 23.83zM200 151c-8.72 0-15.88-3.51-16.74-8a4.6 4.6 0 01-.09-.91c0-4.93 7.53-8.92 16.83-8.92s16.83 4 16.83 8.92a4.88 4.88 0 01-.09.93c-.88 4.48-8.03 7.98-16.74 7.98z" fill="#725858"/><path d="M201.53 161.6h-3a34.16 34.16 0 01-34.12-34.11v-13.9a1 1 0 012 0 31.83 31.83 0 009 22.31c4.32-5.19 14-8.61 24.61-8.61s20.29 3.42 24.61 8.61a31.83 31.83 0 009-22.31 1 1 0 012 0v13.9a34.14 34.14 0 01-34.1 34.11zm-35.16-36.43v2.32a32.16 32.16 0 0032.12 32.11h3a32.14 32.14 0 0032.1-32.11v-2.32a34 34 0 01-8.44 13 1 1 0 01-.79.27 1 1 0 01-.73-.43c-3.52-5.2-13-8.69-23.67-8.69s-20.15 3.49-23.67 8.69a1 1 0 01-.73.43 1 1 0 01-.79-.27 33.88 33.88 0 01-8.4-13zM200 152c-9.14 0-16.76-3.79-17.72-8.81a5.86 5.86 0 01-.11-1.1c0-5.56 7.83-9.92 17.83-9.92s17.83 4.36 17.83 9.92a6.16 6.16 0 01-.11 1.12c-.98 5.01-8.6 8.79-17.72 8.79zm0-17.83c-8.58 0-15.83 3.62-15.83 7.92a3.42 3.42 0 00.07.71c.77 4 7.7 7.2 15.76 7.2s15-3.15 15.76-7.17a3.78 3.78 0 00.07-.74c0-4.3-7.25-7.92-15.83-7.92z" fill="#093f68"/><path d="M200.37 145.81a21.84 21.84 0 01-10.89-2.88 1 1 0 01-.3-1.38 1 1 0 011.38-.31 19.93 19.93 0 0019.63 0 1 1 0 111 1.75 22.09 22.09 0 01-10.82 2.82z" fill="#093f68"/><path d="M200.35 48.45a39.94 39.94 0 0139.94 39.94v2.12H160.4v-2.12a39.94 39.94 0 0139.95-39.94z" fill="#68e1fd"/><path d="M240.29 91.51H160.4a1 1 0 01-1-1v-2.12a40.95 40.95 0 0181.89 0v2.12a1 1 0 01-1 1zm-78.89-2h77.89v-1.12a38.95 38.95 0 00-77.89 0z" fill="#093f68"/><rect x="151.73" y="90.51" width="97.23" height="15.33" rx="7.67" fill="#68e1fd"/><path d="M241.3 106.84h-81.9a8.67 8.67 0 110-17.33h81.9a8.67 8.67 0 010 17.33zm-81.9-15.33a6.67 6.67 0 100 13.33h81.9a6.67 6.67 0 000-13.33z" fill="#093f68"/><path d="M195.17 45.33h10.35a6.25 6.25 0 016.24 6.7l-2.82 38.48h-17.19L188.94 52a6.24 6.24 0 016.23-6.67z" fill="#68e1fd"/><path d="M208.94 91.51h-17.19a1 1 0 01-1-.92l-2.82-38.48a7.24 7.24 0 017.23-7.78h10.35a7.24 7.24 0 017.23 7.78l-2.82 38.48a1 1 0 01-.98.92zm-16.26-2H208L210.76 52a5.24 5.24 0 00-5.24-5.63h-10.35a5.24 5.24 0 00-5.24 5.63z" fill="#093f68"/><path d="M197.67 241.22H165v-70a33.75 33.75 0 0115.68-3.83h1.83c13.22 30.15 15.16 73.83 15.16 73.83z" fill="#f56132"/><path d="M197.67 242.22H165a1 1 0 01-1-1v-70a1 1 0 01.54-.89 34.59 34.59 0 0116.14-3.94h1.83a1 1 0 01.92.6c13.13 30 15.21 73.77 15.23 74.2a1 1 0 01-.28.74 1 1 0 01-.71.29zm-31.66-2h30.6c-.4-6.76-3.11-44.81-14.75-71.85h-1.17a32.6 32.6 0 00-14.69 3.44z" fill="#093f68"/><path d="M235 171.19v70h-32.67s1.94-43.68 15.15-73.85h1.83a33.87 33.87 0 0115.69 3.85z" fill="#f56132"/><path d="M235 242.22h-32.67a1 1 0 01-.72-.31 1 1 0 01-.28-.74c0-.43 2.1-44.21 15.23-74.2a1 1 0 01.92-.6h1.83a34.61 34.61 0 0116.14 3.93 1 1 0 01.54.89v70a1 1 0 01-.99 1.03zm-31.6-2H234V171.8a32.62 32.62 0 00-14.68-3.43h-1.17c-11.65 27.05-14.36 65.09-14.76 71.85zm-11.79-42.61h-26.24a1 1 0 010-2h26.24a1 1 0 010 2zm1.98 9.95h-28.22a1 1 0 010-2h28.22a1 1 0 010 2z" fill="#093f68"/><path d="M234.26 197.61h-25.45a1 1 0 010-2h25.45a1 1 0 010 2zm0 9.95h-27.37a1 1 0 010-2h27.37a1 1 0 010 2z" fill="#093f68"/><path d="M182.52 167.37c.14 0 8.74 9.07 8.74 9.07l8.74-9.07z" fill="#68e1fd"/><path d="M191.26 177.44a1 1 0 01-.72-.32c-3-3.19-8-8.38-8.6-8.94a1 1 0 01.58-1.81H200a1 1 0 01.92.61 1 1 0 01-.2 1.08l-8.72 9.07a1 1 0 01-.74.31zm-6.26-9.07c1.23 1.25 3.16 3.3 6.32 6.62l6.38-6.62z" fill="#093f68"/><path d="M216.63 167.37c-.14 0-8.74 9.07-8.74 9.07l-8.74-9.07z" fill="#68e1fd"/><path d="M207.89 177.44a1 1 0 01-.72-.31l-8.74-9.07a1 1 0 01-.2-1.08 1 1 0 01.92-.61h17.48a1 1 0 011 1 1 1 0 01-.42.81c-.61.56-5.56 5.75-8.59 8.94a1 1 0 01-.72.32zm-6.39-9.07l6.39 6.62c3.15-3.32 5.09-5.37 6.31-6.62zm.35-40.29a21.83 21.83 0 01-3.49-.29 1 1 0 11.35-2 16.68 16.68 0 005.46 0c.33-.93-1-4.9-3-8.68a1 1 0 01.42-1.35 1 1 0 011.35.42c1 1.88 4.09 8.17 3.05 10.49a1.78 1.78 0 01-1.22 1 12.22 12.22 0 01-2.92.41z" fill="#093f68"/><circle cx="184.7" cy="120.39" r="3.36" fill="#093f68"/><path d="M190.25 111.68h-16.12a2 2 0 010-4h16.12a2 2 0 010 4z" fill="#093f68"/><circle cx="216.32" cy="120.39" r="3.36" fill="#093f68"/><path d="M226.9 111.68h-16.13a2 2 0 010-4h16.13a2 2 0 110 4z" fill="#093f68"/><path d="M280.5 217.7a57.87 57.87 0 016.65-1.18 3 3 0 011.64.11 2.12 2.12 0 01.85 2.67 5.09 5.09 0 01-2.09 2.2 14.55 14.55 0 01-10.19 2.44 3.71 3.71 0 01-1.89-.75c-1-.84-1.82-4.27-.59-5.16.55-.4 1.32.11 1.91.12a14.12 14.12 0 003.71-.45z" fill="#ffc9b0"/><path d="M279.35 225.1a14.09 14.09 0 01-2.16-.17 4.64 4.64 0 01-2.38-1 6.42 6.42 0 01-1.53-4.49 2.73 2.73 0 011-2.23 2.33 2.33 0 012.11-.16 2.33 2.33 0 00.4.09 13.78 13.78 0 003.47-.42 59.21 59.21 0 016.77-1.21 4 4 0 012.16.19 3.1 3.1 0 011.37 3.95 6 6 0 01-2.48 2.68 16.1 16.1 0 01-8.73 2.77zm-4-6.22s-.08.19-.11.66a4.87 4.87 0 00.86 2.9 2.94 2.94 0 001.39.52 13.74 13.74 0 009.48-2.29 4.27 4.27 0 001.71-1.74 1.16 1.16 0 00-.33-1.39 2.35 2.35 0 00-1.11 0 55.46 55.46 0 00-6.53 1.17 15.42 15.42 0 01-4 .47 3.34 3.34 0 01-.92-.17 3.09 3.09 0 00-.47-.1z" fill="#093f68"/><circle cx="263.83" cy="190.48" r="3.85" fill="#093f68"/><path d="M263.84 195.34a5.35 5.35 0 01-1.12-.13 4.83 4.83 0 01-3-2.17 4.76 4.76 0 01-.6-3.66 4.85 4.85 0 117.27 5.23 4.8 4.8 0 01-2.55.73zm-2.79-5.51a2.83 2.83 0 00.36 2.16 2.85 2.85 0 003.92.92 2.85 2.85 0 00-.85-5.2 2.86 2.86 0 00-3.43 2.12z" fill="#093f68"/><path fill="#093f68" d="M272.167 200.942l-20.467-4.793 1.884-8.042 20.466 4.792z"/><path d="M272.18 201.92a.9.9 0 01-.23 0l-20.47-4.8a1 1 0 01-.62-.44 1 1 0 01-.12-.76l1.88-8a1 1 0 011.2-.75l20.47 4.8a1 1 0 01.75 1.2l-1.89 8a1 1 0 01-.97.75zm-19.27-6.54l18.52 4.34 1.43-6.09-18.52-4.34z" fill="#093f68"/><rect x="234.02" y="192.77" width="45.42" height="56.01" rx="2.93" transform="rotate(-166.82 256.722 220.785)" fill="#fff"/><path d="M270.28 253.63a3.94 3.94 0 01-.9-.1l-38.53-9a3.93 3.93 0 01-2.93-4.71L239.37 191a3.93 3.93 0 014.71-2.93l38.53 9a3.93 3.93 0 012.93 4.71L274.1 250.6a3.92 3.92 0 01-3.82 3zm-39-11.08l38.53 9a1.93 1.93 0 002.31-1.43l11.44-48.84a1.94 1.94 0 00-1.43-2.32l-38.53-9a1.93 1.93 0 00-2.32 1.43l-11.44 48.84a1.92 1.92 0 001.44 2.31z" fill="#093f68"/><rect x="271.76" y="220.31" width="15.77" height="4.39" rx="2.19" transform="rotate(-152.66 279.658 222.498)" fill="#ffc9b0"/><path d="M284.7 228.31a3.14 3.14 0 01-1.46-.35l-10.11-5.23a3.2 3.2 0 012.93-5.68l10.11 5.23a3.19 3.19 0 01-1.47 6zm-10.1-9.61a1.5 1.5 0 00-.37.05 1.24 1.24 0 00-.7.59 1.2 1.2 0 00-.07.91 1.11 1.11 0 00.59.7l10.1 5.23a1.2 1.2 0 001.61-.51 1.18 1.18 0 00-.51-1.61l-10.11-5.23a1.16 1.16 0 00-.54-.13z" fill="#093f68"/><rect x="269.75" y="224.21" width="15.77" height="4.39" rx="2.19" transform="rotate(-152.66 277.64 226.399)" fill="#ffc9b0"/><path d="M282.68 232.21a3.15 3.15 0 01-1.46-.36l-10.11-5.22a3.2 3.2 0 112.94-5.68l10.1 5.23a3.2 3.2 0 01-.49 5.88 3.28 3.28 0 01-.98.15zM272 224.85l10.11 5.23a1.19 1.19 0 00.91.07 1.17 1.17 0 00.7-.59 1.24 1.24 0 00.08-.91 1.19 1.19 0 00-.59-.69l-10.11-5.23a1.19 1.19 0 10-1.1 2.12z" fill="#093f68"/><rect x="267.73" y="228.11" width="15.77" height="4.39" rx="2.19" transform="rotate(-152.66 275.628 230.294)" fill="#ffc9b0"/><path d="M280.67 236.11a3.15 3.15 0 01-1.46-.36l-10.11-5.22a3.2 3.2 0 012.93-5.68l10.11 5.23a3.19 3.19 0 01-1.47 6zM270 228.75l10.12 5.25a1.18 1.18 0 001.61-.51 1.15 1.15 0 00.08-.91 1.24 1.24 0 00-.59-.7l-10.11-5.22a1.19 1.19 0 00-1.61.51 1.2 1.2 0 00.51 1.61z" fill="#093f68"/><rect x="265.72" y="232.01" width="15.77" height="4.39" rx="2.19" transform="rotate(-152.66 273.61 234.195)" fill="#ffc9b0"/><path d="M278.65 240a3.21 3.21 0 01-1.46-.36l-10.11-5.22a3.2 3.2 0 112.93-5.68l10.11 5.26a3.2 3.2 0 01-1.47 6zm-10.1-9.62a1.13 1.13 0 00-.36.06 1.18 1.18 0 00-.7.59 1.16 1.16 0 00-.08.91 1.24 1.24 0 00.59.7l10.11 5.22a1.19 1.19 0 001.61-.51 1.2 1.2 0 00-.51-1.61l-10.11-5.22a1.21 1.21 0 00-.55-.13zm-115.158 16.121l-2.383 1.015a2.78 2.78 0 01-3.647-1.468l-24.88-58.413a2.21 2.21 0 011.168-2.899l3.423-1.458a2.21 2.21 0 012.899 1.168l24.89 58.44a2.78 2.78 0 01-1.468 3.647z" fill="#093f68"/><path d="M149.93 248.73a3.78 3.78 0 01-3.48-2.3L121.57 188a3.23 3.23 0 011.7-4.22l3.42-1.46a3.23 3.23 0 014.22 1.7l24.87 58.42a3.78 3.78 0 01-2 4.95l-2.39 1a3.83 3.83 0 01-1.46.34zm1.08-1.22zM128 184.09a1.36 1.36 0 00-.48.09l-3.42 1.46a1.21 1.21 0 00-.64 1.59l24.88 58.42a1.78 1.78 0 002.33.94l2.38-1a1.77 1.77 0 00.94-2.33l-24.87-58.41a1.23 1.23 0 00-1.12-.76z" fill="#093f68"/><path d="M111.28 192.39l4.06 9.52a2.21 2.21 0 002.89 1.17l.63-.27a2.21 2.21 0 001.17-2.9c2.86-.91 6.3.92 6.3.92l10.43-4.44s-.25-5 .73-6.32 7.13.57 7.58-.93-5.32-4.29-10.55-5c-4.4-.61-15.14 4.81-18.43 6.54l-.11-.26a2.2 2.2 0 00-2.9-1.16l-.62.27a2.21 2.21 0 00-1.18 2.86z" fill="#68e1fd"/><path d="M117.37 204.25a3.19 3.19 0 01-3-1.95l-4.06-9.52a3.2 3.2 0 010-2.45 3.14 3.14 0 011.72-1.75l.62-.27a3.2 3.2 0 013.81 1c4.61-2.38 13.87-6.8 18.16-6.19 4.69.66 9.88 2.88 11.1 4.77a1.81 1.81 0 01.27 1.53c-.46 1.54-2.56 1.39-4.78 1.24a9.28 9.28 0 00-3 .06c-.4.55-.59 3.36-.48 5.62a1 1 0 01-.6 1l-10.43 4.44a1 1 0 01-.86 0 9.49 9.49 0 00-4.65-1A3.13 3.13 0 01121 202a3.21 3.21 0 01-1.72 1.75l-.63.27a3.21 3.21 0 01-1.28.23zm-3.43-14.2a1.1 1.1 0 00-.47.1l-.63.27a1.17 1.17 0 00-.65.66 1.22 1.22 0 000 .92l4 9.52a1.25 1.25 0 00.67.65 1.22 1.22 0 00.92 0l.62-.27a1.2 1.2 0 00.65-1.59 1 1 0 01.61-1.36c2.61-.83 5.53.29 6.63.79l9.37-4c0-1.71 0-5 1-6.27.8-1.06 2.61-.93 4.7-.79a17.7 17.7 0 002.5.05c-1-1.05-5.2-3-9.51-3.62-3.28-.46-11.35 3-17.82 6.44a1 1 0 01-.8.05 1 1 0 01-.59-.55l-.11-.25a1.22 1.22 0 00-1.11-.74z" fill="#093f68"/><rect x="127.19" y="215.37" width="18.06" height="7.13" rx="3.01" transform="rotate(162.61 136.215 218.94)" fill="#ffc9b0"/><path d="M130.65 225.27a4 4 0 01-3.83-2.81l-.34-1.06a4 4 0 012.63-5l11.49-3.6a4 4 0 015 2.63l.34 1.06a4 4 0 01-2.63 5l-11.49 3.6a4.14 4.14 0 01-1.17.18zm11.14-10.68a1.78 1.78 0 00-.59.1l-11.49 3.59a2 2 0 00-1.32 2.52l.34 1.06a2 2 0 002.51 1.32l11.49-3.6a2 2 0 001.18-1 2 2 0 00.14-1.53l-.34-1.07a2 2 0 00-1.92-1.39z" fill="#093f68"/><rect x="129.23" y="221.89" width="18.06" height="7.13" rx="3.01" transform="rotate(162.61 138.257 225.463)" fill="#ffc9b0"/><path d="M132.69 231.8a4 4 0 01-3.83-2.81l-.33-1.07a4 4 0 012.62-5l11.49-3.6a4 4 0 015 2.63L148 223a4 4 0 01-2.63 5l-11.49 3.59a3.79 3.79 0 01-1.19.21zm.89-1.14zm10.26-9.54a2.08 2.08 0 00-.6.09l-11.49 3.6a2 2 0 00-1.31 2.52l.33 1.06a2 2 0 002.52 1.32l11.48-3.6a2 2 0 001.32-2.52l-.33-1.06a2 2 0 00-1.92-1.41z" fill="#093f68"/><rect x="131.28" y="228.42" width="18.06" height="7.13" rx="3.01" transform="rotate(162.61 140.299 231.988)" fill="#ffc9b0"/><path d="M134.73 238.32a4 4 0 01-3.83-2.81l-.33-1.06a4 4 0 012.63-5l11.48-3.59a4 4 0 015 2.63l.33 1.06a4 4 0 01-2.63 5l-11.48 3.6a4.16 4.16 0 01-1.17.17zm.9-1.14zm10.26-9.54a1.81 1.81 0 00-.61.1l-11.48 3.59a1.94 1.94 0 00-1.18 1 2 2 0 00-.14 1.53l.33 1.06a2 2 0 002.52 1.32l11.49-3.6a2 2 0 001.18-1 2.06 2.06 0 00.13-1.54l-.33-1.06a2 2 0 00-1.91-1.41z" fill="#093f68"/><rect x="133.32" y="234.94" width="18.06" height="7.13" rx="3.01" transform="rotate(162.61 142.34 238.512)" fill="#ffc9b0"/><path d="M136.77 244.85a4.06 4.06 0 01-1.86-.46 4 4 0 01-2-2.36l-.34-1.06a4 4 0 012.63-5l11.49-3.6a4 4 0 015 2.63l.33 1.06a4 4 0 01-2.62 5l-11.4 3.6a3.86 3.86 0 01-1.23.19zm11.15-10.68a2.13 2.13 0 00-.6.09l-11.48 3.6a2 2 0 00-1.32 2.51l.33 1.07a2 2 0 002.52 1.31l11.49-3.59a2 2 0 001.32-2.52l-.34-1.06a2 2 0 00-1.92-1.41z" fill="#093f68"/><rect x="147.97" y="210.84" width="7.35" height="25.94" rx="3.67" transform="rotate(162.61 151.634 223.815)" fill="#ffc9b0"/><path d="M154.42 237.36a4.68 4.68 0 01-4.46-3.28l-5.56-17.75a4.67 4.67 0 118.92-2.79l5.56 17.75a4.68 4.68 0 01-3.07 5.85 4.48 4.48 0 01-1.39.22zm1.1-1.17zm-6.66-23.93a2.77 2.77 0 00-.8.12 2.68 2.68 0 00-1.75 3.35l5.56 17.75a2.66 2.66 0 003.35 1.75 2.67 2.67 0 001.75-3.35l-5.56-17.75a2.67 2.67 0 00-2.55-1.87z" fill="#093f68"/></g></svg>