<svg xmlns="http://www.w3.org/2000/svg" viewBox="0 0 400 300" width="406" height="306" class="illustration styles_illustrationTablet__1DWOa"><g id="_64_logistics_outline" data-name="#64_logistics_outline"><rect x="204" y="121.75" width="35.45" height="30.84" fill="#ffbc0e"></rect><path d="M239.45,153.59H204a1,1,0,0,1-1-1V121.75a1,1,0,0,1,1-1h35.45a1,1,0,0,1,1,1v30.84A1,1,0,0,1,239.45,153.59Zm-34.45-2h33.45V122.75H205Z" fill="#093f68"></path><rect x="218.22" y="121.75" width="7.02" height="10.99" fill="#f56132"></rect><path d="M225.24,133.74h-7a1,1,0,0,1-1-1v-11a1,1,0,0,1,1-1h7a1,1,0,0,1,1,1v11A1,1,0,0,1,225.24,133.74Zm-6-2h5v-9h-5Z" fill="#093f68"></path><path d="M218.22,148.19h-9a1,1,0,1,1,0-2h9a1,1,0,0,1,0,2Z" fill="#093f68"></path><rect x="168.55" y="121.75" width="35.45" height="30.84" fill="#ffbc0e"></rect><path d="M204,153.59H168.55a1,1,0,0,1-1-1V121.75a1,1,0,0,1,1-1H204a1,1,0,0,1,1,1v30.84A1,1,0,0,1,204,153.59Zm-34.45-2H203V122.75H169.55Z" fill="#093f68"></path><rect x="182.77" y="121.75" width="7.02" height="10.99" fill="#f56132"></rect><path d="M189.78,133.74h-7a1,1,0,0,1-1-1v-11a1,1,0,0,1,1-1h7a1,1,0,0,1,1,1v11A1,1,0,0,1,189.78,133.74Zm-6-2h5v-9h-5Z" fill="#093f68"></path><path d="M182.76,148.19h-9a1,1,0,0,1,0-2h9a1,1,0,0,1,0,2Z" fill="#093f68"></path><rect x="133.09" y="121.75" width="35.45" height="30.84" fill="#ffbc0e"></rect><path d="M168.55,153.59H133.09a1,1,0,0,1-1-1V121.75a1,1,0,0,1,1-1h35.46a1,1,0,0,1,1,1v30.84A1,1,0,0,1,168.55,153.59Zm-34.46-2h33.46V122.75H134.09Z" fill="#093f68"></path><rect x="147.31" y="121.75" width="7.02" height="10.99" fill="#f56132"></rect><path d="M154.33,133.74h-7a1,1,0,0,1-1-1v-11a1,1,0,0,1,1-1h7a1,1,0,0,1,1,1v11A1,1,0,0,1,154.33,133.74Zm-6-2h5v-9h-5Z" fill="#093f68"></path><path d="M147.31,148.19h-9a1,1,0,0,1,0-2h9a1,1,0,0,1,0,2Z" fill="#093f68"></path><rect x="97.64" y="121.75" width="35.45" height="30.84" fill="#ffbc0e"></rect><path d="M133.09,153.59H97.64a1,1,0,0,1-1-1V121.75a1,1,0,0,1,1-1h35.45a1,1,0,0,1,1,1v30.84A1,1,0,0,1,133.09,153.59Zm-34.45-2h33.45V122.75H98.64Z" fill="#093f68"></path><rect x="111.86" y="121.75" width="7.02" height="10.99" fill="#f56132"></rect><path d="M118.88,133.74h-7a1,1,0,0,1-1-1v-11a1,1,0,0,1,1-1h7a1,1,0,0,1,1,1v11A1,1,0,0,1,118.88,133.74Zm-6-2h5v-9h-5Z" fill="#093f68"></path><path d="M111.86,148.19h-9a1,1,0,0,1,0-2h9a1,1,0,1,1,0,2Z" fill="#093f68"></path><rect x="186.27" y="90.91" width="35.45" height="30.84" fill="#ffbc0e"></rect><path d="M221.73,122.75H186.27a1,1,0,0,1-1-1V90.91a1,1,0,0,1,1-1h35.46a1,1,0,0,1,1,1v30.84A1,1,0,0,1,221.73,122.75Zm-34.46-2h33.46V91.91H187.27Z" fill="#093f68"></path><rect x="200.49" y="90.91" width="7.02" height="10.99" fill="#f56132"></rect><path d="M207.51,102.9h-7a1,1,0,0,1-1-1v-11a1,1,0,0,1,1-1h7a1,1,0,0,1,1,1v11A1,1,0,0,1,207.51,102.9Zm-6-2h5v-9h-5Z" fill="#093f68"></path><path d="M200.49,117.35h-9a1,1,0,0,1,0-2h9a1,1,0,0,1,0,2Z" fill="#093f68"></path><rect x="150.82" y="90.91" width="35.45" height="30.84" fill="#ffbc0e"></rect><path d="M186.27,122.75H150.82a1,1,0,0,1-1-1V90.91a1,1,0,0,1,1-1h35.45a1,1,0,0,1,1,1v30.84A1,1,0,0,1,186.27,122.75Zm-34.45-2h33.45V91.91H151.82Z" fill="#093f68"></path><rect x="165.04" y="90.91" width="7.02" height="10.99" fill="#f56132"></rect><path d="M172.06,102.9h-7a1,1,0,0,1-1-1v-11a1,1,0,0,1,1-1h7a1,1,0,0,1,1,1v11A1,1,0,0,1,172.06,102.9Zm-6-2h5v-9h-5Z" fill="#093f68"></path><path d="M165,117.35h-9a1,1,0,0,1,0-2h9a1,1,0,0,1,0,2Z" fill="#093f68"></path><rect x="115.37" y="90.91" width="35.45" height="30.84" fill="#ffbc0e"></rect><path d="M150.82,122.75H115.37a1,1,0,0,1-1-1V90.91a1,1,0,0,1,1-1h35.45a1,1,0,0,1,1,1v30.84A1,1,0,0,1,150.82,122.75Zm-34.45-2h33.45V91.91H116.37Z" fill="#093f68"></path><rect x="129.59" y="90.91" width="7.02" height="10.99" fill="#f56132"></rect><path d="M136.6,102.9h-7a1,1,0,0,1-1-1v-11a1,1,0,0,1,1-1h7a1,1,0,0,1,1,1v11A1,1,0,0,1,136.6,102.9Zm-6-2h5v-9h-5Z" fill="#093f68"></path><path d="M129.59,117.35h-9a1,1,0,0,1,0-2h9a1,1,0,0,1,0,2Z" fill="#093f68"></path><rect x="90.85" y="145.83" width="154.67" height="45.52" fill="#68e1fd"></rect><path d="M245.52,192.35H90.85a1,1,0,0,1-1-1V145.83a1,1,0,0,1,1-1H245.52a1,1,0,0,1,1,1v45.52A1,1,0,0,1,245.52,192.35Zm-153.67-2H244.52V146.83H91.85Z" fill="#093f68"></path><path d="M301.08,191.35a4.12,4.12,0,0,0,4.12-4c.52-19.39,1.46-54.62-.27-62.44-1.8-8.09-13.82-20.84-18.6-25.66a6.54,6.54,0,0,0-4.62-1.93H245.52v94Z" fill="#68e1fd"></path><path d="M301.08,192.35H245.52a1,1,0,0,1-1-1v-94a1,1,0,0,1,1-1h36.19A7.44,7.44,0,0,1,287,98.54c5.06,5.1,17,17.85,18.86,26.15,1.78,8,.82,43.56.3,62.68A5.09,5.09,0,0,1,301.08,192.35Zm-54.56-2h54.56a3.1,3.1,0,0,0,3.12-3c.52-19,1.47-54.46-.25-62.19-1.78-8-14.48-21.29-18.33-25.18a5.5,5.5,0,0,0-3.91-1.63H246.52Z" fill="#093f68"></path><rect x="305.61" y="171.09" width="3.54" height="13.51" fill="#70cc40"></rect><path d="M309.15,185.59h-3.54a1,1,0,0,1-1-1v-13.5a1,1,0,0,1,1-1h3.54a1,1,0,0,1,1,1v13.5A1,1,0,0,1,309.15,185.59Zm-2.54-2h1.54v-11.5h-1.54Z" fill="#093f68"></path><path d="M254.81,103.51v46.17H299.3V131.1c0-8.51-10.74-20.33-15.64-25.27a7.78,7.78,0,0,0-5.55-2.32Z" fill="#fff"></path><path d="M299.3,150.68H254.81a1,1,0,0,1-1-1V103.51a1,1,0,0,1,1-1h23.3a8.78,8.78,0,0,1,6.26,2.61c5.95,6,15.93,17.37,15.93,26v18.58A1,1,0,0,1,299.3,150.68Zm-43.49-2H298.3V131.1c0-8.19-10.74-19.91-15.35-24.57a6.78,6.78,0,0,0-4.84-2h-22.3Z" fill="#093f68"></path><path d="M266.58,156.59h-9.8a1,1,0,1,1,0-2h9.8a1,1,0,0,1,0,2Z" fill="#093f68"></path><circle cx="273.82" cy="192.06" r="17.03" fill="#093f68"></circle><path d="M273.82,210.09a18,18,0,1,1,18-18A18.05,18.05,0,0,1,273.82,210.09Zm0-34.07a16,16,0,1,0,16,16A16.05,16.05,0,0,0,273.82,176Z" fill="#093f68"></path><circle cx="273.82" cy="192.06" r="8.54" fill="#fff"></circle><path d="M273.82,201.6a9.55,9.55,0,1,1,9.54-9.54A9.55,9.55,0,0,1,273.82,201.6Zm0-17.09a7.55,7.55,0,1,0,7.54,7.55A7.56,7.56,0,0,0,273.82,184.51Z" fill="#093f68"></path><circle cx="127.76" cy="192.06" r="17.03" fill="#093f68"></circle><path d="M127.76,210.09a18,18,0,1,1,18-18A18.05,18.05,0,0,1,127.76,210.09Zm0-34.07a16,16,0,1,0,16,16A16.05,16.05,0,0,0,127.76,176Z" fill="#093f68"></path><circle cx="127.76" cy="192.06" r="8.54" fill="#fff"></circle><path d="M127.76,201.6a9.55,9.55,0,1,1,9.54-9.54A9.55,9.55,0,0,1,127.76,201.6Zm0-17.09a7.55,7.55,0,1,0,7.54,7.55A7.56,7.56,0,0,0,127.76,184.51Z" fill="#093f68"></path><rect x="195.21" y="191.35" width="40.17" height="4.41" fill="#093f68"></rect><path d="M235.38,196.76H195.21a1,1,0,0,1-1-1v-4.41a1,1,0,0,1,1-1h40.17a1,1,0,0,1,1,1v4.41A1,1,0,0,1,235.38,196.76Zm-39.17-2h38.17v-2.41H196.21Z" fill="#093f68"></path><path d="M245.52,156.59H90.85a1,1,0,0,1,0-2H245.52a1,1,0,0,1,0,2Z" fill="#093f68"></path><path d="M265.27,129.58a1,1,0,0,1-.69-.28,1,1,0,0,1,0-1.41l15.19-15.77a1,1,0,0,1,1.44,1.39L266,129.28A1,1,0,0,1,265.27,129.58Z" fill="#dfeaef"></path><path d="M269.57,145.33a1,1,0,0,1-.73-1.68l21.28-22.86a1,1,0,1,1,1.46,1.37L270.3,145A1,1,0,0,1,269.57,145.33Z" fill="#dfeaef"></path><rect x="292.28" y="139.57" width="8.17" height="13.79" rx="4.08" fill="#093f68"></rect><path d="M296.37,154.36a5.09,5.09,0,0,1-5.09-5.08v-5.63a5.09,5.09,0,0,1,10.17,0v5.63A5.09,5.09,0,0,1,296.37,154.36Zm0-13.79a3.09,3.09,0,0,0-3.09,3.08v5.63a3.09,3.09,0,0,0,3.08,3.08h0a3.09,3.09,0,0,0,3.08-3.08v-5.63A3.09,3.09,0,0,0,296.37,140.57Z" fill="#093f68"></path></g></svg>