<svg xmlns="http://www.w3.org/2000/svg" viewBox="0 0 400 300" width="406" height="306" class="illustration styles_illustrationTablet__1DWOa"><g id="_368_construction_worker_outline" data-name="#368_construction_worker_outline"><path d="M253.32,201.39v39.83H146.68V201.39a34,34,0,0,1,34-34h38.62a34,34,0,0,1,34,34Z" fill="#68e1fd"></path><path d="M253.32,242.22H146.68a1,1,0,0,1-1-1V201.39a35,35,0,0,1,35-35h38.62a35,35,0,0,1,35,35v39.83A1,1,0,0,1,253.32,242.22Zm-105.64-2H252.32V201.39a33,33,0,0,0-33-33H180.69a32.6,32.6,0,0,0-15.22,3.71,33,33,0,0,0-17.79,29.31Z" fill="#093f68"></path><rect x="192.11" y="151.59" width="15.78" height="15.78" fill="#ffc9b0"></rect><path d="M207.89,168.37H192.11a1,1,0,0,1-1-1V151.59a1,1,0,0,1,1-1h15.78a1,1,0,0,1,1,1v15.78A1,1,0,0,1,207.89,168.37Zm-14.78-2h13.78V152.59H193.11Z" fill="#093f68"></path><ellipse cx="167.48" cy="121.9" rx="11.16" ry="15.3" fill="#ffc9b0"></ellipse><path d="M167.48,138.2c-6.7,0-12.15-7.31-12.15-16.3s5.45-16.31,12.15-16.31,12.16,7.32,12.16,16.31S174.19,138.2,167.48,138.2Zm0-30.61c-5.6,0-10.15,6.42-10.15,14.31s4.55,14.3,10.15,14.3,10.16-6.41,10.16-14.3S173.08,107.59,167.48,107.59Z" fill="#093f68"></path><ellipse cx="232.52" cy="121.9" rx="11.16" ry="15.3" fill="#ffc9b0"></ellipse><path d="M232.52,138.2c-6.7,0-12.16-7.31-12.16-16.3s5.46-16.31,12.16-16.31,12.16,7.32,12.16,16.31S239.22,138.2,232.52,138.2Zm0-30.61c-5.6,0-10.16,6.42-10.16,14.31s4.56,14.3,10.16,14.3,10.16-6.41,10.16-14.3S238.12,107.59,232.52,107.59Z" fill="#093f68"></path><path d="M221.91,80.38A12.71,12.71,0,0,1,234.63,93.1v34.39a33.1,33.1,0,0,1-33.1,33.11h-3a33.11,33.11,0,0,1-33.12-33.11V93.1a12.72,12.72,0,0,1,12.72-12.72Z" fill="#ffc9b0"></path><path d="M201.53,161.6h-3a34.16,34.16,0,0,1-34.12-34.11V93.1a13.74,13.74,0,0,1,13.72-13.72h43.82A13.73,13.73,0,0,1,235.63,93.1v34.39A34.14,34.14,0,0,1,201.53,161.6ZM178.09,81.38A11.74,11.74,0,0,0,166.37,93.1v34.39a32.15,32.15,0,0,0,32.12,32.11h3a32.14,32.14,0,0,0,32.1-32.11V93.1a11.74,11.74,0,0,0-11.72-11.72Z" fill="#093f68"></path><path d="M224.5,137.42c-3.6-5.32-13.21-9.13-24.5-9.13s-20.9,3.81-24.5,9.13a33,33,0,0,1-10.13-23.83v13.9a33.11,33.11,0,0,0,33.12,33.11h3a33.1,33.1,0,0,0,33.1-33.11v-13.9A33,33,0,0,1,224.5,137.42ZM200,151c-8.72,0-15.88-3.51-16.74-8a4.6,4.6,0,0,1-.09-.91c0-4.93,7.53-8.92,16.83-8.92s16.83,4,16.83,8.92a4.88,4.88,0,0,1-.09.93C215.86,147.5,208.71,151,200,151Z" fill="#725858"></path><path d="M201.53,161.6h-3a34.16,34.16,0,0,1-34.12-34.11v-13.9a1,1,0,0,1,2,0,31.83,31.83,0,0,0,9,22.31c4.32-5.19,14-8.61,24.61-8.61s20.29,3.42,24.61,8.61a31.83,31.83,0,0,0,9-22.31,1,1,0,0,1,2,0v13.9A34.14,34.14,0,0,1,201.53,161.6Zm-35.16-36.43v2.32a32.16,32.16,0,0,0,32.12,32.11h3a32.14,32.14,0,0,0,32.1-32.11v-2.32a34,34,0,0,1-8.44,13,1,1,0,0,1-.79.27,1,1,0,0,1-.73-.43c-3.52-5.2-13-8.69-23.67-8.69s-20.15,3.49-23.67,8.69a1,1,0,0,1-.73.43,1,1,0,0,1-.79-.27A33.88,33.88,0,0,1,166.37,125.17ZM200,152c-9.14,0-16.76-3.79-17.72-8.81a5.86,5.86,0,0,1-.11-1.1c0-5.56,7.83-9.92,17.83-9.92s17.83,4.36,17.83,9.92a6.16,6.16,0,0,1-.11,1.12C216.74,148.22,209.12,152,200,152Zm0-17.83c-8.58,0-15.83,3.62-15.83,7.92a3.42,3.42,0,0,0,.07.71c.77,4,7.7,7.2,15.76,7.2s15-3.15,15.76-7.17a3.78,3.78,0,0,0,.07-.74C215.83,137.79,208.58,134.17,200,134.17Z" fill="#093f68"></path><path d="M200.37,145.81a21.84,21.84,0,0,1-10.89-2.88,1,1,0,0,1-.3-1.38,1,1,0,0,1,1.38-.31,19.93,19.93,0,0,0,19.63,0,1,1,0,1,1,1,1.75A22.09,22.09,0,0,1,200.37,145.81Z" fill="#093f68"></path><path d="M200.35,48.45h0a39.94,39.94,0,0,1,39.94,39.94v2.12a0,0,0,0,1,0,0H160.4a0,0,0,0,1,0,0V88.39A39.94,39.94,0,0,1,200.35,48.45Z" fill="#68e1fd"></path><path d="M240.29,91.51H160.4a1,1,0,0,1-1-1V88.39a40.95,40.95,0,0,1,81.89,0v2.12A1,1,0,0,1,240.29,91.51Zm-78.89-2h77.89V88.39a38.95,38.95,0,0,0-77.89,0Z" fill="#093f68"></path><rect x="151.73" y="90.51" width="97.23" height="15.33" rx="7.67" fill="#68e1fd"></rect><path d="M241.3,106.84H159.4a8.67,8.67,0,1,1,0-17.33h81.9a8.67,8.67,0,0,1,0,17.33ZM159.4,91.51a6.67,6.67,0,1,0,0,13.33h81.9a6.67,6.67,0,0,0,0-13.33Z" fill="#093f68"></path><path d="M195.17,45.33h10.35a6.25,6.25,0,0,1,6.24,6.7l-2.82,38.48H191.75L188.94,52A6.24,6.24,0,0,1,195.17,45.33Z" fill="#68e1fd"></path><path d="M208.94,91.51H191.75a1,1,0,0,1-1-.92l-2.82-38.48a7.24,7.24,0,0,1,7.23-7.78h10.35a7.24,7.24,0,0,1,7.23,7.78l-2.82,38.48A1,1,0,0,1,208.94,91.51Zm-16.26-2H208L210.76,52a5.24,5.24,0,0,0-5.24-5.63H195.17A5.24,5.24,0,0,0,189.93,52Z" fill="#093f68"></path><path d="M197.67,241.22H165v-70a33.75,33.75,0,0,1,15.68-3.83h1.83C195.73,197.54,197.67,241.22,197.67,241.22Z" fill="#f56132"></path><path d="M197.67,242.22H165a1,1,0,0,1-1-1v-70a1,1,0,0,1,.54-.89,34.59,34.59,0,0,1,16.14-3.94h1.83a1,1,0,0,1,.92.6c13.13,30,15.21,73.77,15.23,74.2a1,1,0,0,1-.28.74A1,1,0,0,1,197.67,242.22Zm-31.66-2h30.6c-.4-6.76-3.11-44.81-14.75-71.85h-1.17A32.6,32.6,0,0,0,166,171.81Z" fill="#093f68"></path><path d="M235,171.19v70H202.33s1.94-43.68,15.15-73.85h1.83A33.87,33.87,0,0,1,235,171.19Z" fill="#f56132"></path><path d="M235,242.22H202.33a1,1,0,0,1-.72-.31,1,1,0,0,1-.28-.74c0-.43,2.1-44.21,15.23-74.2a1,1,0,0,1,.92-.6h1.83a34.61,34.61,0,0,1,16.14,3.93,1,1,0,0,1,.54.89v70A1,1,0,0,1,235,242.22Zm-31.6-2H234V171.8a32.62,32.62,0,0,0-14.68-3.43h-1.17C206.5,195.42,203.79,233.46,203.39,240.22Z" fill="#093f68"></path><path d="M191.61,197.61H165.37a1,1,0,0,1,0-2h26.24a1,1,0,0,1,0,2Z" fill="#093f68"></path><path d="M193.59,207.56H165.37a1,1,0,0,1,0-2h28.22a1,1,0,0,1,0,2Z" fill="#093f68"></path><path d="M234.26,197.61H208.81a1,1,0,0,1,0-2h25.45a1,1,0,0,1,0,2Z" fill="#093f68"></path><path d="M234.26,207.56H206.89a1,1,0,0,1,0-2h27.37a1,1,0,0,1,0,2Z" fill="#093f68"></path><path d="M182.52,167.37c.14,0,8.74,9.07,8.74,9.07l8.74-9.07Z" fill="#68e1fd"></path><path d="M191.26,177.44h0a1,1,0,0,1-.72-.32c-3-3.19-8-8.38-8.6-8.94a1,1,0,0,1,.58-1.81H200a1,1,0,0,1,.92.61,1,1,0,0,1-.2,1.08L192,177.13A1,1,0,0,1,191.26,177.44ZM185,168.37c1.23,1.25,3.16,3.3,6.32,6.62l6.38-6.62Z" fill="#093f68"></path><path d="M216.63,167.37c-.14,0-8.74,9.07-8.74,9.07l-8.74-9.07Z" fill="#68e1fd"></path><path d="M207.89,177.44a1,1,0,0,1-.72-.31l-8.74-9.07a1,1,0,0,1-.2-1.08,1,1,0,0,1,.92-.61h17.48a1,1,0,0,1,1,1,1,1,0,0,1-.42.81c-.61.56-5.56,5.75-8.59,8.94a1,1,0,0,1-.72.32Zm-6.39-9.07,6.39,6.62c3.15-3.32,5.09-5.37,6.31-6.62Z" fill="#093f68"></path><path d="M201.85,128.08a21.83,21.83,0,0,1-3.49-.29,1,1,0,1,1,.35-2,16.68,16.68,0,0,0,5.46,0c.33-.93-1-4.9-3-8.68a1,1,0,0,1,.42-1.35,1,1,0,0,1,1.35.42c1,1.88,4.09,8.17,3.05,10.49a1.78,1.78,0,0,1-1.22,1A12.22,12.22,0,0,1,201.85,128.08Z" fill="#093f68"></path><circle cx="184.7" cy="120.39" r="3.36" fill="#093f68"></circle><path d="M190.25,111.68H174.13a2,2,0,0,1,0-4h16.12a2,2,0,0,1,0,4Z" fill="#093f68"></path><circle cx="216.32" cy="120.39" r="3.36" fill="#093f68"></circle><path d="M226.9,111.68H210.77a2,2,0,0,1,0-4H226.9a2,2,0,1,1,0,4Z" fill="#093f68"></path><path d="M280.5,217.7a57.87,57.87,0,0,1,6.65-1.18,3,3,0,0,1,1.64.11,2.12,2.12,0,0,1,.85,2.67,5.09,5.09,0,0,1-2.09,2.2,14.55,14.55,0,0,1-10.19,2.44,3.71,3.71,0,0,1-1.89-.75c-1-.84-1.82-4.27-.59-5.16.55-.4,1.32.11,1.91.12A14.12,14.12,0,0,0,280.5,217.7Z" fill="#ffc9b0"></path><path d="M279.35,225.1a14.09,14.09,0,0,1-2.16-.17,4.64,4.64,0,0,1-2.38-1,6.42,6.42,0,0,1-1.53-4.49,2.73,2.73,0,0,1,1-2.23,2.33,2.33,0,0,1,2.11-.16,2.33,2.33,0,0,0,.4.09,13.78,13.78,0,0,0,3.47-.42h0a59.21,59.21,0,0,1,6.77-1.21,4,4,0,0,1,2.16.19,3.1,3.1,0,0,1,1.37,3.95,6,6,0,0,1-2.48,2.68A16.1,16.1,0,0,1,279.35,225.1Zm-4-6.22s-.08.19-.11.66a4.87,4.87,0,0,0,.86,2.9,2.94,2.94,0,0,0,1.39.52,13.74,13.74,0,0,0,9.48-2.29,4.27,4.27,0,0,0,1.71-1.74,1.16,1.16,0,0,0-.33-1.39,2.35,2.35,0,0,0-1.11,0,55.46,55.46,0,0,0-6.53,1.17,15.42,15.42,0,0,1-4,.47,3.34,3.34,0,0,1-.92-.17,3.09,3.09,0,0,0-.47-.1Z" fill="#093f68"></path><circle cx="263.83" cy="190.48" r="3.85" fill="#093f68"></circle><path d="M263.84,195.34a5.35,5.35,0,0,1-1.12-.13,4.83,4.83,0,0,1-3-2.17,4.76,4.76,0,0,1-.6-3.66h0a4.85,4.85,0,1,1,7.27,5.23A4.8,4.8,0,0,1,263.84,195.34Zm-2.79-5.51a2.83,2.83,0,0,0,.36,2.16,2.85,2.85,0,0,0,3.92.92,2.85,2.85,0,0,0-.85-5.2,2.86,2.86,0,0,0-3.43,2.12Z" fill="#093f68"></path><rect x="252.37" y="190.38" width="21.02" height="8.26" transform="translate(474.48 443.85) rotate(-166.82)" fill="#093f68"></rect><path d="M272.18,201.92a.9.9,0,0,1-.23,0l-20.47-4.8a1,1,0,0,1-.62-.44,1,1,0,0,1-.12-.76l1.88-8a1,1,0,0,1,1.2-.75l20.47,4.8a1,1,0,0,1,.75,1.2l-1.89,8A1,1,0,0,1,272.18,201.92Zm-19.27-6.54,18.52,4.34,1.43-6.09-18.52-4.34Z" fill="#093f68"></path><rect x="234.02" y="192.77" width="45.42" height="56.01" rx="2.93" transform="translate(456.34 494.29) rotate(-166.82)" fill="#fff"></rect><path d="M270.28,253.63a3.94,3.94,0,0,1-.9-.1l-38.53-9h0a3.93,3.93,0,0,1-2.93-4.71L239.37,191a3.93,3.93,0,0,1,4.71-2.93l38.53,9a3.93,3.93,0,0,1,2.93,4.71L274.1,250.6a3.92,3.92,0,0,1-3.82,3Zm-39-11.08,38.53,9a1.93,1.93,0,0,0,2.31-1.43l11.44-48.84a1.94,1.94,0,0,0-1.43-2.32l-38.53-9a1.93,1.93,0,0,0-2.32,1.43l-11.44,48.84a1.92,1.92,0,0,0,1.44,2.31Z" fill="#093f68"></path><rect x="271.76" y="220.31" width="15.77" height="4.39" rx="2.19" transform="translate(425.89 548.58) rotate(-152.66)" fill="#ffc9b0"></rect><path d="M284.7,228.31a3.14,3.14,0,0,1-1.46-.35l-10.11-5.23a3.2,3.2,0,0,1,2.93-5.68l10.11,5.23a3.19,3.19,0,0,1-1.47,6Zm-10.1-9.61a1.5,1.5,0,0,0-.37.05,1.24,1.24,0,0,0-.7.59,1.2,1.2,0,0,0-.07.91,1.11,1.11,0,0,0,.59.7h0l10.1,5.23a1.2,1.2,0,0,0,1.61-.51,1.18,1.18,0,0,0-.51-1.61l-10.11-5.23A1.16,1.16,0,0,0,274.6,218.7Z" fill="#093f68"></path><rect x="269.75" y="224.21" width="15.77" height="4.39" rx="2.19" transform="translate(420.29 555.02) rotate(-152.66)" fill="#ffc9b0"></rect><path d="M282.68,232.21a3.15,3.15,0,0,1-1.46-.36l-10.11-5.22h0a3.2,3.2,0,1,1,2.94-5.68l10.1,5.23a3.2,3.2,0,0,1-.49,5.88A3.28,3.28,0,0,1,282.68,232.21ZM272,224.85l10.11,5.23a1.19,1.19,0,0,0,.91.07,1.17,1.17,0,0,0,.7-.59,1.24,1.24,0,0,0,.08-.91,1.19,1.19,0,0,0-.59-.69l-10.11-5.23a1.19,1.19,0,1,0-1.1,2.12Z" fill="#093f68"></path><rect x="267.73" y="228.11" width="15.77" height="4.39" rx="2.19" transform="translate(414.7 561.45) rotate(-152.66)" fill="#ffc9b0"></rect><path d="M280.67,236.11a3.15,3.15,0,0,1-1.46-.36l-10.11-5.22h0a3.2,3.2,0,0,1,2.93-5.68l10.11,5.23a3.19,3.19,0,0,1-1.47,6ZM270,228.75,280.12,234a1.18,1.18,0,0,0,1.61-.51,1.15,1.15,0,0,0,.08-.91,1.24,1.24,0,0,0-.59-.7l-10.11-5.22a1.19,1.19,0,0,0-1.61.51,1.2,1.2,0,0,0,.51,1.61Z" fill="#093f68"></path><rect x="265.72" y="232.01" width="15.77" height="4.39" rx="2.19" transform="translate(409.1 567.89) rotate(-152.66)" fill="#ffc9b0"></rect><path d="M278.65,240a3.21,3.21,0,0,1-1.46-.36l-10.11-5.22a3.2,3.2,0,1,1,2.93-5.68L280.12,234a3.2,3.2,0,0,1-1.47,6Zm-10.1-9.62a1.13,1.13,0,0,0-.36.06,1.18,1.18,0,0,0-.7.59,1.16,1.16,0,0,0-.08.91,1.24,1.24,0,0,0,.59.7h0l10.11,5.22a1.19,1.19,0,0,0,1.61-.51,1.2,1.2,0,0,0-.51-1.61l-10.11-5.22A1.21,1.21,0,0,0,268.55,230.39Z" fill="#093f68"></path><path d="M137.49,181.25h2.59a2.78,2.78,0,0,1,2.78,2.78v63.49a2.21,2.21,0,0,1-2.21,2.21h-3.72a2.21,2.21,0,0,1-2.21-2.21V184a2.78,2.78,0,0,1,2.78-2.78Z" transform="translate(350.91 359.38) rotate(156.93)" fill="#093f68"></path><path d="M149.93,248.73a3.78,3.78,0,0,1-3.48-2.3L121.57,188a3.23,3.23,0,0,1,1.7-4.22l3.42-1.46a3.23,3.23,0,0,1,4.22,1.7l24.87,58.42a3.78,3.78,0,0,1-2,4.95l-2.39,1h0A3.83,3.83,0,0,1,149.93,248.73Zm1.08-1.22h0ZM128,184.09a1.36,1.36,0,0,0-.48.09l-3.42,1.46a1.21,1.21,0,0,0-.64,1.59l24.88,58.42a1.78,1.78,0,0,0,2.33.94l2.38-1a1.77,1.77,0,0,0,.94-2.33l-24.87-58.41A1.23,1.23,0,0,0,128,184.09Z" fill="#093f68"></path><path d="M111.28,192.39l4.06,9.52a2.21,2.21,0,0,0,2.89,1.17l.63-.27a2.21,2.21,0,0,0,1.17-2.9h0c2.86-.91,6.3.92,6.3.92l10.43-4.44s-.25-5,.73-6.32,7.13.57,7.58-.93-5.32-4.29-10.55-5c-4.4-.61-15.14,4.81-18.43,6.54l-.11-.26a2.2,2.2,0,0,0-2.9-1.16l-.62.27A2.21,2.21,0,0,0,111.28,192.39Z" fill="#68e1fd"></path><path d="M117.37,204.25a3.19,3.19,0,0,1-3-1.95l-4.06-9.52a3.2,3.2,0,0,1,0-2.45,3.14,3.14,0,0,1,1.72-1.75l.62-.27a3.2,3.2,0,0,1,3.81,1c4.61-2.38,13.87-6.8,18.16-6.19,4.69.66,9.88,2.88,11.1,4.77a1.81,1.81,0,0,1,.27,1.53c-.46,1.54-2.56,1.39-4.78,1.24a9.28,9.28,0,0,0-3,.06c-.4.55-.59,3.36-.48,5.62a1,1,0,0,1-.6,1l-10.43,4.44a1,1,0,0,1-.86,0,9.49,9.49,0,0,0-4.65-1A3.13,3.13,0,0,1,121,202a3.21,3.21,0,0,1-1.72,1.75l-.63.27A3.21,3.21,0,0,1,117.37,204.25Zm-3.43-14.2a1.1,1.1,0,0,0-.47.1l-.63.27a1.17,1.17,0,0,0-.65.66,1.22,1.22,0,0,0,0,.92h0l4,9.52a1.25,1.25,0,0,0,.67.65,1.22,1.22,0,0,0,.92,0l.62-.27a1.2,1.2,0,0,0,.65-1.59,1,1,0,0,1,.61-1.36c2.61-.83,5.53.29,6.63.79l9.37-4c0-1.71,0-5,1-6.27.8-1.06,2.61-.93,4.7-.79a17.7,17.7,0,0,0,2.5.05c-1-1.05-5.2-3-9.51-3.62-3.28-.46-11.35,3-17.82,6.44a1,1,0,0,1-.8.05,1,1,0,0,1-.59-.55l-.11-.25a1.22,1.22,0,0,0-1.11-.74Z" fill="#093f68"></path><rect x="127.19" y="215.37" width="18.06" height="7.13" rx="3.01" transform="translate(331.64 387.16) rotate(162.61)" fill="#ffc9b0"></rect><path d="M130.65,225.27a4,4,0,0,1-3.83-2.81l-.34-1.06a4,4,0,0,1,2.63-5l11.49-3.6a4,4,0,0,1,5,2.63l.34,1.06a4,4,0,0,1-2.63,5l-11.49,3.6A4.14,4.14,0,0,1,130.65,225.27Zm11.14-10.68a1.78,1.78,0,0,0-.59.1l-11.49,3.59a2,2,0,0,0-1.32,2.52l.34,1.06a2,2,0,0,0,2.51,1.32h0l11.49-3.6a2,2,0,0,0,1.18-1,2,2,0,0,0,.14-1.53l-.34-1.07A2,2,0,0,0,141.79,214.59Z" fill="#093f68"></path><rect x="129.23" y="221.89" width="18.06" height="7.13" rx="3.01" transform="translate(337.58 399.3) rotate(162.61)" fill="#ffc9b0"></rect><path d="M132.69,231.8a4,4,0,0,1-3.83-2.81l-.33-1.07a4,4,0,0,1,2.62-5l11.49-3.6a4,4,0,0,1,5,2.63L148,223a4,4,0,0,1-2.63,5l-11.49,3.59h0A3.79,3.79,0,0,1,132.69,231.8Zm.89-1.14h0Zm10.26-9.54a2.08,2.08,0,0,0-.6.09l-11.49,3.6a2,2,0,0,0-1.31,2.52l.33,1.06a2,2,0,0,0,2.52,1.32l11.48-3.6a2,2,0,0,0,1.32-2.52l-.33-1.06A2,2,0,0,0,143.84,221.12Z" fill="#093f68"></path><rect x="131.28" y="228.42" width="18.06" height="7.13" rx="3.01" transform="translate(343.52 411.44) rotate(162.61)" fill="#ffc9b0"></rect><path d="M134.73,238.32a4,4,0,0,1-3.83-2.81l-.33-1.06a4,4,0,0,1,2.63-5l11.48-3.59a4,4,0,0,1,5,2.63l.33,1.06a4,4,0,0,1-2.63,5l-11.48,3.6h0A4.16,4.16,0,0,1,134.73,238.32Zm.9-1.14h0Zm10.26-9.54a1.81,1.81,0,0,0-.61.1l-11.48,3.59a1.94,1.94,0,0,0-1.18,1,2,2,0,0,0-.14,1.53l.33,1.06a2,2,0,0,0,2.52,1.32l11.49-3.6a2,2,0,0,0,1.18-1,2.06,2.06,0,0,0,.13-1.54l-.33-1.06a2,2,0,0,0-1.91-1.41Z" fill="#093f68"></path><rect x="133.32" y="234.94" width="18.06" height="7.13" rx="3.01" transform="translate(349.46 423.58) rotate(162.61)" fill="#ffc9b0"></rect><path d="M136.77,244.85a4.06,4.06,0,0,1-1.86-.46,4,4,0,0,1-2-2.36l-.34-1.06a4,4,0,0,1,2.63-5l11.49-3.6a4,4,0,0,1,5,2.63l.33,1.06a4,4,0,0,1-2.62,5L138,244.66h0A3.86,3.86,0,0,1,136.77,244.85Zm11.15-10.68a2.13,2.13,0,0,0-.6.09l-11.48,3.6a2,2,0,0,0-1.32,2.51l.33,1.07a2,2,0,0,0,2.52,1.31h0l11.49-3.59a2,2,0,0,0,1.32-2.52l-.34-1.06A2,2,0,0,0,147.92,234.17Z" fill="#093f68"></path><rect x="147.97" y="210.84" width="7.35" height="25.94" rx="3.67" transform="translate(363.23 392.08) rotate(162.61)" fill="#ffc9b0"></rect><path d="M154.42,237.36a4.68,4.68,0,0,1-4.46-3.28l-5.56-17.75a4.67,4.67,0,1,1,8.92-2.79l5.56,17.75a4.68,4.68,0,0,1-3.07,5.85h0A4.48,4.48,0,0,1,154.42,237.36Zm1.1-1.17Zm-6.66-23.93a2.77,2.77,0,0,0-.8.12,2.68,2.68,0,0,0-1.75,3.35l5.56,17.75a2.66,2.66,0,0,0,3.35,1.75h0a2.67,2.67,0,0,0,1.75-3.35l-5.56-17.75A2.67,2.67,0,0,0,148.86,212.26Z" fill="#093f68"></path></g></svg>