<svg xmlns="http://www.w3.org/2000/svg" data-name="Layer 1" width="1047.795" height="450.309"><path d="M29.32 395.474a17.165 17.165 0 0134.33 0" fill="#f2f2f2"/><path d="M46.485 395.474a.464.464 0 01-.464-.464v-9.046a.464.464 0 11.928 0v9.046a.464.464 0 01-.464.464z" fill="#ccc"/><path d="M46.485 392.366a.462.462 0 01-.302-.112l-5.567-4.778a.464.464 0 11.604-.704l5.567 4.778a.464.464 0 01-.302.816z" fill="#ccc"/><path d="M82.208 395.474a17.165 17.165 0 0134.33 0" fill="#f2f2f2"/><path d="M99.373 395.474a.464.464 0 01-.464-.464v-9.046a.464.464 0 01.928 0v9.046a.464.464 0 01-.464.464z" fill="#ccc"/><path d="M99.373 392.366a.462.462 0 01-.302-.112l-5.567-4.778a.464.464 0 11.604-.704l5.567 4.778a.464.464 0 01-.302.816z" fill="#ccc"/><circle cx="784.795" cy="34.309" r="33" fill="#f2f2f2"/><ellipse cx="108.795" cy="425.309" rx="30" ry="7" fill="#f2f2f2"/><path d="M93.481 137.962c7.868-24.568 27.08-43.622 49.864-54.955 27.033-13.446 58.097-14.968 87.45-9.735 31.685 5.65 61.3 18.672 89.965 32.884 28.117 13.94 55.78 28.66 85.02 40.18a550.375 550.375 0 00182.947 37.896c56.43 1.882 116.767-4.301 165.085-36.018 44.272-29.062 72.444-77.006 87.117-126.982q2.817-9.597 5.01-19.36c.426-1.88-2.466-2.682-2.894-.797-11.835 52.188-37.074 103.767-80.197 137.034-46.641 35.98-107.854 44.298-165.137 43.346a547.717 547.717 0 01-185.332-35.764c-29.993-11.418-58.296-26.245-86.96-40.56-28.034-14-56.855-27.105-87.682-33.562-28.15-5.896-58.288-6.255-85.428 4.237-22.348 8.639-42.725 24.037-54.65 45.102a86.494 86.494 0 00-7.07 16.257c-.591 1.843 2.305 2.632 2.892.797z" fill="#f2f2f2"/><path d="M521.783 367.679a1 1 0 000-2h-9.5v-4h9.5a1 1 0 000-2h-81a1 1 0 000 2h9.5v4h-9.5a1 1 0 000 2h9.5v4h-9.5a1 1 0 000 2h9.5v4h-8.5a2 2 0 000 4h8.092a1.49 1.49 0 00-.092.5v14a1.5 1.5 0 003 0v-14a1.49 1.49 0 00-.091-.5h57.183a1.49 1.49 0 00-.092.5v14a1.5 1.5 0 003 0v-14a1.49 1.49 0 00-.091-.5h8.091a2 2 0 000-4h-8.5v-4h9.5a1 1 0 000-2h-9.5v-4zm-69.5-6h58v4h-58zm58 16h-58v-4h58zm0-6h-58v-4h58z" fill="#3f3d56"/><path d="M216.795 325.707c0-17.66-14.327-59.57-32-59.57s-32 41.91-32 59.57a32 32 0 0064 0z" fill="#e6e6e6"/><path d="M208.795 325.707c0-17.66-14.327-59.57-32-59.57s-32 41.91-32 59.57a32 32 0 0064 0z" fill="#f2f2f2"/><path d="M177.795 397.258a1 1 0 01-1-1v-89.14a1 1 0 012 0v89.14a1 1 0 01-1 1z" fill="#ccc"/><path d="M177.795 321.73a1 1 0 01-.707-1.707l13.078-13.078a1 1 0 011.414 1.414l-13.078 13.079a.996.996 0 01-.707.292z" fill="#ccc"/><path d="M545.795 397.258a1 1 0 01-1-1v-89.14a1 1 0 012 0v89.14a1 1 0 01-1 1z" fill="#3f3d56"/><path d="M652.795 325.707c0-17.66-14.327-59.57-32-59.57s-32 41.91-32 59.57a32 32 0 0064 0z" fill="#e6e6e6"/><path d="M644.795 325.707c0-17.66-14.327-59.57-32-59.57s-32 41.91-32 59.57a32 32 0 0064 0z" fill="#f2f2f2"/><path d="M613.795 397.258a1 1 0 01-1-1v-89.14a1 1 0 012 0v89.14a1 1 0 01-1 1z" fill="#ccc"/><path d="M613.795 321.73a1 1 0 01-.707-1.707l13.078-13.078a1 1 0 011.414 1.414l-13.078 13.079a.996.996 0 01-.707.292z" fill="#ccc"/><path d="M283.795 51.809h-16a4.505 4.505 0 01-4.5-4.5v-37a4.505 4.505 0 014.5-4.5h16a4.505 4.505 0 014.5 4.5v37a4.505 4.505 0 01-4.5 4.5z" fill="#e6e6e6"/><path d="M346.795 396.809h-82a8.51 8.51 0 01-8.5-8.5v-331a8.51 8.51 0 018.5-8.5h82a8.51 8.51 0 018.5 8.5v331a8.51 8.51 0 01-8.5 8.5z" fill="#e6e6e6"/><path d="M297.795 396.809h-82a8.51 8.51 0 01-8.5-8.5v-331a8.51 8.51 0 018.5-8.5h82a8.51 8.51 0 018.5 8.5v331a8.51 8.51 0 01-8.5 8.5z" fill="#f2f2f2"/><path d="M268.795 51.809h-16a4.505 4.505 0 01-4.5-4.5v-37a4.505 4.505 0 014.5-4.5h16a4.505 4.505 0 014.5 4.5v37a4.505 4.505 0 01-4.5 4.5z" fill="#f2f2f2"/><path d="M247.795 123.809h-19a2.503 2.503 0 01-2.5-2.5v-29a2.503 2.503 0 012.5-2.5h19a2.503 2.503 0 012.5 2.5v29a2.503 2.503 0 01-2.5 2.5zm37 0h-19a2.503 2.503 0 01-2.5-2.5v-29a2.503 2.503 0 012.5-2.5h19a2.503 2.503 0 012.5 2.5v29a2.503 2.503 0 01-2.5 2.5zm-37 53h-19a2.503 2.503 0 01-2.5-2.5v-29a2.503 2.503 0 012.5-2.5h19a2.503 2.503 0 012.5 2.5v29a2.503 2.503 0 01-2.5 2.5zm37 0h-19a2.503 2.503 0 01-2.5-2.5v-29a2.503 2.503 0 012.5-2.5h19a2.503 2.503 0 012.5 2.5v29a2.503 2.503 0 01-2.5 2.5zm-37 53h-19a2.503 2.503 0 01-2.5-2.5v-29a2.503 2.503 0 012.5-2.5h19a2.503 2.503 0 012.5 2.5v29a2.503 2.503 0 01-2.5 2.5zm37 0h-19a2.503 2.503 0 01-2.5-2.5v-29a2.503 2.503 0 012.5-2.5h19a2.503 2.503 0 012.5 2.5v29a2.503 2.503 0 01-2.5 2.5zm-37 53h-19a2.503 2.503 0 01-2.5-2.5v-29a2.503 2.503 0 012.5-2.5h19a2.503 2.503 0 012.5 2.5v29a2.503 2.503 0 01-2.5 2.5zm37 0h-19a2.503 2.503 0 01-2.5-2.5v-29a2.503 2.503 0 012.5-2.5h19a2.503 2.503 0 012.5 2.5v29a2.503 2.503 0 01-2.5 2.5zm-37 53h-19a2.503 2.503 0 01-2.5-2.5v-29a2.503 2.503 0 012.5-2.5h19a2.503 2.503 0 012.5 2.5v29a2.503 2.503 0 01-2.5 2.5zm37 0h-19a2.503 2.503 0 01-2.5-2.5v-29a2.503 2.503 0 012.5-2.5h19a2.503 2.503 0 012.5 2.5v29a2.503 2.503 0 01-2.5 2.5z" fill="#fff"/><path d="M696.795 226.809h-16a4.505 4.505 0 01-4.5-4.5v-21a4.505 4.505 0 014.5-4.5h16a4.505 4.505 0 014.5 4.5v21a4.505 4.505 0 01-4.5 4.5zm135 171h-82a8.51 8.51 0 01-8.5-8.5v-159a8.51 8.51 0 018.5-8.5h82a8.51 8.51 0 018.5 8.5v159a8.51 8.51 0 01-8.5 8.5z" fill="#e6e6e6"/><path d="M782.795 397.809h-142a8.51 8.51 0 01-8.5-8.5v-159a8.51 8.51 0 018.5-8.5h142a8.51 8.51 0 018.5 8.5v159a8.51 8.51 0 01-8.5 8.5z" fill="#f2f2f2"/><path d="M681.795 226.809h-16a4.505 4.505 0 01-4.5-4.5v-21a4.505 4.505 0 014.5-4.5h16a4.505 4.505 0 014.5 4.5v21a4.505 4.505 0 01-4.5 4.5z" fill="#f2f2f2"/><path d="M702.795 300.309h-19a2.503 2.503 0 01-2.5-2.5v-29a2.503 2.503 0 012.5-2.5h19a2.503 2.503 0 012.5 2.5v29a2.503 2.503 0 01-2.5 2.5zm37 0h-19a2.503 2.503 0 01-2.5-2.5v-29a2.503 2.503 0 012.5-2.5h19a2.503 2.503 0 012.5 2.5v29a2.503 2.503 0 01-2.5 2.5zm-37 53h-19a2.503 2.503 0 01-2.5-2.5v-29a2.503 2.503 0 012.5-2.5h19a2.503 2.503 0 012.5 2.5v29a2.503 2.503 0 01-2.5 2.5zm37 0h-19a2.503 2.503 0 01-2.5-2.5v-29a2.503 2.503 0 012.5-2.5h19a2.503 2.503 0 012.5 2.5v29a2.503 2.503 0 01-2.5 2.5z" fill="#fff"/><path d="M1046.795 398.309H1a1 1 0 110-2h1045.795a1 1 0 010 2zm-684 35h-93a1 1 0 010-2h93a1 1 0 110 2zm231 0h-93a1 1 0 010-2h93a1 1 0 110 2zm231 0h-93a1 1 0 010-2h93a1 1 0 110 2zm-409-107.602c0-17.66-14.327-59.57-32-59.57s-32 41.91-32 59.57a32 32 0 0064 0z" fill="#e6e6e6"/><path d="M407.795 325.707c0-17.66-14.327-59.57-32-59.57s-32 41.91-32 59.57a32 32 0 0064 0z" fill="#f2f2f2"/><path d="M376.795 397.258a1 1 0 01-1-1v-89.14a1 1 0 012 0v89.14a1 1 0 01-1 1z" fill="#ccc"/><path d="M376.795 321.73a1 1 0 01-.707-1.707l13.078-13.078a1 1 0 011.414 1.414l-13.078 13.079a.996.996 0 01-.707.292z" fill="#ccc"/><path d="M926.795 325.707c0-17.66-14.327-59.57-32-59.57s-32 41.91-32 59.57a32 32 0 0064 0z" fill="#e6e6e6"/><path d="M918.795 325.707c0-17.66-14.327-59.57-32-59.57s-32 41.91-32 59.57a32 32 0 0064 0z" fill="#f2f2f2"/><path d="M887.795 397.258a1 1 0 01-1-1v-89.14a1 1 0 012 0v89.14a1 1 0 01-1 1z" fill="#ccc"/><path d="M887.795 321.73a1 1 0 01-.707-1.707l13.078-13.078a1 1 0 011.414 1.414l-13.078 13.079a.996.996 0 01-.707.292z" fill="#ccc"/><path d="M556.795 336.809h-22a2.502 2.502 0 01-2.5-2.5v-22a2.502 2.502 0 012.5-2.5h22a2.502 2.502 0 012.5 2.5v22a2.502 2.502 0 01-2.5 2.5z" fill="#3f3d56"/><path d="M770.361 347.522a1.7 1.7 0 011.111 2.358l4.348 4.193-3.063.687-3.66-4.087a1.709 1.709 0 011.264-3.15z" fill="#ffb8b8"/><path d="M776.475 358.553l-5.364-5.032a.76.76 0 01-.02-1.09l1.095-1.109a.762.762 0 011.003-.07l4.495 3.436 2.804-6.802a2.123 2.123 0 012.897-1.096 2.11 2.11 0 011.161 2.249c-.509 3.094-3.592 7.183-5.384 9.346a1.853 1.853 0 01-2.066.554 1.848 1.848 0 01-.62-.386z" fill="#63e4ff"/><path d="M773.465 353.671l-3.949-5.728a.338.338 0 01.087-.47l.158-.11a.338.338 0 01.47.087l3.95 5.728a.338.338 0 01-.087.47l-.158.11a.338.338 0 01-.47-.087z" fill="#fff"/><path d="M772.361 353.714l-3.277-4.754a.93.93 0 01.238-1.293l.334-.23 4.333 6.284-.334.23a.93.93 0 01-1.293-.237z" fill="#3f3d56"/><path fill="#ffb8b8" d="M772.758 394.744l-2.059-.237.273-8.015 2.702.312-.916 7.94z"/><path d="M773.053 396.8l-6.638-.766.01-.084a2.6 2.6 0 012.881-2.285l4.055.468z" fill="#2f2e41"/><path fill="#ffb8b8" d="M796.697 393.222l-1.98.612-3.301-7.346 2.922-.903 2.359 7.637z"/><path d="M797.795 394.986l-6.384 1.972-.025-.081a2.6 2.6 0 011.717-3.253l3.9-1.204zm-27.335-2.089a.843.843 0 01-.564-1.028l1.24-14.286a4.313 4.313 0 01.6-1.842l7.512-12.467 6.722 1.208.043.018c3.267 2.001 6.168 11.703 8.973 21.086.436 1.46.887 2.968 1.327 4.41a.849.849 0 01-.456 1.094l-2.035.857a.843.843 0 01-1.07-.373l-10.463-19.157a.168.168 0 00-.13-.087.163.163 0 00-.145.056l-6.073 6.872-2.231 13.095-.01.028a.846.846 0 01-.999.482l-2.189.041h-.013z" fill="#2f2e41"/><path d="M778.884 364.64l-.042-.013-.013-.043c-.031-.104-3.104-10.501-.335-17.13l.003-.005c.08-.158 2.012-3.87 4.256-4.24l.06-.01.73 1.364c.229.23 4.177 4.329 2.385 11.375.16.578 2.341 8.51 1.155 9.696a2.176 2.176 0 01-1.48.371 29.878 29.878 0 01-6.719-1.364z" fill="#63e4ff"/><circle cx="782.291" cy="336.669" r="5.24" fill="#2f2e41"/><circle cx="780.209" cy="337.732" r="4.152" fill="#ffb8b8"/><path d="M782.88 341.765c-.378.134-.843.253-1.14-.026a1.01 1.01 0 01-.067-1.135 5.135 5.135 0 00.519-1.092 1.68 1.68 0 00-.617-1.537 4.56 4.56 0 00-1.504-.757l-2.906-1.033a3.358 3.358 0 01-1.897-1.23 2.275 2.275 0 01.905-2.933 3.69 3.69 0 013.194-.063 16.494 16.494 0 001.702.68c1.163.308 2.487.032 3.51.689a3.241 3.241 0 011.272 2.827 8.739 8.739 0 01-.855 3.126 5.813 5.813 0 01-.948 1.665 1.96 1.96 0 01-1.66.715z" fill="#2f2e41"/><circle cx="786.686" cy="334.133" r="3.381" fill="#2f2e41"/><path d="M781.107 339.035a.338.338 0 11.465.313v.744a.127.127 0 11-.253 0v-.744a.338.338 0 01-.212-.313z" fill="#fff"/><path d="M770.567 351.07a1.7 1.7 0 011.863 1.824l5.537 2.414-2.632 1.711-4.854-2.555a1.709 1.709 0 01.086-3.393z" fill="#ffb8b8"/><path d="M780.142 359.279l-6.781-2.847a.76.76 0 01-.4-1.014l.64-1.422a.762.762 0 01.916-.415l5.411 1.653.258-7.352a2.123 2.123 0 012.332-2.037 2.11 2.11 0 011.873 1.703c.601 3.077-.863 7.985-1.789 10.637a1.853 1.853 0 01-1.743 1.24 1.848 1.848 0 01-.717-.146zm-695.349-1.74H74.407v-3.153c3.282-2.284 6.19-2.085 10.015.185z" fill="#63e4ff"/><path fill="#ffb8b8" d="M72.002 413.541h-2.274l-.34-8.77h2.614v8.77z"/><path d="M72.582 415.745H65.25v-.093a2.854 2.854 0 012.854-2.854h4.478z" fill="#2f2e41"/><path fill="#ffb8b8" d="M84.809 413.541h2.273l.34-8.77h-2.614l.001 8.77z"/><path d="M84.229 412.799h4.478a2.854 2.854 0 012.853 2.853v.093h-7.33zm.639-.382a.838.838 0 01-.815-.653l-5.635-24.582a.27.27 0 00-.272-.217h-.001a.27.27 0 00-.27.22l-5.176 24.416a.839.839 0 01-.817.661h-2.465a.835.835 0 01-.833-.884l1.836-30.945.74-.22.013.001 14.514.127 3.091 30.912a.834.834 0 01-.763.913l-3.08.248q-.033.003-.067.003z" fill="#2f2e41"/><circle cx="78.875" cy="347.333" r="4.555" fill="#ffb8b8"/><path d="M76.084 383.825a7.862 7.862 0 01-2.36-.332 5.211 5.211 0 01-3.16-2.666.836.836 0 01-.062-.622c.502-1.715 2.93-10.627 1.38-17.712a7.508 7.508 0 011.068-5.77 7.414 7.414 0 014.809-3.235c.256-.05.515-.091.767-.123a7.388 7.388 0 015.983 1.969 7.57 7.57 0 012.377 6.001l-1.19 19.104a.827.827 0 01-.445.687c-1.371.718-5.49 2.7-9.167 2.7z" fill="#3f3d56"/><path d="M84.02 343.98a5.593 5.593 0 00-6.13-3.447l1.437 1.16c-1.785.061-3.663-.067-4.937 1.184.405-.011.937.856 1.343.845a2.127 2.127 0 00-1.781 1.229 3.499 3.499 0 00-.207 2.225 25.851 25.851 0 001.6 3.178c-.053-1.812 3.514-6.134 5.256-5.683a4.78 4.78 0 00-2.207 1.676 6.473 6.473 0 013.84-.628 2.717 2.717 0 00.915.051 1.117 1.117 0 00.662-1.786z" fill="#2f2e41"/><path d="M75.77 382.678a.835.835 0 01-.334-.07l-8.643-3.773a.83.83 0 01-.473-.978l5.721-21.614a3.128 3.128 0 013.884-2.208l2.288.653-1.61 27.204a.837.837 0 01-.399.662.828.828 0 01-.434.124zm15.996-4.822l-.38-1.433-.55-2.085-.266-1-.55-2.078-3.975-15.017a3.125 3.125 0 00-3.884-2.207l-2.287.652 1.133 19.135.117 1.997.075 1.26v.001l.118 1.987.167 2.824a.84.84 0 00.833.787.85.85 0 00.334-.07l8.642-3.773a.828.828 0 00.473-.98z" fill="#63e4ff"/><path fill="#ccc" d="M90.57 373.339l-9.446 2.481-.117-1.997 9.012-2.564.551 2.08zm.816 3.084l-10.069 2.645-.119-1.987v-.002l9.637-2.741.551 2.085zm-14.423-2.17l-.117 1.96-9.264-2.759.543-2.052 8.838 2.851zm-.193 3.251l-9.453-3.051-.544 2.057 9.882 2.943.115-1.949z"/><path d="M67.481 379.554a1.992 1.992 0 001.307-2.762l4.444-13.951-3.152-.66-4.074 13.678a2.003 2.003 0 001.475 3.695z" fill="#ffb8b8"/><path d="M73.355 355.982c.905.092 1.414 1.11 1.189 2.377l-1.08 6.079c-.08.456-.456.816-.767.738l-3.652-.912c-.281-.07-.385-.47-.226-.87l2.193-5.499a2.646 2.646 0 012.343-1.913z" fill="#3f3d56"/><path d="M78.858 338.807a5.934 5.934 0 015.93 5.75h1.118a.37.37 0 01.37.37v1.484a.37.37 0 01-.37.371H73.294a.37.37 0 01-.37-.37v-1.67a5.935 5.935 0 015.934-5.935z" fill="#63e4ff"/><path d="M79.567 375.493h-2.622a.337.337 0 01-.336-.306l-.525-5.379h4.345l-.525 5.38a.337.337 0 01-.337.305z" fill="#e6e6e6"/><path d="M80.422 370.485H76.09a.339.339 0 01-.339-.338v-.812a.339.339 0 01.339-.339h4.33a.339.339 0 01.339.339v.812a.339.339 0 01-.338.338z" fill="#ccc"/><path d="M78.313 372.608a1.952 1.952 0 01.301.06l6.982-5.988-.408-2.197 3.235-1.05 1.1 3.82a1.484 1.484 0 01-.632 1.664l-8.842 5.596a1.947 1.947 0 11-1.736-1.905z" fill="#ffb8b8"/><path d="M85.614 356.484c.967-.27 1.933.465 2.256 1.719l1.553 6.014c.117.451-.11.93-.463.981l-4.137.595c-.318.046-.598-.28-.61-.71l-.16-5.92a2.603 2.603 0 011.561-2.679z" fill="#3f3d56"/><path d="M132.64 372.756h-3.15a.405.405 0 01-.405-.367l-.63-6.462h5.22l-.63 6.462a.405.405 0 01-.405.367z" fill="#e6e6e6"/><path d="M133.666 366.74h-5.203a.407.407 0 01-.406-.407v-.975a.407.407 0 01.406-.407h5.203a.407.407 0 01.407.407v.975a.407.407 0 01-.407.407zm29.919 43.966a37.324 37.324 0 01-5.365-10.012.959.959 0 01.453-1.154l7.831-4.196a.946.946 0 01.83-.034.962.962 0 01.549.643 22.801 22.801 0 005.001 9.334.962.962 0 01.231.813.946.946 0 01-.487.672l-7.832 4.196a.959.959 0 01-1.211-.262z" fill="#ccc"/><path d="M164.12 410.305a.29.29 0 00.36.074l7.832-4.196a.278.278 0 00.145-.2.294.294 0 00-.072-.251 23.472 23.472 0 01-5.149-9.61.294.294 0 00-.169-.199.278.278 0 00-.247.01l-7.831 4.197a.29.29 0 00-.138.342 36.656 36.656 0 005.268 9.833z" fill="#fff"/><path d="M167.018 401.332l-4.265 1.883a.67.67 0 01-.881-.341l-.106-.24a.67.67 0 01.342-.88l4.265-1.884a.67.67 0 01.881.342l.106.239a.67.67 0 01-.342.881zm1.56 2.898l-4.265 1.882a.67.67 0 01-.882-.342l-.105-.239a.67.67 0 01.341-.881l4.266-1.883a.67.67 0 01.881.342l.106.239a.67.67 0 01-.342.881z" fill="#ccc"/><path d="M158.575 401.815a2.394 2.394 0 01-.46-3.641l-1.799-25.526 5.182.502.142 24.998a2.407 2.407 0 01-3.065 3.667z" fill="#a0616a"/><path d="M157.49 381.225a.999.999 0 01-.415-.758l-.38-6.88a2.763 2.763 0 015.425-.875l1.668 6.151a1.004 1.004 0 01-.705 1.23l-4.744 1.287a.999.999 0 01-.85-.155z" fill="#3f3d56"/><path fill="#a0616a" d="M148.658 433.198l-2.731-.001-1.3-10.536h4.032l-.001 10.537z"/><path d="M143.365 432.417h5.879v3.317h-8.586v-.61a2.707 2.707 0 012.707-2.707z" fill="#2f2e41"/><path fill="#a0616a" d="M158.908 433.198l-2.731-.001-1.3-10.536h4.032l-.001 10.537z"/><path d="M153.615 432.417h5.879v3.317h-8.586v-.61a2.707 2.707 0 012.707-2.707zm-5.085-4.527l-3.008-.144a1.002 1.002 0 01-.955-.995c-.793-12.237-1.89-25.358-.21-30.428a1.003 1.003 0 011.147-.999l12.031 1.746a.997.997 0 01.859.985c1.536 6.002 1.605 16.886 1.547 28.195a1.003 1.003 0 01-1.003 1.01h-3.242a.998.998 0 01-.99-.847l-2-12.715a.78.78 0 00-1.545.028l-1.588 13.28a1.007 1.007 0 01-.996.885l-.048-.002z" fill="#2f2e41"/><path d="M150.646 398.057a15.136 15.136 0 00-5.722-1.96.984.984 0 01-.68-.373.998.998 0 01-.207-.758l2.882-21.402a7.402 7.402 0 014.315-5.784 7.199 7.199 0 016.996.548q.148.099.29.202a7.393 7.393 0 012.816 7.703c-1.768 7.232-2.375 19.088-2.479 21.391a.995.995 0 01-.65.892 10.046 10.046 0 01-3.393.605 8.495 8.495 0 01-4.168-1.064z" fill="#3f3d56"/><circle cx="153.058" cy="359.401" r="5.473" fill="#a0616a"/><path d="M156.93 363.73a1.768 1.768 0 01-3.05-.981 1.795 1.795 0 01.003-.347 8.035 8.035 0 00.358-1.95 1.023 1.023 0 00-.188-.48c-.813-1.089-2.723.488-3.49-.498-.472-.605.082-1.557-.28-2.233-.476-.892-1.889-.452-2.775-.94-.985-.544-.926-2.056-.277-2.976a4.68 4.68 0 013.548-1.806 9.518 9.518 0 014.009.782 8.012 8.012 0 013.788 2.627 6.412 6.412 0 01.648 5.46 10.292 10.292 0 01-2.293 3.343z" fill="#2f2e41"/><path d="M161.265 369.052c-.096-.45-.918-1.065-2.095-1.567a12.954 12.954 0 00-11.698 1.003.553.553 0 00-.51.434l-3.958 17.503-.514 2.28-.341 1.508-.515 2.273-.274 1.214a.559.559 0 00.495.68l17.088 1.475.049.002a.557.557 0 00.552-.521l.163-2.476.174-2.647.076-1.147.171-2.64 1.139-17.345v-.016z" fill="#63e4ff"/><path d="M133.226 370.153a2.346 2.346 0 01.053.366l9.572 5.522 2.327-1.34 2.48 3.247-4.977 3.548-10.92-8.615a2.339 2.339 0 111.465-2.728z" fill="#a0616a"/><path d="M143.193 375.571a.999.999 0 01.288-.814l4.872-4.873a2.763 2.763 0 014.27 3.458l-3.469 5.346a1.004 1.004 0 01-1.387.295l-4.123-2.676a.999.999 0 01-.451-.736z" fill="#3f3d56"/><path fill="#ccc" d="M160.128 386.425l-.171 2.641-17.468-.361.515-2.28h17.124zm-.247 3.788l-.174 2.647-18.073-.374.515-2.273h17.732z"/><path d="M153.165 348.768a7.129 7.129 0 00-7.125 6.908h-1.342a.446.446 0 00-.446.445v1.783a.446.446 0 00.446.445h15.152a.446.446 0 00.445-.445v-2.006a7.13 7.13 0 00-7.13-7.13z" fill="#63e4ff"/><path d="M193.295 421.309h-1.528c-.01-.185-2.062-5-2.062-5l-1.24-3-.82-2-1.24-3-1.42-3.45a.708.708 0 00-1.38 0l-1.42 3.45-1.24 3-.82 2-1.24 3s-2.052 4.815-2.061 5h-1.529a1.5 1.5 0 000 3h18a1.5 1.5 0 000-3zm-1 26h-.592c.054-.128-2.578-6.86-2.578-6.86l-1.58-3.85-1.06-2.58-1.58-3.85-1.72-4.17a.906.906 0 00-1.76 0l-1.72 4.17-1.58 3.85-1.07 2.58-1.58 3.85s-2.622 6.732-2.567 6.86h-.613a1.5 1.5 0 000 3h20a1.5 1.5 0 000-3z" fill="#ff6584"/><path fill="#f2f2f2" d="M187.645 411.309h-6.7l1.24-3h4.22l1.24 3zm2.06 5h-10.82l1.24-3h8.34l1.24 3zm-3.22 17.71h-8.36l1.58-3.85h5.2l1.58 3.85zm2.64 6.43h-13.65l1.58-3.85h10.49l1.58 3.85z"/><path d="M412.98 364.055a1.486 1.486 0 00-.188-2.27l-.75-4.946-3.082.97 1.688 4.412a1.494 1.494 0 002.332 1.834z" fill="#ffb8b8"/><path d="M409.805 361.728l-1.9-8.878a5.084 5.084 0 011.451-4.754c2.433-2.345 5.56-5.3 6.641-6.065a5.57 5.57 0 013.485-1.029l.026.003 1.635 1.546-3.562 5.864-5.408 3.388.602 8.702z" fill="#63e4ff"/><rect x="407.86" y="349.663" width="9.229" height="1.251" rx=".626" fill="#ccc"/><rect x="407.86" y="363.272" width="9.229" height="1.251" rx=".626" fill="#ccc"/><path d="M412.552 397.373a.313.313 0 01-.311-.286l-3.988-46.77a.313.313 0 11.623-.056l3.672 43.213 3.568-43.212a.313.313 0 11.623.054l-3.875 46.77a.313.313 0 01-.311.287z" fill="#ccc"/><circle cx="421.505" cy="335.026" r="4.104" fill="#ffb8b8"/><path fill="#ffb8b8" d="M409.273 395.497l-1.952-.622 1.471-7.825 2.881.918-2.4 7.529z"/><path d="M409.164 397.228l-6.283-2.003.052-.163a2.476 2.476 0 013.107-1.605l3.927 1.252z" fill="#2f2e41"/><path fill="#ffb8b8" d="M423.475 395.456h-2.049l-.975-7.902h3.024v7.902z"/><path d="M417.553 397.28h6.283v-2.33h-3.966a2.32 2.32 0 00-2.317 2.316zm5.862-4.388l-.692-.103a10.452 10.452 0 01-2.555-.478c-.17-.074-.182-1.203-.08-7.548.075-4.657.168-10.454-.013-13.565a.547.547 0 00-1.049-.185c-1.56 3.603-4.178 11.668-5.91 17.004a340.958 340.958 0 01-1.38 4.2.708.708 0 01-.838.454c-1.425-.356-1.33-.508-3.36-1.033a.702.702 0 01-.514-.826c.367-1.732 7.088-29.814 7.603-32.484a.704.704 0 01.83-.559c1.513.305 2.434.629 3.929.942 1.613.337 3.282.686 4.91 1.012a.698.698 0 01.41.251 4.358 4.358 0 001.631 1.096c.426.204-.54.186-.168.48 1.503 1.19-.659 25.354-1.965 30.812a.706.706 0 01-.79.53zm-.16-54.275c-.24-1.016.971-3.204.732-4.221-.163-.689-1.782-.22-2.16-.819a2.172 2.172 0 00-1.718-1.09c-.813-.01-1.613.594-2.383.333a1.535 1.535 0 01-.684-2.076 3.732 3.732 0 011.82-1.596 5.49 5.49 0 014.036-.678 6.634 6.634 0 012.135 1.342 7.443 7.443 0 011.618 1.642 4.41 4.41 0 01.069 4.328 6.506 6.506 0 01-3.366 2.896" fill="#2f2e41"/><path d="M413.176 362.279c.443-.74 1.116-4.207 1.945-10.027a460.32 460.32 0 001.301-10.072.992.992 0 01.557-.783q.238-.114.472-.217a10.827 10.827 0 0111.551 1.623l.019.018.004.024c.01.046.857 4.614-.88 7.701-1.712 3.045-1.732 11.11-1.732 11.191v.104l-.1-.028c-2.664-.762-12.956.57-13.06.584l-.16.02z" fill="#63e4ff"/><rect x="420.061" y="351.697" width="9.229" height="1.251" rx=".626" fill="#ccc"/><rect x="420.061" y="365.306" width="9.229" height="1.251" rx=".626" fill="#ccc"/><path d="M424.753 397.529a.313.313 0 01-.311-.285l-3.988-44.894a.313.313 0 01.623-.055l3.672 41.335 3.568-41.334a.313.313 0 11.623.053l-3.875 44.894a.313.313 0 01-.311.286z" fill="#ccc"/><path d="M422.178 365.504a1.486 1.486 0 011.391-1.804l3.318-3.744 2.06 2.489-3.815 2.787a1.494 1.494 0 01-2.954.272z" fill="#ffb8b8"/><path d="M424.109 362.898l5.234-6.978-2.7-5.783.197-6.859 2.212-.409.024.012a5.57 5.57 0 012.366 2.757c.492 1.229 1.511 5.41 2.28 8.7a5.084 5.084 0 01-1.365 4.78l-6.42 6.42z" fill="#63e4ff"/><path d="M402.17 395.589l7.16 1.723a.614.614 0 00.713-.332l6.15-16.353a.504.504 0 00.001-.398.57.57 0 00-.328-.307l-5.383-2.056a.647.647 0 00-.528.03.55.55 0 00-.288.352l-3.8 14.413-.056.004a5.218 5.218 0 00-3.18 1.325 2.08 2.08 0 00-.46 1.599z" fill="#ccc"/><path fill="#b3b3b3" d="M407.323 386.733l.033-.311 6.528.691-.033.311zm-.665 2.551l.129-.285 5.252 2.363-.128.286zm7.913-4.362l-6.192-2.051.129-.285 6.191 2.05-.128.286zm.626-1.408l-6.192-2.989.128-.286 6.192 2.989-.128.286zm-9.159 8.173l.203-.238 4.464 3.813-.203.238zm-1.35 1.155l.286-.129 1.792 3.953-.285.129z"/><path d="M579.472 365.365a1.863 1.863 0 01-1.292-2.549l-6.868-15.517 3.93-.99 5.515 15.565a1.873 1.873 0 01-1.285 3.49z" fill="#a0616a"/><path d="M572.587 352.161a.834.834 0 01-.459-.523l-1.2-4.017a2.32 2.32 0 014.196-1.98l2.322 3.508a.835.835 0 01-.342 1.218l-3.821 1.789a.834.834 0 01-.696.005z" fill="#63e4ff"/><path d="M586.568 350.16l-4.213 2.983a.316.316 0 01-.37 0l-1.14-.855a.312.312 0 01-.02-.488l3.242-2.89a.32.32 0 01.316-.062l2.11.755a.318.318 0 01.075.557z" fill="#3f3d56"/><path d="M586.225 349.877a.113.113 0 00-.065-.145l-1.9-.68a.114.114 0 00-.113.021l-2.924 2.608-.016.017a.109.109 0 00.025.152l1.024.769a.112.112 0 00.133-.001l3.796-2.688a.112.112 0 00.04-.053z" fill="#fff"/><path fill="#a0616a" d="M571.214 394.628h2.126l1.012-8.201h-3.138v8.201z"/><path d="M570.672 393.934h4.187a2.668 2.668 0 012.669 2.668v.087h-6.856z" fill="#2f2e41"/><path fill="#a0616a" d="M564.103 394.628h2.127l1.011-8.201h-3.138v8.201z"/><path d="M563.561 393.934h4.187a2.668 2.668 0 012.669 2.668v.087h-6.856zm.091-1.812a.934.934 0 01-.23-.602c-.507-5.214.872-32.625 4.059-34.966l.02-.019 9.326-1.61.174.173c.013.242 1.709 24.269-2.974 36.531a.78.78 0 01-.727.496h-1.862a.78.78 0 01-.778-.841l1.508-22.961a.26.26 0 00-.514-.076l-4.245 23.304a.785.785 0 01-.705.612l-2.445.181-.058.002a.781.781 0 01-.549-.224z" fill="#2f2e41"/><circle cx="575.925" cy="336.61" r="4.26" fill="#a0616a"/><path d="M565.665 360.285a1.01 1.01 0 01-.29-.685l1.74-8.144c-1.387-5.896.46-7.002 2.545-8.12l-.014-.006.87-2.356a.736.736 0 011.03-.477l4.44 2.359a.878.878 0 01.412.518 1.101 1.101 0 01-.014.716l-.328.888c.848 1.132 2.159 5.611.771 7.345l1.047 5.78a.912.912 0 01-.65.973l-10.94 1.403a.647.647 0 01-.128.013.706.706 0 01-.49-.207z" fill="#63e4ff"/><path d="M581.59 350.945a1.825 1.825 0 00-.192.213l-8.58-.593-.921-1.876-3.013 1.02 1.307 3.478a1.387 1.387 0 001.404.896l9.757-.74a1.82 1.82 0 10.239-2.398z" fill="#a0616a"/><path d="M572.497 350.595l-3.74 1.245a.78.78 0 01-1.015-.605l-.682-3.87a2.167 2.167 0 014.117-1.358l1.77 3.495a.78.78 0 01-.45 1.093z" fill="#63e4ff"/><circle cx="573.532" cy="329.777" r="3.469" fill="#2f2e41"/><path d="M579.957 337.136a1.815 1.815 0 001.004-.084 1.192 1.192 0 00.596-.9c.646-4.293-3.005-3.94-3.437-4.126a4.733 4.733 0 01-.763-.557 3.57 3.57 0 00-1.995-.44 5.752 5.752 0 00-2.424.297 3.631 3.631 0 00-1.612 1.485 7.499 7.499 0 00-.799 2.07 5.165 5.165 0 00-.135 2.537 3.137 3.137 0 002.847 2.282 2.347 2.347 0 011.239-2.571 3.58 3.58 0 012.361-.281 10.396 10.396 0 001.567.195c.516.02 1.136.05 1.551.093z" fill="#2f2e41"/><path d="M913.32 395.474a17.165 17.165 0 0134.33 0" fill="#f2f2f2"/><path d="M930.485 395.474a.464.464 0 01-.464-.464v-9.046a.464.464 0 01.928 0v9.046a.464.464 0 01-.464.464z" fill="#ccc"/><path d="M930.485 392.366a.462.462 0 01-.302-.112l-5.567-4.778a.464.464 0 11.604-.704l5.567 4.778a.464.464 0 01-.302.816z" fill="#ccc"/><path d="M966.208 395.474a17.165 17.165 0 0134.33 0" fill="#f2f2f2"/><path d="M983.373 395.474a.464.464 0 01-.464-.464v-9.046a.464.464 0 01.928 0v9.046a.464.464 0 01-.464.464z" fill="#ccc"/><path d="M983.373 392.366a.462.462 0 01-.302-.112l-5.567-4.778a.464.464 0 11.604-.704l5.567 4.778a.464.464 0 01-.302.816z" fill="#ccc"/></svg>