<svg xmlns="http://www.w3.org/2000/svg" viewBox="0 0 400 300" width="406" height="306" class="illustration styles_illustrationTablet__1DWOa"><g data-name="#373_architect_flatline"><path d="M118.08 259.86h-1.19a2 2 0 01-2-2.43l8.25-42.7h3.66z" fill="#fff"/><path d="M118.08 260.36h-1.19a2.54 2.54 0 01-2.49-3l8.24-42.7a.51.51 0 01.5-.41h3.66a.47.47 0 01.38.19.5.5 0 01.11.41L118.57 260a.49.49 0 01-.49.36zm5.47-45.13l-8.17 42.3a1.55 1.55 0 001.51 1.83h.78l8.52-44.13z" fill="#231f20"/><path d="M147.42 259.86h1.23a2 2 0 002-2.38l-8.26-42.75h-3.69z" fill="#fff"/><path d="M148.65 260.36h-1.23a.49.49 0 01-.49-.4l-8.72-45.13a.5.5 0 01.11-.41.47.47 0 01.38-.19h3.66a.49.49 0 01.49.41l8.26 42.75a2.51 2.51 0 01-2.46 3zm-.82-1h.82a1.52 1.52 0 001.16-.54 1.51 1.51 0 00.32-1.24L142 215.23h-2.64zM125.19 123c-.6 2.67-14.61 115-14.61 115h2.53l18-119.9z" fill="#231f20"/><path d="M113.11 238.47h-2.53a.52.52 0 01-.38-.17.51.51 0 01-.12-.39c.57-4.59 14-112.35 14.62-115a.51.51 0 01.17-.28l5.88-4.92a.5.5 0 01.57-.06.51.51 0 01.25.51l-18 119.9a.51.51 0 01-.46.41zm-2-1h1.53l17.7-118.17-4.73 4c-.84 5.14-13.4 105.7-14.46 114.17zm38.03-83.94l.8 73.39h1.99l6.79-79.23-9.58 5.84z" fill="#231f20"/><path d="M151.93 227.42h-2a.49.49 0 01-.5-.49l-.8-73.39a.5.5 0 01.24-.43l9.58-5.84a.51.51 0 01.53 0 .49.49 0 01.23.47L152.43 227a.5.5 0 01-.5.42zm-1.5-1h1l6.67-77.79-8.5 5.18zM286.35 88.65l11.45 156.1h2.15l-8.86-169.49-4.74 13.39z" fill="#231f20"/><path d="M300 245.25h-2.2a.49.49 0 01-.49-.46L285.85 88.68a.36.36 0 010-.2l4.74-13.39a.5.5 0 011 .14l8.86 169.49a.5.5 0 01-.13.37.52.52 0 01-.32.16zm-1.68-1h1.16L290.72 77.8l-3.87 10.92zm-37.47-79.84l1.53 89.63h2.38l1-103.5-4.91 13.87z" fill="#231f20"/><path d="M264.76 254.54h-2.38a.51.51 0 01-.5-.49l-1.53-89.63a.57.57 0 010-.18l4.91-13.86a.5.5 0 011 .17l-1 103.5a.49.49 0 01-.5.49zm-1.88-1h1.39l1-100-3.88 11z" fill="#231f20"/><path fill="#fff" d="M147.13 28.88L99.72 150.75l156.18 27.63 44.38-125.29-153.15-24.21z"/><path d="M255.9 178.88h-.09L99.63 151.24a.49.49 0 01-.37-.67L146.67 28.7a.51.51 0 01.54-.32L300.36 52.6a.5.5 0 01.35.24.51.51 0 010 .42l-44.34 125.29a.5.5 0 01-.47.33zm-155.49-28.52l155.16 27.46 44-124.33-152.12-24.06z" fill="#231f20"/><path d="M208.42 131.81h-.11l-67-14.67a.52.52 0 01-.33-.25.51.51 0 010-.42l25.05-66a.49.49 0 01.55-.32l56.12 9.48a.51.51 0 01.35.25.47.47 0 010 .43l-2.24 5.51 11 1.89 2.73-6.21a.5.5 0 01.54-.29l34.84 6a.47.47 0 01.35.24.52.52 0 010 .42l-14.65 39.61a.5.5 0 01-.56.32l-35.15-7-11.05 30.69a.5.5 0 01-.44.32zm-66.37-15.54l66 14.46 11-30.68a.5.5 0 01.57-.32l35.15 7L269.15 68l-33.87-5.8-2.72 6.21a.51.51 0 01-.55.29l-12-2.06a.51.51 0 01-.35-.25.47.47 0 010-.43l2.24-5.51-55.1-9.31z" fill="#d1d3d4"/><path d="M250 168.57h-.09l-137.77-25.16a.47.47 0 01-.35-.24.54.54 0 010-.43L152.61 37a.51.51 0 01.54-.32l135.16 21a.52.52 0 01.36.23.54.54 0 010 .43l-38.17 109.9a.52.52 0 01-.5.33zm-137.11-26l136.78 25 37.9-108.99-134.18-20.89z" fill="#d1d3d4"/><path fill="#fff" d="M217.52 167.51l-2.55 7.32-75.8-13.26 2.45-7.58 75.9 13.52z"/><path d="M215 175.33h-.09l-75.8-13.26a.48.48 0 01-.34-.23.53.53 0 01-.05-.41l2.46-7.58a.49.49 0 01.56-.34L217.61 167a.47.47 0 01.34.24.46.46 0 010 .41l-2.51 7.35a.49.49 0 01-.44.33zm-75.15-14.15l74.82 13.08 2.22-6.36L142 154.56z" fill="#231f20"/><path d="M130.92 216h3.66v32.29a1.83 1.83 0 01-1.83 1.83 1.83 1.83 0 01-1.83-1.83V216z" fill="#fff"/><path d="M132.75 250.65a2.34 2.34 0 01-2.33-2.33V216a.5.5 0 01.5-.5h3.66a.5.5 0 01.5.5v32.29a2.33 2.33 0 01-2.33 2.36zm-1.33-34.12v31.79a1.33 1.33 0 002.66 0v-31.79z" fill="#231f20"/><path d="M145.65 202.36a58.46 58.46 0 00-25.79 0h-12.12V211c0 5.55 11.2 10 25 10s25-4.49 25-10v-8.6z" fill="#231f20"/><path d="M132.75 221.5c-14.31 0-25.51-4.63-25.51-10.54v-8.6a.5.5 0 01.5-.5h12.06a59 59 0 0125.9 0h12.07a.5.5 0 01.5.5V211c0 5.87-11.21 10.5-25.52 10.5zm-24.51-18.64V211c0 5.18 11.22 9.54 24.51 9.54s24.52-4.36 24.52-9.54v-8.1h-11.74a58.18 58.18 0 00-25.55 0h-.12z" fill="#231f20"/><ellipse cx="132.75" cy="202.36" rx="25.02" ry="10.04" fill="#fff"/><path d="M132.75 212.9c-14.31 0-25.51-4.63-25.51-10.54s11.2-10.55 25.51-10.55 25.52 4.63 25.52 10.55-11.21 10.54-25.52 10.54zm0-20.09c-13.29 0-24.51 4.37-24.51 9.55s11.22 9.54 24.51 9.54 24.52-4.37 24.52-9.54-11.27-9.55-24.52-9.55zm24.72 46.78l-6.82 10s12.55 7.87 14.38 8.34 18.35.28 17.59-1.41-16.23-7.63-16.23-7.63l-.47-4.1z" fill="#231f20"/><path d="M170 258.58a38.21 38.21 0 01-5.12-.21c-1.85-.47-13.22-7.59-14.51-8.39a.47.47 0 01-.22-.33.51.51 0 01.07-.38l6.82-10a.5.5 0 01.67-.15l8.45 5.16a.52.52 0 01.24.37l.43 3.8c4 1.53 15.48 6.09 16.23 7.79a.74.74 0 01-.13.82c-.93 1.18-7.93 1.52-12.93 1.52zm-18.66-9.18c3.76 2.35 12.41 7.65 13.79 8 1.84.47 15.22.19 16.92-.85-1-1.12-8.71-4.49-15.86-7.23a.52.52 0 01-.32-.41l-.44-3.86-7.83-4.79z" fill="#231f20"/><path d="M172.58 238.27c-.19.29-6.66 6.48-6.66 6.48l-8.45-5.16 5.53-9.39z" fill="#fff"/><path d="M165.92 245.25a.48.48 0 01-.26-.07l-8.45-5.18a.5.5 0 01-.17-.68l5.54-9.38a.47.47 0 01.35-.24.49.49 0 01.4.11l9.57 8.07a.5.5 0 01.1.66c-.19.29-4.3 4.23-6.74 6.56a.49.49 0 01-.34.15zm-7.77-5.83l7.7 4.7c2.13-2 5-4.82 6-5.81l-8.71-7.31zm36.69 21l.56 10.7 31.72-5.35s-8.35-5.72-21.86-7.13z" fill="#231f20"/><path d="M195.4 271.62a.51.51 0 01-.31-.11.52.52 0 01-.19-.36l-.56-10.7a.5.5 0 01.41-.52l10.42-1.78h.14c13.48 1.41 22 7.16 22.1 7.22a.49.49 0 01.2.52.5.5 0 01-.4.39l-31.73 5.35zm0-10.78l.51 9.7 29.85-5a53.31 53.31 0 00-20.45-6.36z" fill="#231f20"/><path d="M194.27 251.6c0 .28.57 8.82.57 8.82l10.42-1.78.47-8.54z" fill="#fff"/><path d="M194.84 260.92a.5.5 0 01-.31-.1.52.52 0 01-.19-.36c-.1-1.43-.57-8.58-.57-8.86a.5.5 0 01.44-.49l11.45-1.51a.48.48 0 01.4.13.5.5 0 01.16.4l-.47 8.54a.49.49 0 01-.41.46l-10.42 1.79zm0-8.88c.07 1.27.31 5 .5 7.8l9.48-1.63.41-7.54zM154.2 175.2s46.93-6 51.62 4.7S171 242.58 171 242.58l-12.62-9.49 17-35.92S135.8 203 133 193.79s20.65-16.9 20.65-16.9z" fill="#231f20"/><path d="M171 243.08a.49.49 0 01-.3-.1l-12.62-9.49a.51.51 0 01-.16-.62l16.64-35.08c-6.15.84-39.35 5-42.05-3.86-2.8-9.15 18.09-16.54 20.73-17.43l.49-1.45a.48.48 0 01.41-.34c1.93-.25 47.35-5.93 52.14 5S173 240.75 171.4 242.89a.53.53 0 01-.4.19zm-12-10.15l11.9 8.95c1.73-2.29 10.57-14.13 18.85-26.9 15.25-23.51 16.9-31.98 15.61-34.88-1.83-4.18-11.2-6.28-27.1-6.06-11 .15-21.74 1.39-23.69 1.62l-.46 1.39a.51.51 0 01-.32.32c-.23.07-23 7.65-20.32 16.27 2.2 7.21 31 4.63 41.87 3a.51.51 0 01.47.2.49.49 0 01.05.51zm-5.36-56z" fill="#231f20"/><path d="M119.38 181.87c0 1.12-5.07 15.48 7.6 22.52s64.2 4.23 64.2 4.23l1 45.42 14.21-.94s8.07-44.11 1.5-55-66.83-20.1-66.83-20.1z" fill="#231f20"/><path d="M192.17 254.54a.49.49 0 01-.5-.49l-1-44.91c-5.73.3-51.83 2.42-63.95-4.31-7.64-4.24-10.34-11.7-8-22.16a7.59 7.59 0 00.16-.8.51.51 0 01.41-.49l21.71-3.85h.17c2.46.37 60.56 9.35 67.17 20.32s-1.1 53.53-1.44 55.34a.49.49 0 01-.45.41l-14.22.94zm-1-46.42a.5.5 0 01.34.13.52.52 0 01.16.36l1 44.9 13.3-.88c.77-4.35 7.57-44.2 1.5-54.27-6.27-10.38-63.86-19.44-66.39-19.83l-21.25 3.77-.12.58c-2.22 10 .32 17.07 7.53 21.08 12.39 6.88 63.41 4.18 63.92 4.16zM165.54 98.49c-1.59 0-2.93-1.72-3-3.89a4.81 4.81 0 01.71-2.79 2.62 2.62 0 012.09-1.31c1.63-.06 3 1.68 3.1 3.88s-1.17 4-2.8 4.11zm-.14-7a1.62 1.62 0 00-1.29.86 3.76 3.76 0 00-.55 2.2c.06 1.63 1 3 2.06 2.93s1.9-1.45 1.84-3.07c-.1-1.59-1.02-2.92-2.06-2.92z" fill="#231f20"/><path d="M147.39 112.83a12 12 0 01-6 .09c-1.19-.27-2.63-1.19-2.23-2.35l1.54-.72a24.42 24.42 0 01-6.89-11.93 16.51 16.51 0 012.61-13.3 8 8 0 015.46-3.45l-3.74-.3a16.45 16.45 0 0113.12-5.18l-2.47-1.53a14.31 14.31 0 0115.44 4.26 6.09 6.09 0 011.55 3.2c.2 2-1.66 3.3-3.07 4.42 1.51 1.84 2.22 2.28 2 4.66a19.13 19.13 0 01-2.11 6.3 47.1 47.1 0 01-3.95 5.84c-3.15 4.37-6.55 8.66-11.26 9.99z" fill="#fff"/><path d="M144.3 113.76a13.41 13.41 0 01-3-.36 3.92 3.92 0 01-2.46-1.59 1.68 1.68 0 01-.13-1.4.5.5 0 01.26-.29l.9-.42A24.59 24.59 0 01133.3 98a17 17 0 012.7-13.68 10.41 10.41 0 013.22-2.86l-1.15-.09a.52.52 0 01-.43-.32.5.5 0 01.1-.52 17.11 17.11 0 0111.69-5.37l-.94-.58a.49.49 0 01-.23-.47.5.5 0 01.33-.42 14.88 14.88 0 0116 4.41 6.58 6.58 0 011.66 3.47c.21 2.12-1.48 3.46-2.86 4.55l.21.25c1.16 1.35 1.79 2.1 1.57 4.37a19.89 19.89 0 01-2.17 6.51 34.44 34.44 0 01-3.07 4.66l-.92 1.24c-3.17 4.39-6.67 8.79-11.53 10.16a11.49 11.49 0 01-3.18.45zm3.09-.93zm-7.81-1.91a.71.71 0 00.09.4 2.91 2.91 0 001.81 1.11 11.35 11.35 0 005.77-.08c4.55-1.29 7.92-5.54 11-9.78l.93-1.26a33.48 33.48 0 003-4.51 19 19 0 002-6.15c.18-1.86-.24-2.34-1.34-3.63l-.55-.66a.46.46 0 01-.11-.37.52.52 0 01.18-.34l.37-.29c1.32-1 2.68-2.1 2.52-3.69a5.63 5.63 0 00-1.43-2.93A13.9 13.9 0 00150 74.31l1.54 1a.51.51 0 01.21.58.5.5 0 01-.51.34 16.1 16.1 0 00-12 4.26l2.67.22a.49.49 0 01.46.5.48.48 0 01-.45.49c-2.45.21-4.25 2.13-5.11 3.26a16 16 0 00-2.52 12.89A23.88 23.88 0 00141 109.5a.5.5 0 01-.14.81z" fill="#231f20"/><path d="M164.54 97.81s4 5.68 3.25 6.91-3.41.5-3.41.5" fill="#fff"/><path d="M166 105.94a7.12 7.12 0 01-1.72-.23.5.5 0 01.26-1c.59.16 2.4.45 2.86-.29.3-.52-1.21-3.49-3.23-6.36a.5.5 0 11.81-.57c1.26 1.79 4.11 6.1 3.27 7.46a2.51 2.51 0 01-2.25.99z" fill="#231f20"/><path d="M163 85.08c2.5 1.92 2.44 11.24 2.5 14q.14 5.77 0 11.56c-.06 2.44-6.38 2.68-7.52 2l-1.21 9.88s-.52.65-5.69-1.55-5.25-3.42-5.25-3.42l.08-11.14s4.18-.1 6.5-5.15 2-12.69 2-12.69 6.12-5.37 8.59-3.49z" fill="#fff"/><path d="M156.31 123.07a17.15 17.15 0 01-5.46-1.67c-5.06-2.17-5.53-3.49-5.55-3.84l.08-11.19a.49.49 0 01.49-.49c.16 0 3.9-.17 6.06-4.86 2.24-4.88 1.94-12.38 1.94-12.46a.51.51 0 01.17-.4c.66-.57 6.55-5.54 9.23-3.48 2.21 1.69 2.6 7.84 2.69 13.63V99c.09 3.85.09 7.75 0 11.59a2.25 2.25 0 01-1.38 1.91 10.85 10.85 0 01-6.22.74l-1.14 9.28a.49.49 0 01-.1.25 1 1 0 01-.81.3zm-10-5.62c.09.18.79 1.25 4.95 3 3.29 1.4 4.59 1.6 5 1.6l1.17-9.53a.49.49 0 01.27-.39.48.48 0 01.48 0 9.34 9.34 0 005.9-.52c.56-.3.85-.66.86-1.06.09-3.82.09-7.7 0-11.53v-.75c-.05-3.07-.18-11.22-2.29-12.85-1.67-1.27-6.11 1.89-7.79 3.29 0 1.38.09 8-2 12.68-2 4.3-5.22 5.2-6.45 5.39z" fill="#231f20"/><path d="M165.29 107.75s-1.5.47-5.24-2.73" fill="#fff"/><path d="M165 108.28c-.73 0-2.39-.38-5.3-2.88a.5.5 0 01.65-.76c3.36 2.88 4.77 2.63 4.78 2.62a.52.52 0 01.6.36.49.49 0 01-.32.6 1.35 1.35 0 01-.41.06zm-7 4.33s-3.31-.92-4.9-3.12c0 0-1.75 7.34 4.18 9z" fill="#231f20"/><path d="M157.23 119h-.13c-6.32-1.74-4.56-9.5-4.54-9.58a.49.49 0 01.44-.42.47.47 0 01.5.19 9.72 9.72 0 004.64 2.93.51.51 0 01.36.55l-.72 5.86a.51.51 0 01-.22.35.46.46 0 01-.33.12zm-3.86-8.35c-.21 1.88-.19 5.83 3.44 7.19l.59-4.84a11.42 11.42 0 01-4.03-2.39z" fill="#231f20"/><ellipse cx="162.42" cy="93.68" rx="1.38" ry=".54" transform="rotate(-89.31 162.415 93.685)" fill="#231f20"/><path d="M153.31 98.57a.5.5 0 01-.13-1l14.62-3.67a.5.5 0 01.6.37.49.49 0 01-.36.6l-14.61 3.67z" fill="#231f20"/><path d="M157.23 100.5a5.14 5.14 0 00-1.16-2.61 7.43 7.43 0 00-1.44-1.71 2.53 2.53 0 00-2.1-.57 2.32 2.32 0 00-1.47 1.24 4.38 4.38 0 00-.43 1.92 8.26 8.26 0 004 7.22l-.22-.22" fill="#fff"/><path d="M154.66 106.49a.47.47 0 01-.25-.07 8.82 8.82 0 01-4.28-7.66 4.83 4.83 0 01.48-2.14 2.84 2.84 0 011.81-1.5 3 3 0 012.51.67 7.74 7.74 0 011.56 1.81 5.65 5.65 0 011.24 2.87.51.51 0 01-.48.53.5.5 0 01-.52-.48 5 5 0 00-1.07-2.35 7.21 7.21 0 00-1.34-1.6 2 2 0 00-1.67-.47 1.8 1.8 0 00-1.15 1 3.9 3.9 0 00-.37 1.71 7.83 7.83 0 003.33 6.48.46.46 0 01.34.15l.22.22a.5.5 0 010 .65.51.51 0 01-.36.18z" fill="#231f20"/><path d="M220.07 113.45a24.77 24.77 0 00-3.73.84c-.49.32-1.37.95-1.37.95a3.33 3.33 0 001.27.41c.46 0 3.09-.51 3.09-.51" fill="#fff"/><path d="M216.19 116.15a3.83 3.83 0 01-1.46-.46.52.52 0 01-.26-.41.5.5 0 01.21-.44l1.39-1A19.79 19.79 0 01220 113a.51.51 0 01.58.41.5.5 0 01-.42.57 21.72 21.72 0 00-3.54.78c-.17.11-.39.25-.6.4h.2c.31 0 2-.32 3-.5a.5.5 0 11.17 1c-.27.05-2.67.48-3.14.51z" fill="#231f20"/><path d="M214.81 123.59l3.68-4a19.53 19.53 0 01.42-4.71c.49-1.41 1.48-3.1 2-2.75s0 3.38.85 3.8 2.39-.91 2.39-1.83-1.55-2-1.34-2.74.57-1.76 2.26-.85 4 2.6 3.94 5.11-7.56 13.66-7.56 13.66z" fill="#fff"/><path d="M221.42 129.83a.52.52 0 01-.33-.12l-6.61-5.71a.47.47 0 01-.17-.35.51.51 0 01.13-.37l3.55-3.79a18.1 18.1 0 01.45-4.69c.33-1 1.19-2.81 2.05-3.09a.75.75 0 01.68.11c.41.29.44.93.49 1.91 0 .5.07 1.69.29 1.85a.91.91 0 00.74-.19 1.89 1.89 0 00.93-1.2 2.55 2.55 0 00-.61-1.07c-.43-.57-.88-1.17-.71-1.8a2 2 0 011-1.47 2.23 2.23 0 012 .31c2.81 1.53 4.27 3.45 4.21 5.56-.07 2.57-6.87 12.78-7.64 13.93a.51.51 0 01-.35.22zm-5.89-6.28l5.79 5c3-4.46 7.11-11.26 7.16-12.93.06-2.16-2-3.72-3.68-4.65-.67-.36-1-.33-1.1-.27s-.33.44-.43.81c-.05.16.32.65.54.94a3 3 0 01.81 1.67 2.79 2.79 0 01-1.41 2 1.74 1.74 0 01-1.71.23c-.74-.37-.79-1.55-.84-2.7 0-.28 0-.67-.07-.93a7.82 7.82 0 00-1.21 2.29 19.54 19.54 0 00-.39 4.54.5.5 0 01-.14.35z" fill="#231f20"/><path d="M163.75 125.86c.2 0 3-9.47 3.31-10.29a18.85 18.85 0 012.18-4.6 5.29 5.29 0 011.61-1.55.49.49 0 01.42-.07.41.41 0 01.19.27 1.71 1.71 0 01-.1 1.33c.43-.8.86-2.35 2.1-2.2 1.47.18 1.1 1.88.57 2.71 0 0 1.19-2.46 2.32-1.63a1.3 1.3 0 01.35 1.88s.78-1.9 1.9-1 .49 2.25 0 3.16-4.36 5.78-4.36 5.78 3.45-2.89 4.15-2.19-5.22 7-6.66 10.14z" fill="#fff"/><path d="M171.73 128.05h-.1l-8-1.69a.5.5 0 01-.39-.59.55.55 0 01.11-.23c.3-.62 1.65-5 2.39-7.44.41-1.37.74-2.44.83-2.69a19.24 19.24 0 012.24-4.72 5.5 5.5 0 011.78-1.69.94.94 0 01.87-.09.74.74 0 01.28.22 1.82 1.82 0 011.76-.86 1.56 1.56 0 011.31.87 2.06 2.06 0 01.12.35 1.91 1.91 0 01.59-.29 1.35 1.35 0 011.11.23 2.17 2.17 0 01.64.74 1.71 1.71 0 01.39-.17 1.35 1.35 0 011.22.27c1.56 1.17.49 3.15.14 3.8a37.12 37.12 0 01-2.32 3.18c.86-.44 1.61-.6 2-.18.65.65-.2 1.83-2.75 5.16a36.91 36.91 0 00-3.8 5.54.5.5 0 01-.42.28zm-7.28-2.55l7 1.48a42.5 42.5 0 013.74-5.37 31.48 31.48 0 002.69-3.83 13.57 13.57 0 00-3.33 2.2.49.49 0 01-.67 0 .48.48 0 010-.66c1.07-1.35 3.92-5 4.31-5.7.71-1.32.75-2.07.14-2.53-.2-.15-.31-.12-.35-.11a1.29 1.29 0 00-.6.6 1.76 1.76 0 01-.25.45.48.48 0 01-.64.14.49.49 0 01-.22-.62 2.63 2.63 0 01.2-.41.79.79 0 00-.39-.88.27.27 0 00-.27-.06c-.38.09-.84.7-1.12 1.17q-.1.21-.21.39a.51.51 0 01-.67.16.49.49 0 01-.2-.65s.09-.18.19-.36a1.81 1.81 0 00.15-1.32c0-.11-.16-.27-.52-.31-.6-.07-1 .54-1.35 1.42-.09.19-.17.36-.25.51a.5.5 0 01-.68.21.51.51 0 01-.2-.68 1.18 1.18 0 00.11-.8 4.51 4.51 0 00-1.38 1.35 17.92 17.92 0 00-2.12 4.48c-.09.25-.41 1.3-.82 2.64-1.29 4.09-1.91 6.11-2.29 7.09z" fill="#231f20"/><path d="M168.36 121s-26.17-12.86-37.72 1.5-16 59.13-12.67 64.76c0 0 28.15 2.07 41.39-13.7l5.89-28.82s24.24 21.06 38.32 10.11a69.39 69.39 0 0020-25.31l-8.45-7.32s-17.74 16.89-24.78 14.64S168.36 121 168.36 121z" fill="#68e1fd"/><path d="M201.13 192.22a.57.57 0 01-.18 0c-7-2.58-45.61-11.16-46-11.25a.5.5 0 01-.38-.6.51.51 0 01.6-.38c1.59.36 39.05 8.68 46.13 11.29a.5.5 0 01.29.65.48.48 0 01-.46.29zm-33.51 17.45a.5.5 0 010-1l23.56-.55a.5.5 0 01.51.48.51.51 0 01-.49.52l-23.56.55zm66.21-98.4c-1.79 0-12.69 2.19-12.69 2.19l.09 1.33s11.75-1.87 12.78-2.1 1.62-1.42-.18-1.42z" fill="#fff"/><path d="M221.23 115.29a.51.51 0 01-.31-.11.52.52 0 01-.19-.36l-.08-1.33a.49.49 0 01.4-.52c.44-.09 11-2.2 12.78-2.2 1.39 0 1.62.67 1.65 1 .07.63-.53 1.27-1.37 1.46-1 .23-12.32 2-12.8 2.1zm.44-1.43v.35c2.32-.37 11.33-1.81 12.21-2a.9.9 0 00.57-.37 2.51 2.51 0 00-.64-.07c-1.31 0-8.27 1.32-12.14 2.09zm-42.27 40.63h-.16c-11.35-3.74-24-18.12-24.56-18.73a.51.51 0 010-.71.49.49 0 01.7.05c.13.15 13 14.78 24.13 18.44a.49.49 0 01.31.63.48.48 0 01-.42.32zm83.91 46.43l30.6-9.2.34 4.6-32.7 9.21 1.76-4.61z" fill="#231f20"/><path d="M261.55 206a.49.49 0 01-.37-.16.53.53 0 01-.1-.51l1.76-4.62a.5.5 0 01.32-.3l30.61-9.2a.54.54 0 01.43.07.51.51 0 01.21.38l.34 4.6a.5.5 0 01-.36.51l-32.7 9.23zm2.14-4.7l-1.32 3.45 31.35-8.75-.26-3.57z" fill="#231f20"/><path d="M251.8 111.18h-.1l-15.39-3.29a.49.49 0 01-.36-.67l1.35-3.38a.5.5 0 01.93.37L237.1 107l14.39 3.07 1.35-3.4a.5.5 0 01.65-.28.49.49 0 01.28.65l-1.5 3.79a.51.51 0 01-.47.35zm-32.18-10.46a.47.47 0 01-.17 0 .51.51 0 01-.31-.64L223 89.29l-5.58-9.08a.5.5 0 01.85-.53L224 89a.5.5 0 01.05.43l-3.94 11a.51.51 0 01-.49.29zm7.74-20.28a.63.63 0 01-.19 0 .51.51 0 01-.28-.65L231.63 68a.52.52 0 01.66-.27.49.49 0 01.27.65l-4.74 11.73a.48.48 0 01-.46.33zM165.9 68.71a.49.49 0 01-.49-.45l-1.24-12.66a.5.5 0 011-.09l1.23 12.65a.5.5 0 01-.45.55zM181.88 126a.57.57 0 01-.18 0 .51.51 0 01-.29-.65l12.72-32.48a.5.5 0 01.93.36l-12.72 32.48a.48.48 0 01-.46.29zM249 146.19h-.1l-22.38-4.37a.5.5 0 01-.4-.58.51.51 0 01.59-.4l22.38 4.37a.49.49 0 01.4.58.51.51 0 01-.49.4zm-2.22 5.81h-.09l-22.39-4.37a.48.48 0 01-.39-.58.5.5 0 01.58-.4l22.39 4.35a.48.48 0 01.39.58.49.49 0 01-.49.42zm-3.25 5.49h-.1l-22.38-4.36a.51.51 0 01-.4-.59.5.5 0 01.59-.39l22.38 4.36a.5.5 0 01-.09 1zm-43.53-83h-.08l-17.27-3a.47.47 0 01-.35-.24.5.5 0 010-.43l6.31-16.62a.5.5 0 01.64-.29.49.49 0 01.29.64l-6.09 16.06 16.27 2.79 6.31-16a.52.52 0 01.65-.29.5.5 0 01.28.65l-6.45 16.41a.51.51 0 01-.51.32zm-8.87-24.55H191l-21.65-3.84a.5.5 0 01.18-1l21.69 3.9a.5.5 0 01-.09 1z" fill="#d1d3d4"/><path d="M250.37 106.8a.5.5 0 01-.39-.18l-9.45-11.53a.5.5 0 01.07-.7.5.5 0 01.71.07l9.44 11.54a.5.5 0 01-.07.71.51.51 0 01-.31.09z" fill="#d1d3d4"/></g></svg>