<svg xmlns="http://www.w3.org/2000/svg" viewBox="0 0 400 300" width="406" height="306" class="illustration styles_illustrationTablet__1DWOa"><g data-name="#361_factory_worker_outline"><path d="M181.79 170.85h38.61a34 34 0 0134 34v39.85H147.77v-39.84a34 34 0 0134.02-34.01z" fill="#68e1fd"/><path d="M254.42 245.7H147.77a1 1 0 01-1-1v-39.84a35.05 35.05 0 0135-35h38.63a35.05 35.05 0 0135 35v39.84a1 1 0 01-.98 1zm-105.65-2h104.65v-38.84a33.05 33.05 0 00-33-33h-38.63a33.05 33.05 0 00-33 33z" fill="#093f68"/><path d="M168.58 245.7a1 1 0 01-1-1v-52.48a1 1 0 012 0v52.48a1 1 0 01-1 1zm65.03 0a1 1 0 01-1-1v-52.48a1 1 0 012 0v52.48a1 1 0 01-1 1z" fill="#093f68"/><path fill="#ffc9b0" d="M193.2 155.07h15.78v15.78H193.2z"/><path d="M209 171.85h-15.8a1 1 0 01-1-1v-15.78a1 1 0 011-1H209a1 1 0 011 1v15.78a1 1 0 01-1 1zm-14.78-2H208v-13.78h-13.8zm44.31-53.26c2.15-2.81 2.74-7.13 3.38-10.45a99.82 99.82 0 002.17-16A33.16 33.16 0 00241 74.39 10.94 10.94 0 00242 58c1.34 1.33-3.74 5.45-4.61 5.86-2.9 1.34-6.41 1.18-9.44.44-5.49-1.35-10.34-4.52-15.57-6.66a51.44 51.44 0 00-27.85-2.91 34.26 34.26 0 00-12.67 5.15c-1.68 1.06-3.13 1.61-4.19 3.38-.66 1.11-3.1 7-2 8.17-3.91-4-8.21.07-8.44 4.47a78.64 78.64 0 00.46 14.39c.41 3.12 1 6.2 1.68 9.28l1.5 7.25c.75 3.59 1.05 8.81 5 9.94s8.28.58 12.34.64l21.26.32c9 0 18 .27 26.94.41 3.36 0 9.51 1.46 11.75-1.16z" fill="#093f68"/><path d="M233.06 119.53c-1.34 0-2.71-.12-4-.24-1-.08-1.87-.17-2.61-.18-3 0-6-.11-9-.17-5.88-.12-12-.24-17.93-.24l-21.28-.32h-3.25a31.35 31.35 0 01-9.35-.72c-4-1.14-4.79-5.56-5.43-9.12-.1-.55-.19-1.08-.3-1.58l-1.5-7.25c-.63-3-1.28-6.2-1.69-9.35a80 80 0 01-.47-14.57c.16-3 2-5.79 4.37-6.71a4.79 4.79 0 013.88.19 26.06 26.06 0 012.31-6.59 8.77 8.77 0 013.53-3.11c.32-.19.65-.38 1-.59a35 35 0 0113-5.29 52.66 52.66 0 0128.41 3c1.93.79 3.82 1.73 5.65 2.63a48 48 0 009.78 4 13.56 13.56 0 008.77-.37c.84-.4 4.13-3.33 4.26-4.33a1 1 0 011.49-1.33 11.94 11.94 0 01-.48 17.39 34.59 34.59 0 012.82 15.48 99.35 99.35 0 01-2.19 16.19l-.2 1.1c-.59 3.15-1.31 7.07-3.36 9.76l-.33.41c-1.28 1.52-3.53 1.91-5.9 1.91zm-33.48-2.83c6 0 12 .12 17.94.24 3 .06 6 .13 9 .17.81 0 1.76.1 2.76.19 3 .28 6.82.62 8.21-1 .09-.1.17-.21.26-.32 1.76-2.31 2.41-5.82 3-8.91l.21-1.12a98.86 98.86 0 002.15-15.86 32 32 0 00-3-15.25 1 1 0 01.28-1.24 9.94 9.94 0 002.22-13.31 17.45 17.45 0 01-4.79 4.45c-3.47 1.61-7.4 1.16-10.1.51a50.74 50.74 0 01-10.19-4.14c-1.8-.88-3.66-1.8-5.52-2.56a50.44 50.44 0 00-27.29-2.85 33 33 0 00-12.32 5c-.35.22-.7.43-1 .62a6.92 6.92 0 00-2.82 2.42c-.83 1.39-2.49 6.14-2.08 7a1 1 0 010 1.38 1 1 0 01-1.44 0 3.33 3.33 0 00-3.7-1.12c-1.64.62-3 2.75-3.08 4.94a77.87 77.87 0 00.45 14.21c.4 3.08 1.05 6.19 1.67 9.21l1.5 7.24c.11.52.21 1.07.31 1.64.56 3.17 1.2 6.75 4 7.55a29.6 29.6 0 008.75.64c1.1 0 2.23-.06 3.34 0l21.26.32z" fill="#093f68"/><ellipse cx="168.58" cy="125.38" rx="11.16" ry="15.3" fill="#ffc9b0"/><path d="M168.58 141.68c-6.71 0-12.16-7.31-12.16-16.3s5.45-16.31 12.16-16.31 12.15 7.32 12.15 16.31-5.45 16.3-12.15 16.3zm0-30.61c-5.6 0-10.16 6.42-10.16 14.31s4.56 14.3 10.16 14.3 10.15-6.42 10.15-14.3-4.55-14.31-10.15-14.31z" fill="#093f68"/><ellipse cx="233.61" cy="125.38" rx="11.16" ry="15.3" fill="#ffc9b0"/><path d="M233.61 141.68c-6.7 0-12.15-7.31-12.15-16.3s5.45-16.31 12.15-16.31 12.16 7.32 12.16 16.31-5.46 16.3-12.16 16.3zm0-30.61c-5.6 0-10.15 6.42-10.15 14.31s4.55 14.3 10.15 14.3 10.16-6.42 10.16-14.3-4.56-14.31-10.16-14.31z" fill="#093f68"/><path d="M223 83.86a12.71 12.71 0 0112.72 12.71V131a33.1 33.1 0 01-33.1 33.11h-3A33.11 33.11 0 01166.47 131V96.57a12.71 12.71 0 0112.71-12.71z" fill="#ffc9b0"/><path d="M202.62 165.08h-3A34.15 34.15 0 01165.47 131V96.57a13.73 13.73 0 0113.71-13.71H223a13.73 13.73 0 0113.72 13.71V131a34.14 34.14 0 01-34.1 34.08zm-23.44-80.22a11.72 11.72 0 00-11.71 11.71V131a32.15 32.15 0 0032.11 32.11h3A32.14 32.14 0 00234.72 131V96.57A11.73 11.73 0 00223 84.86z" fill="#093f68"/><path d="M189.74 99.56h-15.27a1.59 1.59 0 010-3.18h15.27a1.59 1.59 0 110 3.18zm37.97 0h-15.26a1.59 1.59 0 110-3.18h15.26a1.59 1.59 0 010 3.18z" fill="#093f68"/><rect x="156.57" y="98.51" width="89.46" height="10.21" rx="3.78" fill="#68e1fd"/><path d="M242.25 109.72h-81.89a4.79 4.79 0 01-4.79-4.78v-2.65a4.79 4.79 0 014.79-4.78h81.89a4.79 4.79 0 014.78 4.78v2.65a4.79 4.79 0 01-4.78 4.78zm-81.89-10.21a2.79 2.79 0 00-2.79 2.78v2.65a2.79 2.79 0 002.79 2.78h81.89a2.78 2.78 0 002.78-2.78v-2.65a2.78 2.78 0 00-2.78-2.78z" fill="#093f68"/><path d="M218.93 155.07h-35.25a9.22 9.22 0 01-9.1-7.71l-9.24-55.43a9.6 9.6 0 019.57-10.28h52.79a9.6 9.6 0 019.57 10.28L228 147.36a9.22 9.22 0 01-9.07 7.71z" fill="#68e1fd"/><path d="M218.93 156.07h-35.25a10.21 10.21 0 01-10.09-8.55l-9.24-55.42a10.59 10.59 0 0110.56-11.45h52.79A10.6 10.6 0 01238.27 92L229 147.52a10.21 10.21 0 01-10.07 8.55zm-44-73.42a8.59 8.59 0 00-8.58 9.21l9.23 55.33a8.21 8.21 0 008.12 6.88h35.25a8.19 8.19 0 008.11-6.88l9.25-55.42a8.62 8.62 0 00-8.59-9.12z" fill="#093f68"/><rect x="175.78" y="98.51" width="51.04" height="20.42" rx="8.85" fill="#fff"/><path d="M218 119.93h-33.37a9.86 9.86 0 01-9.85-9.85v-2.72a9.86 9.86 0 019.85-9.85H218a9.85 9.85 0 019.84 9.85v2.72a9.85 9.85 0 01-9.84 9.85zm-33.37-20.42a7.86 7.86 0 00-7.85 7.85v2.72a7.86 7.86 0 007.85 7.85H218a7.85 7.85 0 007.84-7.85v-2.72a7.85 7.85 0 00-7.84-7.85z" fill="#093f68"/><circle cx="188.73" cy="111.14" r="3.01" fill="#093f68"/><circle cx="213.88" cy="111.14" r="3.01" fill="#093f68"/><path d="M191.74 106.29h-9.28a1.59 1.59 0 010-3.18h9.28a1.59 1.59 0 110 3.18zm28.41 0h-9.28a1.59 1.59 0 010-3.18h9.28a1.59 1.59 0 010 3.18zm-16.9 13.24a1 1 0 01-1-.79 57.89 57.89 0 00-1.9-5.77 1 1 0 111.87-.72 58 58 0 012 6.08 1 1 0 01-.77 1.18.71.71 0 01-.2.02z" fill="#093f68"/><path fill="#fff" d="M168.58 202.4h65.04v42.3h-65.04z"/><path d="M233.61 245.7h-65a1 1 0 01-1-1v-42.3a1 1 0 011-1h65a1 1 0 011 1v42.3a1 1 0 01-1 1zm-64-2h63v-40.3h-63z" fill="#093f68"/><path d="M142.88 210.07l6-1.89-11.79-33.62c-2.6-6.21-5.72-7-13.1-8.4a56 56 0 00-9.59-.88l-.33 4.95s14.41-.2 17 6.22z" fill="#fff"/><path d="M142.88 211.07a1 1 0 01-.94-.67l-11.78-33.62c-1.89-4.7-12.21-5.61-16-5.55a1.13 1.13 0 01-.74-.31 1 1 0 01-.27-.76l.33-4.95a1 1 0 011-.93 56.7 56.7 0 019.78.9c7.58 1.41 11 2.32 13.85 9l11.8 33.67a1 1 0 01-.64 1.28l-6 1.89a1 1 0 01-.39.05zm-27.7-41.83c3.53.1 14.46.88 16.85 6.84l11.48 32.74 4.12-1.29-11.44-32.64c-2.36-5.62-5-6.38-12.35-7.75a55.53 55.53 0 00-8.46-.85z" fill="#093f68"/><path d="M168.076 254.653l-13.913 4.357-13.207-42.17a6.79 6.79 0 014.453-8.53l.955-.3a6.79 6.79 0 018.509 4.45l13.213 42.19-.01.003z" fill="#f56132"/><path d="M154.17 260a1 1 0 01-.95-.71L140 217.13a7.8 7.8 0 015.11-9.77l.95-.3a7.8 7.8 0 019.77 5.11L169 254.34a1 1 0 01-.07.76 1 1 0 01-.59.49L154.47 260a1 1 0 01-.3 0zm-5.76-51.3a5.75 5.75 0 00-1.74.27l-.95.3a5.8 5.8 0 00-3.8 7.26l12.91 41.21 12-3.76-12.9-41.21a5.84 5.84 0 00-5.52-4.07z" fill="#093f68"/><rect x="112.27" y="162.48" width="5.65" height="9.91" rx="1.62" transform="rotate(-178.89 115.102 167.426)" fill="#fff"/><path d="M116.24 173.4h-2.46a2.63 2.63 0 01-2.57-2.68l.13-6.65a2.6 2.6 0 01.8-1.84 2.74 2.74 0 011.87-.74l2.4.05a2.64 2.64 0 012.58 2.67l-.13 6.66a2.61 2.61 0 01-.81 1.84 2.56 2.56 0 01-1.81.69zm-2.42-2h2.4a.58.58 0 00.45-.17.61.61 0 00.19-.44l.13-6.65a.63.63 0 00-.61-.64l-2.4-.05a.63.63 0 00-.62.62l-.13 6.65a.63.63 0 00.61.64z" fill="#093f68"/><path d="M112.34 164.05s-2.17-3-8.74-2.92c-6.73.1-11.72 5.57-11.72 5.57a17 17 0 0010.67 5.42c6.68.54 9.66-1.42 9.66-1.42z" fill="#ffbc0e"/><path d="M104.81 173.22c-.73 0-1.51 0-2.34-.1a17.91 17.91 0 01-11.36-5.77 1 1 0 010-1.32c.21-.24 5.36-5.8 12.44-5.9s9.47 3.19 9.57 3.33a1 1 0 01.19.61l-.13 6.65a1 1 0 01-.45.82c-.09.07-2.59 1.68-7.92 1.68zm-11.52-6.5a15.86 15.86 0 009.34 4.4c4.8.39 7.58-.57 8.59-1l.11-5.67c-.63-.64-2.79-2.35-7.72-2.29s-8.8 3.17-10.32 4.56z" fill="#093f68"/><path d="M99 166.73s4.19 3.18 12.2.27c-.02 0-5.96-5-12.2-.27z" fill="#fff"/><rect x="139.75" y="223.69" width="18.06" height="7.13" rx="3.01" transform="rotate(162.61 148.77 227.255)" fill="#ffc9b0"/><path d="M143.19 233.59a3.9 3.9 0 01-1.85-.46 4 4 0 01-2-2.35l-.33-1.06a4 4 0 012.63-5l11.48-3.59a3.93 3.93 0 013.06.27 4 4 0 012 2.35l.33 1.07a4 4 0 01-2.63 5l-11.48 3.6-.3-1 .3 1a4.22 4.22 0 01-1.21.17zm11.16-10.68a2.08 2.08 0 00-.6.09l-11.49 3.6a2 2 0 00-1.18 1 2 2 0 00-.13 1.53l.33 1.06a2 2 0 002.52 1.32l11.48-3.6a2 2 0 001.32-2.52l-.33-1.06a2 2 0 00-1-1.18 2 2 0 00-.92-.24z" fill="#093f68"/><rect x="141.79" y="230.21" width="18.06" height="7.13" rx="3.01" transform="rotate(162.61 150.811 233.78)" fill="#ffc9b0"/><path d="M145.24 240.11a4 4 0 01-3.83-2.81l-.33-1.06a4 4 0 012.63-5l11.49-3.6a4 4 0 015 2.63l.33 1.06a4 4 0 01-2.63 5l-11.48 3.6a3.84 3.84 0 01-1.18.18zm.9-1.13zm10.25-9.54a2.08 2.08 0 00-.6.09l-11.48 3.59a2 2 0 00-1.32 2.52l.33 1.07a2 2 0 002.52 1.31l11.49-3.59a2 2 0 001.31-2.52l-.33-1.06a2 2 0 00-1.92-1.41z" fill="#093f68"/><rect x="143.83" y="236.73" width="18.06" height="7.13" rx="3.01" transform="rotate(162.61 152.853 240.304)" fill="#ffc9b0"/><path d="M147.28 246.64a4 4 0 01-3.82-2.81l-.34-1.06a4 4 0 012.63-5l11.49-3.6a4 4 0 015 2.63l.34 1.06a4 4 0 01-2.63 5l-11.49 3.59a3.86 3.86 0 01-1.18.19zM158.44 236a2.08 2.08 0 00-.6.09l-11.49 3.6a2 2 0 00-1.32 2.52l.33 1.06a2.07 2.07 0 001 1.18 2 2 0 001.53.14l11.49-3.6a2 2 0 001.32-2.52l-.34-1.06a2 2 0 00-1.92-1.41z" fill="#093f68"/><rect x="145.87" y="243.26" width="18.06" height="7.13" rx="3.01" transform="rotate(162.61 154.895 246.828)" fill="#ffc9b0"/><path d="M149.33 253.16a4 4 0 01-3.83-2.81l-.33-1.06a4 4 0 012.62-5l11.49-3.6a4 4 0 015 2.63l.33 1.06a4 4 0 01-2.63 5L150.52 253a4.09 4.09 0 01-1.19.16zm11.15-10.68a1.8 1.8 0 00-.6.1l-11.49 3.59a2 2 0 00-1.31 2.52l.33 1.06a2 2 0 001 1.18 2 2 0 001.54.14l11.48-3.6a2 2 0 001.32-2.51l-.33-1.07a2 2 0 00-1.94-1.41z" fill="#093f68"/><rect x="160.52" y="219.15" width="7.35" height="25.94" rx="3.67" transform="matrix(-.95 .3 -.3 -.95 390.25 404.58)" fill="#ffc9b0"/><path d="M167 245.67a4.7 4.7 0 01-4.47-3.27L157 224.65a4.67 4.67 0 016.62-5.54 4.61 4.61 0 012.29 2.74l5.56 17.75a4.68 4.68 0 01-3.06 5.86 4.78 4.78 0 01-1.41.21zm-5.56-25.09a2.72 2.72 0 00-.8.12 2.68 2.68 0 00-1.76 3.35l5.56 17.75a2.65 2.65 0 001.31 1.57 2.68 2.68 0 002 .18 2.67 2.67 0 001.75-3.35l-5.5-17.75a2.67 2.67 0 00-2.55-1.87zm61.02 25.12h-42.73a1 1 0 01-1-1v-26.24a1 1 0 011-1h42.73a1 1 0 011 1v26.24a1 1 0 01-1 1zm-41.73-2h40.73v-24.24h-40.73z" fill="#093f68"/><path d="M176.66 168.94H188v33.18a5.66 5.66 0 01-5.66 5.66 5.66 5.66 0 01-5.66-5.66v-33.18z" fill="#fff"/><path d="M182.32 208.77a6.66 6.66 0 01-6.66-6.66v-33.17a1 1 0 011-1H188a1 1 0 011 1v33.17a6.66 6.66 0 01-6.68 6.66zm-4.66-38.83v32.17a4.66 4.66 0 009.32 0v-32.17z" fill="#093f68"/><path d="M213.1 168.94h11.32v33.18a5.66 5.66 0 01-5.66 5.66 5.66 5.66 0 01-5.66-5.66v-33.18z" fill="#fff"/><path d="M218.76 208.77a6.66 6.66 0 01-6.66-6.66v-33.17a1 1 0 011-1h11.32a1 1 0 011 1v33.17a6.66 6.66 0 01-6.66 6.66zm-4.66-38.83v32.17a4.66 4.66 0 009.32 0v-32.17z" fill="#093f68"/></g></svg>