<svg xmlns="http://www.w3.org/2000/svg" xmlns:xlink="http://www.w3.org/1999/xlink" viewBox="0 0 400 300" width="406" height="306" class="illustration styles_illustrationTablet__1DWOa"><defs><linearGradient id="a" x1="143.62" y1="246.1" x2="163.09" y2="217.3" gradientUnits="userSpaceOnUse"><stop offset="0" stop-color="#fff" stop-opacity="0"/><stop offset=".99" stop-color="#754c24"/></linearGradient><linearGradient id="b" x1="333.55" y1="200.41" x2="344.81" y2="182.22" xlink:href="#a"/><linearGradient id="c" x1="87.28" y1="186.1" x2="107.73" y2="163.65" xlink:href="#a"/></defs><g data-name="Layer 2"><path d="M131.79 67.12s1.38 11.81 2.49 14.52 4.83 14.51 4.83 14.51 2.68 3.78 1.65 4.28-2.65-2.91-2.65-2.91l-5-1.35s-4.46-11.83-5.5-14.42-2.57-13.23-2.57-13.23" fill="#ffc8a9"/><path d="M194.28 287.7L14.56 181.48c-5.72-3.21-10.63-8.48-5.05-11.95l180.37-104c2.71-1.68 6.82-2.78 9.57-1.18l188.66 109.54c5.72 3.32 6.75 12.6 1 15.93L218 287.53a23.9 23.9 0 01-23.72.17z" fill="#8383ea"/><path d="M114.73 185.92L78 210l107.92 69.12 43.92-27.16c-6.44-4.18-108.65-61.96-115.11-66.04z" opacity=".63" fill="url(#a)" style="mix-blend-mode:multiply"/><path d="M342 176.54l-22.26 13L339 200.78l22.19-11.91c-6.35-4.13-12.74-8.29-19.19-12.33z" opacity=".63" fill="url(#b)" style="mix-blend-mode:multiply"/><path d="M242.7 103.16c.33-.7-5.51 7.83-6.91 8.35-2.52.93-11.57 6.19-15.91 6.16.32 1.49 3.68 3 4 4.49 2.51 1 12.59-3.24 16.59-4.92 3.46-1.46 8.88-8.82 8.88-8.82z" fill="#f2c3bd"/><path d="M351 165.69c-5.11-.44-10.49-2-14.26-5.48v15.14a15.72 15.72 0 0015.72 15.72 15.72 15.72 0 0015.72-15.72V160c-5.4 2.14-11.49 6.19-17.18 5.69z" fill="#68e1fd"/><ellipse cx="352.42" cy="160.11" rx="15.72" ry="8.33" fill="#5ed18d"/><path d="M352.42 161.53s-10.69-1.57-13.52-18.86c.01 0 9.1 5.03 13.52 18.86zm1.58-2.2s-12.26-22 0-36.77a61.64 61.64 0 010 36.77z" fill="#5ed18d"/><path d="M352.42 145.5s-10.69-1.57-13.52-18.86c.01 0 9.1 5.03 13.52 18.86zm1.3 7.04s-2.72-10.46 12.18-19.75c0 0-1.12 10.35-12.18 19.75z" fill="#5ed18d"/><ellipse cx="352.42" cy="160.11" rx="15.72" ry="8.33" fill="#146666"/><path d="M352.42 161.53s-10.69-1.57-13.52-18.86c.01 0 9.1 5.03 13.52 18.86zm1.58-2.2s-12.26-22 0-36.77a61.64 61.64 0 010 36.77z" fill="#5ed18d"/><path d="M352.42 145.5s-10.69-1.57-13.52-18.86c.01 0 9.1 5.03 13.52 18.86zm1.3 7.04s-2.72-10.46 12.18-19.75c0 0-1.12 10.35-12.18 19.75z" fill="#5ed18d"/><path d="M256.06 201.56a32.23 32.23 0 01-2.87 3.33 55.81 55.81 0 01-6.72 3.82c-.89.36-2.13.8-2.13 2.22s1.87 2.75 4.53 2.58 7.46-1.6 8.62-2.84 1.69-1.33 1.69-1.33 4.62 1 6-.09c1-.82.26-5.3-.15-7.29a11.59 11.59 0 01-8.97-.4zm30.04 12.55a18.45 18.45 0 01-.5 4.9c-.58 1.66-4.07 8.39-3.49 9.3a4.3 4.3 0 004.73 1.49c2.16-.75 5.48-3.07 6.06-4.9s.83-6.06 1.25-7.39a12 12 0 000-4z" fill="#f3a05e"/><path d="M261.87 141c0 .65 3 15.76 5.11 20.59S276 182 276 182s8 28.15 8 31.72c0 0 5.46 3.78 10.92 0 0 0-1.26-10.71-1.26-14.07s-5-15.76-5.88-19.33-6.6-40.17-8.34-43.51-17.85-3.59-17.57 4.19z" fill="#335a6b"/><path d="M251.85 133.22v18.07c0 8.82 3.36 18.91 3.15 22.48s0 28.36 0 28.36a10.17 10.17 0 0010.31 0s1.65-17.44 1.86-20.59 0-22.69 0-26.26-1.61-17.67-5.32-20.7-10-1.36-10-1.36z" fill="#335a6b"/><path d="M258.45 89.73s-4.89-.09-6.49 1.07-10.76 11.82-10.76 11.82 2.49 5.6 6.13 7.56h1.24s1 22.85 1.24 24c0 0-.73-.07-.19 1.35s3.91 2 3.91 2 16.82 3.27 23.94.07l2-.89s1.16-2.67.89-3.47a31.94 31.94 0 00-2.67-3.91s5.47-16 5.47-22.41a15.9 15.9 0 00-4.41-10.84c-2.67-2.49-11.29-6.4-11.29-6.4z" fill="#68e1fd"/><path d="M259.38 89.7l.14 3.31s.51 3.28 5.45 2.61c0 0 3.82-1.12 3.64-3.47 0-.63-.5-6.85-.5-6.85" fill="#f2c3bd"/><path d="M257.8 79.47a2.84 2.84 0 01-2.73-3c.06-2.73 1.71-4.09 3.13-4.09s1.14-2.79 5.63-2.33 5.17 2 5.17 2 3.81.51 4.44 4-1.42 7-2.1 7.28-.17 2.22-1.59 3.58a5.09 5.09 0 01-3.35 1.31" fill="#4d4030"/><path d="M256.94 78.46a16.43 16.43 0 010 3.4c-.22 1.13-1.66 6.91 3.2 10.42 0 0 4.86.72 7.29-5 0 0 .84-7.3-.3-8.24s-1.39 1.41-3.46.94-4.84-2.26-6.73-1.52z" fill="#f2c3bd"/><path d="M267.82 81.9a3.62 3.62 0 00-1.43 2.21.6.6 0 00-.31 1.09c.67.46 1.71 0 2.31-.4a2.28 2.28 0 001.13-2.08 1.13 1.13 0 00-1.7-.82z" fill="#f2c3bd"/><path d="M267.74 81.86s-.71 3.54-1.25 3.92-1.65 1.76-2.6 1.52a1.57 1.57 0 01-.46-.24 7.32 7.32 0 00-3.23-1.61c-1.43-.12-2.73.35-3.09-.06a4 4 0 01-.53-1.47s-.08 4 .39 5.34a4.71 4.71 0 003.77 3.54 5.57 5.57 0 005.59-2.29C268 88 268 82.74 268 82.74z" fill="#4d4030"/><path d="M107.56 161.42l-37.84 18.87 18.62 12.6 32.74-18.81c-6.4-4.13-7.08-8.62-13.52-12.66z" opacity=".63" fill="url(#c)" style="mix-blend-mode:multiply"/><path d="M118.22 117.61s.64 15.58 1 20.36.17 26.95.17 26.95a8.64 8.64 0 01-4.45.58c-2.7-.29-5.31-22.38-5.28-25.38s-4.13-19.29-4.15-25.93 3.26-14.51 8.32-13.64 4.39 17.06 4.39 17.06z" fill="#efb497"/><path d="M106.41 124.16s-.72 15.58-.79 20.37-1.8 25.64-1.8 25.64a14.11 14.11 0 01-5.9.49s-2.1-21.13-1.9-25.3c.14-3-2.54-19.1-2-25.71s4.52-14.17 9.48-12.86 2.91 17.37 2.91 17.37z" fill="#ffc8a9"/><path d="M123.32 172.6c-2.23-2.73-3.56-9-3.56-9s.09-.12-.17-.43a2.66 2.66 0 01-2.59 1.53c-2.34-.18-2.33-3.12-4.16-3.73-.1.19-.19.4-.3.64-.89 2-.19 13.44-.19 13.44l3.14 1.54-.3-3.66s.83 1.94 1.67 4 3.71 3.05 6.73 4.38 4.61.3 5.32-2-3.36-3.99-5.59-6.71z" fill="#473e39"/><path d="M119.28 134.1c.75-21.88 1.25-43.3 1.25-43.3S102 81.63 96.89 86.14a67.94 67.94 0 00-3.4 18.61c-.31 5.42-.54 18.45-.57 32.5 8.86 4.51 19.16 3.92 26.36-3.15z" fill="#847066"/><path d="M121.87 80.09a63.68 63.68 0 013.21-9.84c2.22-5.75 3.8-11.44 3.43-17.51a3.5 3.5 0 00-.74-1.73c-3.18-3.37-10.14-2.59-10.14-2.59a19.43 19.43 0 00-2.88 0 .54.54 0 01-.48.55c-8 .9-10.53 9.52-11.59 16.32-.72 4.62-.87 9.39-2.54 13.81a50.48 50.48 0 01-3.27 6.72c2.3 1.7 12.7 8.62 23.32 3.8.59-3.14 1.01-6.36 1.68-9.53z" fill="#a2c609"/><path d="M127.24 50.53s6.39 4.87 5.33 18.29c0 0-6.08 1.51-8.2 1.5" fill="#a2c609"/><path d="M106.08 73.73l-2.81-12.28-.75 3a.55.55 0 010 .16c-.42 3.31-1.81 9.54-1.94 10.51l-.65 5.47 5.8-4.3z" fill="#89a000"/><path d="M127.12 44.3v.06a1.44 1.44 0 00-.61.59c-1.09 1.92-2.12 3.88-3.12 5.84a6.27 6.27 0 01-2.27-.89 8.33 8.33 0 01-2.89-2.9l1.28-6.23z" fill="#f9b495"/><path d="M133.67 36c.17.4-5.37 13.57-8.31 12.41s-7.11-6.37-5.59-11.69 11.55-6.37 13.9-.72z" fill="#ffc8a9"/><path d="M128.85 29.48c-17.41-4.62-24.64 30-24.64 30 1.41-7.37 8.55-10.21 8.55-10.21l.12 11.09c2.62-1.65 6.56-1.43 8.41-3.66l.18-13.07s-2.08-3.74-.15-4 2.27 2 2.27 2l1.7-4.27 8.46 3.41s5.74-8.47-4.9-11.29z" fill="#8e4228"/><path d="M107.67 177.19c-2.23-2.73-3.56-9-3.56-9s.09-.12-.17-.43a2.66 2.66 0 01-2.59 1.58c-2.34-.18-2.33-3.12-4.16-3.73-.1.19-.19.4-.3.64-.89 2-.19 13.44-.19 13.44l3.14 1.54-.3-3.66s.83 1.94 1.67 4 3.71 3.05 6.73 4.38 4.61.3 5.32-2-3.36-4.03-5.59-6.76z" fill="#473e39"/><path fill="#68e1fd" d="M218.03 231.68l24.28-12.62v-29.59l-24.28 14.13v28.08zm-28.44-45.75l28.19 16.31-.3.52 24.33-14.15-28.49-16.48-23.73 13.8zm23.73-14.96l24.16-14.05-25.27-14.6-24.13 14.04 25.24 14.61zM242.8 188l24.2-14c-.14-.1-.28-.2-.43-.29l-28.05-16.2-24.16 14.06zm-58.68-61.89l-17.88-10.32a9.86 9.86 0 00-9.86 0l-19.24 11.11L160 140.13zm-21.76 45.22l-1.08.62v27.43l26.87 15.54v-28.67l-25.79-14.92zm23.73-14.96l-26.06-15.08-23.74 13.8 26.06 15.08 23.74-13.8zm30.99 46.62l-27.93-16.16v28.67l27.88 16.13v-28.61l.05-.03zm-28.48-17.63l23.73-13.81-25.25-14.61-23.73 13.81 25.25 14.61z"/><path fill="#68e1fd" d="M161.36 170.75l-25.77-14.91v28.67l24.69 14.29v-27.42l1.08-.63z"/><path d="M134.6 155.26l-21.83-12.63.5-.87 22 12.75 23.73-13.8-22.88-13.24-22.02 12.73a6.49 6.49 0 00-2.75 8.13v4.36a6.63 6.63 0 000 .68v17.12l23.25 13.45zm52.48.53l24.13-14.04-26.09-15.06-24.1 14.02 26.06 15.08zm2.07 60.87v21.9h-1v-22.48l-26.87-15.55v22.79l51.53 30.89a12.73 12.73 0 004.22 1.57v-23zm53.15 3.53L218 232.8v23.13a12.76 12.76 0 007.83-1.67L243.22 244h-.92zm1 23.81l20.23-11.91a10.5 10.5 0 005.16-8.59l.76-17.41-26.15 13.58zm26.78-56.15l-.26-8.38a6.54 6.54 0 00-2-4.82l-24.52 14.24v29.65l26.2-13.61.57-17.08m-134.48-2.18v22.2h-.09l24.78 14.85v-22.77l-24.69-14.28zm-24.24-14.03v17a8.4 8.4 0 004.08 7.2l19.17 11.49v-22.24z" fill="#68e1fd"/><path fill="#68e1fd" style="mix-blend-mode:multiply" d="M218.03 231.68l24.28-12.62v-29.59l-24.28 14.13v28.08z"/><path fill="#68e1fd" d="M189.59 185.93l28.19 16.31-.3.52 24.33-14.15-28.49-16.48-23.73 13.8zm23.73-14.96l24.16-14.05-25.27-14.6-24.13 14.04 25.24 14.61z"/><path d="M242.8 188l24.2-14c-.14-.1-.28-.2-.43-.29l-28.05-16.2-24.16 14.06z" fill="#68e1fd" style="mix-blend-mode:multiply"/><path d="M184.12 126.11l-17.88-10.32a9.86 9.86 0 00-9.86 0l-19.24 11.11L160 140.13zm-21.76 45.22l-1.08.62v27.43l26.87 15.54v-28.67l-25.79-14.92zm23.73-14.96l-26.06-15.08-23.74 13.8 26.06 15.08 23.74-13.8z" fill="#68e1fd"/><path fill="#68e1fd" style="mix-blend-mode:multiply" d="M217.08 202.99l-27.93-16.16v28.67l27.88 16.13v-28.61l.05-.03zm-28.48-17.63l23.73-13.81-25.25-14.61-23.73 13.81 25.25 14.61zm-27.24-14.61l-25.77-14.91v28.67l24.69 14.29v-27.42l1.08-.63zm-25.21-43.28L114.1 140.2a6.48 6.48 0 00-1.46 1.18 5.93 5.93 0 00.61.4l22 12.75L159 140.71zm50.93 28.32l24.13-14.04-26.09-15.06-24.1 14.02 26.06 15.08z"/><path d="M189.15 216.66v21.9H189v1.39l23.79 14.26a12.73 12.73 0 004.22 1.57v-23z" fill="#68e1fd"/><path d="M188 236.71a.46.46 0 01.13-.33v-20.3l-26.87-15.55v22.79l26.74 16z" fill="#68e1fd" style="mix-blend-mode:multiply"/><path d="M242.3 220.19L218 232.8v23.13a12.76 12.76 0 007.83-1.67L243.22 244h-.92z" fill="#68e1fd"/><path d="M243.3 244l20.23-11.91a10.5 10.5 0 005.16-8.59l.76-17.41-26.15 13.58z" fill="#68e1fd" style="mix-blend-mode:multiply"/><path d="M270.08 187.85l-.26-8.38a6.54 6.54 0 00-2-4.82l-24.52 14.24v29.65l26.2-13.61.57-17.08m-134.48-2.18v22.2h-.09l24.78 14.85v-22.77l-24.69-14.28z" fill="#68e1fd"/><path d="M111.35 171.64v17a8.4 8.4 0 004.08 7.2l19.17 11.49v-22.24z" fill="#68e1fd" style="mix-blend-mode:multiply"/><path fill="#ffeed9" d="M188.15 238.56h1v-21.9l-1-.58v22.48zm1.44-52.63l23.73-13.8-.99-.58-23.73 13.81.99.57zm-1.44.32v28.67l1 .58v-28.67l-1-.58zm26.17-14.7l24.16-14.06-1-.57-24.16 14.05 1 .58zm-26.24-15.19l24.13-14.04-1-.57-24.13 14.04 1 .57zm-27.8 43.59v22.77l1 .6v-22.79l-1-.58zm2.08-28.62l-1-.58-1.08.63v27.42l1 .58v-27.43l1.08-.62zm.99-.58l23.73-13.81-.99-.57-23.74 13.8 1 .58zm-28.76 37.12h.91l-.91-.55v.55zm25.44-66.58l-1-.58-23.73 13.81.99.57 23.74-13.8zm.99-.58l24.1-14.02-1-.58-24.1 14.02 1 .58zm-25.43 44.96l-1-.58v22.23l.91.55h.09v-22.2zm0-29.83l-1-.58v28.67l1 .58v-28.67zm26.76 14.33l-26.06-15.08-.7.41v.34l25.77 14.91.99-.58z"/><path fill="#ffeed9" d="M189.15 186.83l27.93 16.16.2-.11.2-.12.3-.52-28.19-16.31-.44.26v.64zm-.55-1.47l-25.25-14.61-.99.58 25.79 14.92v-.64l.45-.25zm-53.3-30.84l-22.04-12.75-.5.86 21.83 12.63v-.34l.71-.4z"/><path fill="#ffeed9" d="M188.15 185.61v.64l1 .58v-.64l.44-.26-.99-.57-.45.25zm-25.8-15.44l-.99.58 1 .58.99-.58-1-.58zm-26.76-14.67l.7-.41-.99-.57-.71.4v.34l1 .58v-.34zM217 256h1c-.34 0-.67-.09-1-.15zm.52-22.93l-.24-.14-.25-.14v23c.33.06.66.12 1 .15V232.8zm-.24-29.96l-.2-.12-.05.03v28.61l.51.3.49-.25V203.6l24.28-14.13v-.57l-.5-.29-24.33 14.15-.2.35zm26.02-14.79v.58l24.49-14.25a6.64 6.64 0 00-.79-.65l-24.2 14z"/><path fill="#ffeed9" d="M217.08 202.99l.2.12.2-.35-.2.12-.2.11zm26.23 41.05v-.05l-.09.05h.09zm-83.29-103.91l-22.87-13.24-1 .58 22.88 13.24.99-.58zm82.29 80.06v23.85h.91l.09-.05v-24.32l-1 .52zm-29.98-48.64l.99-.58-25.24-14.61-1 .58 25.25 14.61zm29.98 47.51l1-.52v-29.65l-1 .58v29.59zm-56.22-62.69l.99-.58-26.06-15.08-.99.58 26.06 15.08zm55.72 32.24l.99-.58-28.48-16.48-1 .58 28.49 16.48z"/><path fill="#ffeed9" d="M213.32 172.13l1-.58-1-.58-.99.58.99.58zm-26.24-15.19l1-.58-1-.57-.99.58.99.57zm-26.06-16.23l-1-.58-.99.58 1 .58.99-.58zm81.78 47.32l-.99.58.5.29v.57l1-.58v-.57l-.51-.29zm-108.21-4.1l-23.24-13.45v1.16l23.24 13.45v-1.16zm83.44 47.75v1.12l24.28-12.61v-1.13l-24.28 12.62zm25.28-12.01l26.14-13.59.05-1.15-26.19 13.61v1.13zm-107.72-35.16v1.16l24.69 14.28v-1.15l-24.69-14.29zm53.56 30.99v1.16l27.88 16.13v-1.16l-27.88-16.13zm-27.87-16.12v1.15l26.87 15.55v-1.16l-26.87-15.54zm26.87 15.54v1.16l1 .58v-1.16l-1-.58zm-27.87-16.12v1.15l1 .58v-1.15l-1-.58zm-25.69-14.87v1.16l1 .58v-1.16l-1-.58zm82.95 48l-.51-.3v1.16l.25.14.24.14.51-.27v-1.12l-.49.25zm24.77-11.74l1-.52v-1.13l-1 .52v1.13z"/><path fill="#68e1fd" d="M201.65 128.09v23.38l18.24 10.43 20.58-12.16v-23.38"/><path fill="#68e1fd" d="M201.65 128.09l21.16-12.04 17.66 10.31-20.58 12.16-18.24-10.43z"/><path fill="#fff" opacity=".21" d="M201.65 128.09l21.16-12.04 17.66 10.31-20.58 12.16-18.24-10.43z"/><path fill="#68e1fd" style="mix-blend-mode:multiply" d="M219.89 138.52v23.38l20.58-12.16v-23.38l-20.58 12.16z"/><path d="M269.32 113.32s-2.37 4.65-3.75 5.92-16.19 7.93-17.56 8.46-1.59 1-2.33.85-7.19-.11-7.51.53a1.82 1.82 0 000 1.38s-2 1.16-1.59 2.33 1.48 4.13 3.28 4.13 5.82-3.39 6.14-4.23c0 0 16.49-1.38 23.32-5.18s7.89-9 7.89-9a8.46 8.46 0 00-7.89-5.19z" fill="#f2c3bd"/><path fill="#68e1fd" d="M117.74 84.83v23.38l18.23 10.43 20.59-12.16V83.1"/><path fill="#68e1fd" d="M117.74 84.83l21.16-12.04 17.66 10.31-20.59 12.17-18.23-10.44z"/><path fill="#fff" opacity=".21" d="M117.74 84.83l21.16-12.04 17.66 10.31-20.59 12.17-18.23-10.44z"/><path fill="#68e1fd" style="mix-blend-mode:multiply" d="M135.97 95.27v23.37l20.59-12.16V83.1l-20.59 12.17z"/><path d="M111.19 67.64s.1 7.83 1.39 10.43 7.58 15.8 7.88 16 5.84 3.11 5.11 4.14-4-.7-4-.7 4 6.2 2.39 7.31-8.51-5-8.55-6.82-.21-4.51-.21-4.51-10.08-13.59-10.86-15.89S103 66.43 103 66.43s4.53-2.43 8.19 1.21z" fill="#ffc8a9"/><path d="M111.72 60.39l.72 11c-1-.18-9.49.67-9.66.42s.49-10.36.49-10.36" fill="#a2c609"/></g></svg>