<svg data-name="Layer 1" xmlns="http://www.w3.org/2000/svg" xmlns:xlink="http://www.w3.org/1999/xlink" viewBox="0 0 820.39 493.45" width="406" height="306" class="illustration styles_illustrationTablet__1DWOa"><defs><linearGradient id="b" x1="-59.37" y1="-43.04" x2="-18.72" y2="-43.04" gradientTransform="matrix(1 .08 .08 -1 237.98 145.24)" gradientUnits="userSpaceOnUse"><stop offset="0" stop-color="#ecc4d7"/><stop offset=".42" stop-color="#efd4d1"/><stop offset="1" stop-color="#f2eac9"/></linearGradient><linearGradient id="a" x1="353.31" y1="403.21" x2="352.47" y2="460.65" gradientUnits="userSpaceOnUse"><stop offset="0"/><stop offset=".99" stop-opacity="0"/></linearGradient><linearGradient id="e" x1="419.93" y1="404.2" x2="419.08" y2="461.64" xlink:href="#a"/><linearGradient id="f" x1="654.09" y1="407.64" x2="653.24" y2="465.08" xlink:href="#a"/><linearGradient id="g" x1="720.72" y1="408.62" x2="719.88" y2="466.06" xlink:href="#a"/><linearGradient id="h" x1="-592.83" y1="-1311.78" x2="-567.19" y2="-1311.78" gradientTransform="matrix(.93 .36 .36 -.93 1320.95 -802.91)" xlink:href="#b"/><linearGradient id="i" x1="38.97" y1="442.43" x2="52.84" y2="442.43" xlink:href="#a"/><linearGradient id="j" x1="211.91" y1="437.54" x2="230.53" y2="437.54" xlink:href="#a"/><linearGradient id="k" x1="103.28" y1="372.86" x2="164.94" y2="426.07" xlink:href="#a"/><linearGradient id="l" x1="137" y1="235.58" x2="288.7" y2="227.48" gradientTransform="matrix(1 0 0 -1 -3.58 449.32)" xlink:href="#a"/><linearGradient id="c" x1="188.96" y1="159.35" x2="337.62" y2="167.8" gradientUnits="userSpaceOnUse"><stop offset=".01"/><stop offset=".99" stop-opacity="0"/></linearGradient><linearGradient id="m" x1="-26.43" y1="188.84" x2="214.68" y2="199.8" gradientTransform="matrix(1 0 0 -1 -3.58 449.32)" xlink:href="#a"/><linearGradient id="n" x1="190.43" y1="362.33" x2="251.25" y2="311.65" xlink:href="#a"/><linearGradient id="o" x1="153.75" y1="390.07" x2="238.78" y2="343.89" xlink:href="#a"/><linearGradient id="p" x1="255.61" y1="455.44" x2="186.16" y2="448.68" xlink:href="#a"/><linearGradient id="q" x1="55.02" y1="459.32" x2="20.67" y2="446.93" xlink:href="#a"/><linearGradient id="r" x1="285" y1="266.74" x2="310.61" y2="266.74" gradientTransform="matrix(1 0 0 -1 -3.58 449.32)" xlink:href="#b"/><linearGradient id="s" x1="392.79" y1="149.41" x2="391.77" y2="42.52" gradientTransform="matrix(1 0 0 -1 -3.58 449.32)" xlink:href="#a"/><linearGradient id="t" x1="690.1" y1="146.58" x2="689.08" y2="39.69" gradientTransform="matrix(1 0 0 -1 -3.58 449.32)" xlink:href="#a"/><linearGradient id="u" x1="683.81" y1="63.84" x2="691.85" y2="-2.35" gradientTransform="matrix(1 0 0 -1 -3.58 449.32)" xlink:href="#a"/><linearGradient id="v" x1="389.63" y1="60.71" x2="389.63" y2=".19" gradientTransform="matrix(1 0 0 -1 -3.58 449.32)" xlink:href="#a"/><linearGradient id="w" x1="647.69" y1="6.25" x2="733.12" y2="6.25" gradientTransform="matrix(1 0 0 -1 -3.58 449.32)" xlink:href="#a"/><linearGradient id="x" x1="563.36" y1="104.19" x2="527.2" y2="297.44" xlink:href="#c"/><linearGradient id="d" x1="556.3" y1="67.62" x2="554.05" y2="252.32" gradientUnits="userSpaceOnUse"><stop offset="0" stop-color="#fff"/><stop offset=".09" stop-color="#fff" stop-opacity=".95"/><stop offset=".25" stop-color="#fff" stop-opacity=".83"/><stop offset=".46" stop-color="#fff" stop-opacity=".63"/><stop offset=".71" stop-color="#fff" stop-opacity=".35"/><stop offset=".99" stop-color="#fff" stop-opacity="0"/><stop offset="1" stop-color="#fff" stop-opacity="0"/></linearGradient><linearGradient id="y" x1="673.83" y1="379.07" x2="194.69" y2="209.37" gradientTransform="matrix(1 0 0 -1 -3.58 449.32)" xlink:href="#d"/><linearGradient id="z" x1="538.69" y1="373.81" x2="539.81" y2="334.23" xlink:href="#a"/><linearGradient id="A" x1="7.05" y1="345.83" x2="224.03" y2="195.34" gradientTransform="matrix(1 0 0 -1 -3.58 449.32)" xlink:href="#d"/></defs><path d="M204.59 118.13c-34.62 11.88-72.2 31.42-81.1 66.88-5.09 20.32.45 42.53-6.68 62.21-10.11 27.88-42.46 42.57-53.73 70-4.76 11.6-5.28 24.47-4.83 37 .84 23.51 5.52 48.24 21.11 65.86 23.74 26.86 64.17 29 100 29.18q280 1.14 560-2.59c7.2-.1 15.07-.43 20.51-5.16 3.9-3.39 5.84-8.49 7.22-13.47 7.73-27.94 2.74-59.58 17.32-84.64 7.27-12.49 18.79-22.05 26.32-34.38 16.87-27.63 10.2-65-8.85-91.13s-48.21-43-77.71-56.35-60.44-23.94-87.78-41.25c-52.8-33.57-90.3-91-149.13-112.26-51-18.46-108.16-3.52-151 27.44-18.16 13.16-32.19 30.54-49.64 44.4-24.3 19.23-53.18 28.35-82.03 38.26z" fill="#68e1fd" opacity=".18" style="isolation:isolate"/><path d="M17.97 458.68c-6.82.39-14.85 1.52-18 7.57 9 8.86 22.5 11 35.06 12.49 69.06 8.13 138.75 9.36 208.33 10.59l208.8 3.68c43.56.77 87.41 1.51 130.37-5.73 27.23-4.59 53.92-12.36 81.36-15.42 26.22-2.93 52.79-1.52 79-4.62 6.52-.77 13.34-2 18.46-6.08s7.72-12.07 3.94-17.44c-3-4.22-8.56-5.46-13.64-6.29-19-3.08-38.17-4.74-57.36-5.91-178.31-11-355.57 19-533.6 21.84-47.79.75-94.93 2.57-142.72 5.32z" fill="#1d2741" opacity=".18" style="isolation:isolate"/><path d="M167.66 210.19s4.58-33.83 7.25-39.43 3.35-29.15 33.89-13.2c0 0 4.48 4.52 2.2 10.09s-2.06 9.58-.51 11.59-2.73 4.14-2.73 4.14-1-.34-2.37 6.14-13.91 6.07-13.91 6.07-6.73 3.41-5.11 13.41-15.57 9-18.71 1.19z" transform="translate(-.03 .01)" fill="url(#b)"/><path d="M165.73 173.74c-.44-5.61 1-11.63 5-15.56a15.75 15.75 0 002-2 14.4 14.4 0 001.31-2.85 18.11 18.11 0 0111.63-10.1 22.11 22.11 0 0115.5 1.52c2.47 1.19 4.74 2.79 7.3 3.77s5.61 1.25 7.94-.2a4.33 4.33 0 01-.75 4l3.57-1.16a12.14 12.14 0 01-5.49 10.71l1.39-.21c-1.13 1.85-3.79 1.85-5.91 1.45a40.35 40.35 0 01-7.83-2.28c-3.51-1.42-7.64-3.32-10.83-1.26s-3.16 6.69-4.18 10.39a15.14 15.14 0 01-4 6.8 10 10 0 00-1.47-3.6 3.49 3.49 0 00-3.39-1.5c-2.22.52-2.69 3.48-2.4 5.74.25 2 1 4.26 2.9 4.9a32.45 32.45 0 00-4.86 8.84l-1.1-.35a1.14 1.14 0 01-1.48.61c-1-.44-2.15-6.28-2.57-7.53a42.37 42.37 0 01-2.28-10.13z" fill="#3f3d56"/><circle cx="352.6" cy="449.59" r="10.74" fill="#68e1fd"/><path d="M358 449.58a5.4 5.4 0 11-5.4-5.4 5.4 5.4 0 015.4 5.4z" transform="translate(-.03 .01)" fill="url(#a)"/><circle cx="419.26" cy="449.59" r="10.74" fill="#68e1fd"/><circle cx="419.26" cy="449.59" r="5.39" fill="url(#e)"/><circle cx="653.47" cy="449.59" r="10.74" fill="#68e1fd"/><circle cx="653.47" cy="449.59" r="5.39" fill="url(#f)"/><circle cx="720.12" cy="449.59" r="10.74" fill="#68e1fd"/><circle cx="720.12" cy="449.59" r="5.39" fill="url(#g)"/><path d="M291.55 206.77c1.93-1.51 4.52-1.87 6.61-3.13 1-.59 1.82-1.36 2.77-2a16.5 16.5 0 018.1-3c.48.88-2.16 3.11-3.27 3.73 4-.41 6.56-.82 10.6-1 1.62 0 1.13 1.28.51 1.55-1.13.5-4.53 1.47-5.66 2a36.54 36.54 0 018.32-1.91c1.2.19.7 1.48-.13 1.78a74.77 74.77 0 01-9 3c2.07-.38 4.94-1.23 7-1.24a.7.7 0 01.72.68.71.71 0 01-.31.6 8 8 0 01-2.14 1l-5.42 2a30.31 30.31 0 015.21-.38c1.07.08 1.37 1.19-1.3 2.09a45.81 45.81 0 00-6.87 2.66c-4.94 2.56-10.87 1.73-16.36.84.32-3.17.33-6.17.62-9.27z" transform="translate(-.03 .01)" fill="url(#h)"/><path d="M43.18 435.78l-3.49 3.08a2.08 2.08 0 00-.26 2.94l.13.15 6.17 6.38a2.7 2.7 0 003.64.14l3.44-3zm169.5-3.26l-.79 5.44a2.73 2.73 0 002.44 3h.08l11.56 1.57a3.25 3.25 0 003.71-2.49l.82-5.32z" fill="#68e1fd"/><path d="M43.21 435.77l-3.49 3.08a2.08 2.08 0 00-.26 2.94l.13.15 6.17 6.38a2.7 2.7 0 003.64.14l3.44-3z" transform="translate(-.03 .01)" fill="url(#i)"/><path d="M212.71 432.51l-.79 5.44a2.73 2.73 0 002.44 3h.08l11.56 1.57a3.25 3.25 0 003.71-2.49l.82-5.32z" transform="translate(-.03 .01)" fill="url(#j)"/><path d="M134.23 311.33c-4.51-1-9.06 1.54-9.94 5.65-3.56 16.62-1.55 54.43-19 64.93s-51.74 38.1-60.56 49.1a6.68 6.68 0 00.66 9.29l3.33 3.12a8.75 8.75 0 009.37 1.49c16.77-7.39 68-30.68 76.79-43.43 10.57-15.27 49.09-74.09 49.09-76.47 0-1.87-33.58-9.91-49.74-13.68z" fill="#68e1fd"/><path d="M134.26 311.32c-4.51-1-9.06 1.54-9.94 5.65-3.56 16.62-1.55 54.43-19 64.93S53.58 420 44.76 431a6.68 6.68 0 00.66 9.29l3.33 3.12a8.75 8.75 0 009.37 1.49c16.77-7.39 68-30.68 76.79-43.43C145.48 386.2 184 327.38 184 325c0-1.87-33.58-9.91-49.74-13.68z" transform="translate(-.03 .01)" fill="url(#k)"/><path d="M205.46 233.41s36.11 1.47 59.36-6 27-10 27-10l-1.18-11.08s-41.43 8.23-55.23 5.42-31.72 5.58-31.72 5.58z" fill="#68e1fd"/><path d="M205.49 233.4s36.11 1.47 59.36-6 27-10 27-10l-1.18-11.08s-41.43 8.23-55.23 5.42-31.72 5.58-31.72 5.58z" transform="translate(-.03 .01)" fill="url(#l)"/><path d="M782.39 59.13v253.54a25.13 25.13 0 01-25.13 25.13H320.64a25.14 25.14 0 01-25.14-25.13l.57-266a25.15 25.15 0 0125.14-25.14l-.57 12.48h436.57a25.13 25.13 0 0125.18 25.08z" fill="#68e1fd"/><path d="M783.05 58.11v253.54a25.13 25.13 0 01-25.13 25.13H321.3a25.14 25.14 0 01-25.14-25.13V46.07c0-13.89 12.09-24.55 26-24.55h432c26.65 1.06 28.88 22.65 28.91 36.53z" transform="translate(-.03 .01)" fill="url(#c)"/><rect x="312.12" y="21.53" width="449.71" height="51.11" rx="9.98" fill="#68e1fd"/><path d="M782.39 59.58v253.54a25.15 25.15 0 01-25.14 25.14l-419.95-.46a25.14 25.14 0 01-25.14-25.13V59.58a25.15 25.15 0 0125.14-25.14l414.55-12.91c30.54 0 30.55 24.18 30.54 38.05zM156.16 211.01s8.08-10.65 31.94-10.54 45.07.38 51.14-1.6 41.51-14.86 41.51-14.86l5.12 13.48s-32.9 19.76-48.47 23c-18.85 3.93-32.93 9-38 26.07s-7.26 51.48-14.37 58-54 16.7-59.2 5.45 6.56-60 30.33-99z" fill="#68e1fd"/><path d="M285.9 197.47s-4 2.37-9.76 5.61c-11 6.1-28.53 15.28-38.71 17.4-18.85 3.93-32.93 9-38 26.07-4.68 15.6-6.87 45.76-12.66 55.73a9.52 9.52 0 01-1.71 2.23c-7.1 6.48-54 16.7-59.2 5.45s6.62-59.92 30.38-99c0 0 8.08-10.65 31.94-10.54s45.07.38 51.14-1.6S280.83 184 280.83 184z" transform="translate(-.03 .01)" fill="url(#m)"/><path d="M125.78 309.41s-6.87 24.06 9.82 32.27 79.09 20.18 79.09 20.18-10.91 44.43-7.32 62l1.39 6.83a5.75 5.75 0 005.48 4.35l13.48.7a6 6 0 005.76-3.17c7.37-15 22-74.45 9.24-90.92-14.62-18.84-57.75-37.16-57.75-37.16z" fill="#68e1fd"/><path d="M233.71 432.17l-.2.42a5.87 5.87 0 01-4.43 3.1 6.6 6.6 0 01-1.33.07l-2.51-.13-11-.57a5.75 5.75 0 01-5.48-4.35l-1.34-6.83c-3.59-17.6 7.32-62 7.32-62s-62.39-12-79.09-20.18-9.82-32.27-9.82-32.27l21.44-1.77 37.73-3.12s43.12 18.32 57.74 37.16c12.68 16.3-1.6 74.77-9.03 90.47z" transform="translate(-.03 .01)" fill="url(#n)"/><path d="M233.71 431.83l-4.63 3.49-1 .76a6.31 6.31 0 01-2.84-.82 5.33 5.33 0 01-2.64-3.53l-1.39-6.83c-1.56-7.64 8.49-38 10.31-50a32.15 32.15 0 00-24.81-36.18c-18.31-4.11-39.64-9.45-48.4-13.75-7.77-3.82-10.43-11.08-11.06-17.75L185 304.1s43.12 18.32 57.74 37.16c12.68 16.39-1.6 74.87-9.03 90.57z" transform="translate(-.03 .01)" fill="url(#o)"/><path d="M214.39 441.01s-6.87 18.6-5.47 20.21 55.87 0 55.87 0 2.56-5-9.71-8.8-26.56-4.82-26.56-4.82l-2.57-5zm-174.83.94l-10.25 3.69-2.55 3.45 20.45 19.24h23.76s-3.07-9.25-12.27-9.67-13-10.31-13-10.31z" fill="#68e1fd"/><path d="M214.42 441s-6.87 18.6-5.47 20.21 55.87 0 55.87 0 2.56-5-9.71-8.8-26.56-4.82-26.56-4.82l-2.57-5z" transform="translate(-.03 .01)" fill="url(#p)"/><path d="M39.59 441.94l-10.25 3.69-2.55 3.45 20.45 19.24H71s-3.07-9.25-12.27-9.67-13-10.31-13-10.31z" transform="translate(-.03 .01)" fill="url(#q)"/><path d="M281.42 185.32c1.24-2.11 3.53-3.38 5-5.31.7-.91 1.21-1.93 1.86-2.87a16.46 16.46 0 016.44-5.78c.77.64-.89 3.68-1.69 4.66 3.6-1.84 5.81-3.15 9.49-4.82 1.53-.54 1.52.79 1.05 1.26-.87.88-3.69 3-4.57 3.89a36.54 36.54 0 017.07-4.8c1.18-.25 1.18 1.13.52 1.71a74.17 74.17 0 01-7.27 6.09c1.79-1.11 4.16-2.94 6.12-3.71a.7.7 0 01.89.44.69.69 0 01-.05.56 8.11 8.11 0 01-1.62 1.74l-4.34 3.81a30.52 30.52 0 014.73-2.24c1-.32 1.7.61-.46 2.42a46.8 46.8 0 00-5.44 5c-3.67 4.17-9.5 5.55-14.94 6.71-.79-2.97-1.91-5.76-2.79-8.76z" transform="translate(-.03 .01)" fill="url(#r)"/><path d="M388.3 441.51c-7.75 0-14-6.28-14-12v-71.87c0-9.79 6.29-16.08 14-16.08a14 14 0 0114 14v71.87a14 14 0 01-13.92 14.08zm297.34 0a14 14 0 01-14-14V355.6a14 14 0 0114-14 14 14 0 0114 14v71.87a14 14 0 01-14 14z" fill="#68e1fd"/><path d="M388.33 441.5c-7.75 0-14-6.28-14-12v-71.87c0-9.79 6.29-16.08 14-16.08a14 14 0 0114 14v71.87a14 14 0 01-13.92 14.08z" transform="translate(-.03 .01)" fill="url(#s)"/><path d="M685.67 441.5a14 14 0 01-14-14v-71.91a14 14 0 0114-14 14 14 0 0114 14v71.87a14 14 0 01-14 14z" transform="translate(-.03 .01)" fill="url(#t)"/><path d="M428.73 443.08H343.3a3.31 3.31 0 01-3.31-3.31 3.31 3.31 0 013.31-3.31h85.43a3.31 3.31 0 013.31 3.31 3.31 3.31 0 01-3.31 3.31zm300.78 0h-85.43a3.31 3.31 0 01-3.31-3.31 3.31 3.31 0 013.31-3.31h85.43a3.31 3.31 0 013.31 3.31 3.31 3.31 0 01-3.31 3.31z" fill="#68e1fd"/><path d="M729.54 443.07h-85.43a3.31 3.31 0 01-3.31-3.31 3.31 3.31 0 013.31-3.31h85.43a3.31 3.31 0 013.31 3.31 3.31 3.31 0 01-3.31 3.31z" transform="translate(-.03 .01)" fill="url(#u)"/><path d="M428.76 443.07h-85.43a3.31 3.31 0 01-3.31-3.31 3.31 3.31 0 013.31-3.31h85.43a3.31 3.31 0 013.31 3.31 3.31 3.31 0 01-3.31 3.31z" transform="translate(-.03 .01)" fill="url(#v)"/><path d="M729.54 443.07h-85.43" transform="translate(-.03 .01)" fill="url(#w)"/><path d="M621.2 228.53v-14.81a9.38 9.38 0 00-9.31-9.43h-207.6a12.76 12.76 0 01-12.76-12.76v-19.9a12.76 12.76 0 0112.76-12.76h208.39a9.38 9.38 0 009.38-9.35v-16.07a9.37 9.37 0 0113.62-8.32 3.36 3.36 0 01.51.32l61.88 46.3a9.38 9.38 0 01-.08 16.47l-62.72 48.42a3.25 3.25 0 01-.59.37 9.37 9.37 0 01-13.48-8.48z" fill="#68e1fd"/><path d="M320.21 59.85s.73-20 23.87-21.58h52.42s-30.26 4.8-33.16 21.58 0 245.12 0 245.12 4.27 26.73 45.18 28.07h-71.26s-15.86-4.3-17.05-14.91 0-258.28 0-258.28z" fill="#68e1fd"/><path d="M621.2 228.53v-14.81a9.38 9.38 0 00-9.31-9.43h-207.6a12.76 12.76 0 01-12.76-12.76v-19.9a12.76 12.76 0 0112.76-12.76h208.39a9.38 9.38 0 009.38-9.35v-16.07a9.37 9.37 0 0113.62-8.32 3.36 3.36 0 01.51.32l61.88 46.3a9.38 9.38 0 01-.08 16.47l-62.72 48.42a3.25 3.25 0 01-.59.37 9.37 9.37 0 01-13.48-8.48z" fill="#68e1fd"/><path d="M621.23 228.52v-14.81a9.38 9.38 0 00-9.31-9.43h-207.6a12.76 12.76 0 01-12.76-12.76v-19.9c0-7.05 9.94-25.4 17-25.4l-4.23 12.64h208.38a9.38 9.38 0 009.38-9.35v-16.07c0-5.17 8.6-21.86 13.77-21.85 1.47 0-1.46 12.86-.15 13.53a3.36 3.36 0 01.51.32l73.48 39.32c4.54 2.49-5.41 15.17-7.9 19.7a9.35 9.35 0 01-3.78 3.75l-62.72 48.42a3.25 3.25 0 01-.59.37 9.37 9.37 0 01-13.48-8.48z" transform="translate(-.03 .01)" fill="url(#x)"/><path d="M629.08 215.35v-14.81a9.37 9.37 0 00-9.31-9.43h-207.6a12.76 12.76 0 01-12.76-12.76v-19.9a12.77 12.77 0 0112.76-12.76h208.39a9.37 9.37 0 009.38-9.35v-16.07a9.38 9.38 0 019.4-9.34 9.48 9.48 0 014.22 1 4.39 4.39 0 01.51.32l61.9 46.32a9.36 9.36 0 01-.1 16.44l-62.72 48.42a2.78 2.78 0 01-.59.37 9.37 9.37 0 01-13.48-8.48z" fill="#68e1fd"/><path d="M629.11 215.34v-14.81a9.37 9.37 0 00-9.31-9.43H412.2a12.76 12.76 0 01-12.76-12.76v-19.9a12.77 12.77 0 0112.76-12.76h208.39a9.37 9.37 0 009.38-9.35v-16.07a9.38 9.38 0 019.4-9.34 9.48 9.48 0 014.22 1 4.39 4.39 0 01.51.32l61.9 46.32a9.36 9.36 0 01-.1 16.44l-62.72 48.42a2.78 2.78 0 01-.59.37 9.37 9.37 0 01-13.48-8.48z" transform="translate(-.03 .01)" fill="url(#d)"/><path d="M312.72 34.23s-2-10.41 8.52-12.71H389s-30.26-4.07-33.16 12.71 0 270.73 0 270.73 7.12 30.76 48 32.1h-69.23s-19.29-1-21.89-18.94c-1.53-10.57 0-283.89 0-283.89z" transform="translate(-.03 .01)" fill="url(#y)"/><path d="M785.76 343.42v4.08c0 3.51-4.32 6.35-9.64 6.35H303.03c-5.32 0-9.64-2.84-9.64-6.35v-4.08a4.21 4.21 0 01.05-.62c.47-3.22 4.59-5.73 9.59-5.73h473.09c5 0 9.12 2.51 9.59 5.73a4.21 4.21 0 01.05.62z" fill="#68e1fd"/><path d="M785.74 341.42c-.46 2.44-4.58 4.35-9.59 4.35H303.06c-5 0-9.13-1.91-9.59-4.35.47-2.45 4.59-4.36 9.59-4.36h473.09c5 0 9.12 1.94 9.59 4.36z" transform="translate(-.03 .01)" fill="url(#z)"/><path d="M284.23 194.1l1.67 3.37c-11 6.1-38.29 20.89-48.47 23-18.85 3.93-32.93 9-38 26.07-4.68 15.6-6.87 45.76-12.66 55.73l-1.71 1.89-37.81 3.16s13-66.44 23-73.77 32.72-12.68 48.94-17.26 65.04-22.19 65.04-22.19z" transform="translate(-.03 .01)" fill="url(#A)"/></svg>